<?xml version="1.0" encoding="UTF-8"?>
<svg width="54px" height="54px" viewBox="0 0 54 54" version="1.1" xmlns="http://www.w3.org/2000/svg" xmlns:xlink="http://www.w3.org/1999/xlink">
    <!-- Generator: sketchtool 62 (101010) - https://sketch.com -->
    <title>3DC8B17A-1668-47AD-8D6F-65CAFC27D217</title>
    <desc>Created with sketchtool.</desc>
    <defs>
        <polygon id="path-1" points="0 0.45276545 5.34506472 0.45276545 5.34506472 7.73874067 0 7.73874067"></polygon>
        <polygon id="path-3" points="0.5457 0.203148888 21.4537 0.203148888 21.4537 4 0.5457 4"></polygon>
    </defs>
    <g id="UNWRA---Desktop" stroke="none" stroke-width="1" fill="none" fill-rule="evenodd">
        <g id="THE-DIFFERENCE-YOU-MAKE" transform="translate(-306.000000, -4063.000000)">
            <g id="global_campaign" transform="translate(150.000000, 3842.000000)">
                <g id="icon_unwra" transform="translate(156.000000, 221.000000)">
                    <circle id="Oval" fill="#24AAE2" cx="27" cy="27" r="27"></circle>
                    <g id="icon_unwra_alone" transform="translate(10.000000, 9.000000)">
                        <path d="M4.7041,4.8243 C5.1381,4.4313 5.7071,3.9123 6.1671,3.2823 C6.9001,2.2813 7.1521,1.9283 7.8691,1.0923 C7.5591,1.0963 7.1901,1.3433 6.8091,1.5323 C6.2161,1.8273 5.5941,2.1693 5.1211,2.6683 C4.4091,3.4163 4.1121,4.7433 3.9191,5.4273 C3.8851,5.5413 4.2131,5.2683 4.7041,4.8243" id="Fill-1" fill="#FEFEFE"></path>
                        <path d="M2.6284,8.6402 C2.8334,8.3352 3.2134,7.8282 3.6124,7.5332 C3.8014,7.3932 4.3254,6.9442 4.9354,6.4302 C5.3024,6.1202 5.5004,5.9162 5.7984,5.4332 C5.8964,5.2722 6.1114,4.9972 6.2194,4.6832 C6.3424,4.3272 6.3524,3.9292 6.3634,3.7152 C6.3674,3.6322 6.3334,3.8672 6.1434,4.1042 C5.8984,4.4092 5.4594,4.7512 5.1804,5.0652 C5.0254,5.2392 4.7954,5.3392 4.5814,5.4892 C4.2454,5.7232 3.9064,6.0002 3.6754,6.2552 C3.0214,6.9772 2.8144,7.6882 2.8874,7.4582 C3.0064,7.0912 3.1514,6.6542 3.2744,6.1582 C3.3584,5.8072 3.4104,5.4152 3.5394,5.0502 C3.6294,4.7932 3.6904,4.3762 3.7884,4.1002 C4.0424,3.3972 4.3634,2.8652 4.7444,2.7062 C4.2454,2.7302 3.7704,3.1062 3.3674,3.5382 C3.0874,3.8382 2.8974,4.0632 2.7494,4.3832 C2.4764,4.9722 2.3784,5.6862 2.3694,6.4132 C2.3584,7.6872 2.4724,8.3802 2.4734,8.8652 C2.4744,8.9742 2.5154,8.8112 2.6284,8.6402" id="Fill-3" fill="#FEFEFE"></path>
                        <path d="M1.5698,11.5328 C1.7128,11.9848 1.7468,12.4608 1.9328,12.9708 C1.9418,12.9948 1.9868,12.6198 2.1838,12.1458 C2.3158,11.8318 2.5278,11.4958 2.7188,11.1718 C2.9098,10.8498 3.0778,10.5388 3.2468,10.3678 C3.2738,10.3428 3.9598,9.6018 4.3298,8.8178 C4.7378,7.9578 4.8308,7.0458 4.8248,7.0518 C4.4558,7.3518 3.8458,8.0048 3.2368,8.5938 C2.8978,8.9238 2.6508,9.2908 2.4428,9.6938 C2.0848,10.3868 1.9698,11.1288 1.9698,11.1018 C2.0028,10.4578 2.0578,9.7038 2.0168,8.8928 C1.9888,8.3238 1.8298,7.7688 1.8108,7.1998 C1.7988,6.8228 1.7798,6.3508 1.8408,5.9488 C1.9088,5.4908 2.0638,5.1168 2.1058,4.9848 C1.8388,5.1398 1.1498,6.5768 1.0458,6.8508 C0.8948,7.2548 0.8168,7.9288 0.7948,8.4578 C0.7788,8.8958 0.8798,9.3308 0.9558,9.7438 C1.0828,10.4418 1.3878,10.9638 1.5698,11.5328" id="Fill-5" fill="#FEFEFE"></path>
                        <path d="M1.8901,16.1988 C2.3431,16.7428 2.7331,17.3338 2.7941,17.4608 C2.8691,17.6188 2.7861,17.0538 2.7861,16.1988 C2.7861,15.2208 3.1391,14.5608 3.3421,13.8878 C3.6041,13.0178 3.8841,12.0798 3.9491,10.8648 C3.9631,10.6128 3.9011,10.3608 3.9011,10.0808 C3.9011,10.6048 3.5301,11.0528 3.2521,11.5758 C3.0191,12.0148 2.7121,12.3328 2.5201,12.7998 C2.1931,13.6008 2.0901,14.1678 2.1171,14.8028 C2.1311,15.1118 2.2371,15.4378 2.2481,15.8158 C2.2491,15.8898 2.1291,15.4708 1.9441,14.7728 C1.8291,14.3488 1.7591,13.6688 1.5431,13.1118 C1.3271,12.5528 0.9661,12.1158 0.8211,11.5798 C0.7131,11.1778 0.5191,10.8028 0.4611,10.4788 C0.3211,9.7118 0.4811,9.1668 0.4281,9.3218 C0.2801,9.7588 0.1061,10.2778 0.0431,10.8338 C-0.0549,11.7008 0.0361,12.6598 0.2811,13.5408 C0.6171,14.7398 1.1421,15.3008 1.8901,16.1988" id="Fill-7" fill="#FEFEFE"></path>
                        <g id="Group-11" transform="translate(0.000000, 13.574000)">
                            <mask id="mask-2" fill="white">
                                <use xlink:href="#path-1"></use>
                            </mask>
                            <g id="Clip-10"></g>
                            <path d="M5.3408,7.7132 C5.1708,7.3712 4.9618,6.9722 4.8378,6.5582 C4.6118,5.8202 4.5288,5.0082 4.5288,4.2082 C4.5288,3.8822 4.4268,2.8212 4.2538,1.9662 C4.1048,1.2122 3.8838,0.6442 3.8528,0.5272 C3.7708,0.2292 3.7108,0.8712 3.6768,1.6492 C3.6588,2.0602 3.3268,3.2092 3.3698,4.1442 C3.4228,5.3392 4.1888,6.3832 4.0388,6.1852 C3.9658,6.0872 3.7628,5.9262 3.5768,5.6572 C3.3898,5.3882 3.2198,5.0102 2.9358,4.6622 C2.3618,3.9592 1.4008,3.1802 0.8208,2.4262 C0.3418,1.8012 0.2098,1.1802 0.0408,0.7632 C0.0518,1.2872 -0.0512,1.7582 0.0328,2.2402 C0.2418,3.4512 0.8888,4.3432 1.6818,5.2052 C2.4118,5.9982 5.4748,7.9862 5.3408,7.7132" id="Fill-9" fill="#FEFEFE" mask="url(#mask-2)"></path>
                        </g>
                        <path d="M5.3423,23.357 C6.0623,23.571 6.8593,23.647 7.9793,23.863 C8.4193,23.947 8.5683,24.062 8.5893,24.057 C8.6243,24.045 8.2753,23.701 7.9273,23.252 C7.6583,22.901 7.4213,22.302 7.2683,21.915 C6.9223,21.044 6.6963,20.219 6.3603,19.505 C6.1453,19.048 5.8663,18.674 5.5483,18.233 C5.3413,17.944 5.1453,17.614 4.8593,17.328 C5.0023,17.771 5.1603,18.215 5.2683,18.724 C5.4183,19.432 5.4373,20.209 5.6383,20.898 C5.7563,21.297 6.0013,21.669 6.1913,21.98 C6.4963,22.479 6.9173,22.923 7.1523,23.138 C7.0353,23.076 6.8613,22.984 6.6443,22.839 C6.2893,22.603 5.9763,22.325 5.6543,22.112 C5.1153,21.758 4.5713,21.486 3.9213,21.157 C3.4493,20.918 2.9463,20.759 2.5893,20.475 C1.5913,19.679 1.2713,18.966 1.1333,18.864 C1.0813,18.824 1.5943,20.62 2.5883,21.557 C3.6793,22.588 4.4473,23.089 5.3423,23.357" id="Fill-12" fill="#FEFEFE"></path>
                        <path d="M8.377,24.4366 C7.523,24.3436 6.698,24.3946 5.994,24.2116 C4.688,23.8756 3.741,23.1516 3.756,23.1726 C3.938,23.4266 4.273,24.0006 5.001,24.5876 C5.914,25.3226 7.067,25.6576 8.234,25.6936 C8.889,25.7146 9.548,25.6036 10.169,25.5056 C11.104,25.3586 11.777,25.1216 12.233,24.9866 C12.689,24.8526 12.923,24.8196 12.838,24.7986 C12.311,24.6706 11.813,24.6056 11.224,24.2136 C10.906,24.0016 10.506,23.7456 10.18,23.4516 C9.811,23.1186 9.513,22.7446 9.168,22.4276 C8.432,21.7556 7.788,21.2346 7.328,20.8826 C7.603,21.4506 8.022,22.8716 8.969,23.7736 C9.706,24.4736 10.817,24.7216 10.812,24.7216 C10.337,24.7286 9.863,24.5896 9.311,24.5046 C9.023,24.4596 8.66,24.4676 8.377,24.4366" id="Fill-14" fill="#FEFEFE"></path>
                        <path d="M29.2959,4.8243 C29.7879,5.2683 30.1159,5.5413 30.0809,5.4273 C29.8869,4.7433 29.5909,3.4163 28.8789,2.6683 C28.4059,2.1693 27.7829,1.8273 27.1909,1.5323 C26.8099,1.3433 26.4399,1.0963 26.1299,1.0923 C26.8489,1.9283 27.0999,2.2813 27.8309,3.2823 C28.2939,3.9123 28.8609,4.4313 29.2959,4.8243" id="Fill-16" fill="#FEFEFE"></path>
                        <path d="M30.2109,4.1002 C30.3099,4.3762 30.3699,4.7932 30.4609,5.0502 C30.5899,5.4152 30.6399,5.8072 30.7269,6.1582 C30.8479,6.6542 30.9929,7.0912 31.1119,7.4582 C31.1859,7.6882 30.9779,6.9772 30.3229,6.2552 C30.0919,6.0002 29.7569,5.7242 29.4199,5.4892 C29.2049,5.3392 28.9749,5.2392 28.8199,5.0652 C28.5409,4.7512 28.1009,4.4092 27.8579,4.1042 C27.6669,3.8672 27.6329,3.6322 27.6369,3.7152 C27.6459,3.9292 27.6569,4.3272 27.7799,4.6832 C27.8879,4.9972 28.1029,5.2722 28.2019,5.4332 C28.4999,5.9162 28.6969,6.1202 29.0649,6.4302 C29.6749,6.9442 30.1979,7.3932 30.3869,7.5332 C30.7859,7.8282 31.1659,8.3352 31.3699,8.6402 C31.4839,8.8112 31.5269,8.9742 31.5269,8.8652 C31.5279,8.3802 31.6399,7.6872 31.6299,6.4132 C31.6229,5.6862 31.5229,4.9722 31.2509,4.3832 C31.1009,4.0632 30.9129,3.8382 30.6309,3.5382 C30.2289,3.1062 29.7549,2.7302 29.2559,2.7062 C29.6359,2.8652 29.9579,3.3972 30.2109,4.1002" id="Fill-18" fill="#FEFEFE"></path>
                        <path d="M32.187,7.1998 C32.169,7.7688 32.011,8.3238 31.983,8.8928 C31.941,9.7038 31.998,10.4578 32.029,11.1018 C32.03,11.1288 31.915,10.3868 31.556,9.6938 C31.35,9.2908 31.102,8.9238 30.762,8.5938 C30.154,8.0048 29.543,7.3518 29.175,7.0518 C29.169,7.0458 29.262,7.9578 29.669,8.8178 C30.041,9.6018 30.727,10.3428 30.751,10.3678 C30.922,10.5388 31.089,10.8498 31.279,11.1718 C31.471,11.4958 31.685,11.8318 31.817,12.1458 C32.013,12.6198 32.057,12.9948 32.065,12.9708 C32.253,12.4608 32.288,11.9848 32.43,11.5328 C32.611,10.9638 32.916,10.4418 33.043,9.7438 C33.12,9.3308 33.221,8.8958 33.204,8.4578 C33.184,7.9288 33.105,7.2548 32.954,6.8508 C32.851,6.5768 32.16,5.1398 31.894,4.9848 C31.937,5.1168 32.09,5.4908 32.159,5.9488 C32.22,6.3508 32.202,6.8228 32.187,7.1998" id="Fill-20" fill="#FEFEFE"></path>
                        <path d="M33.1787,11.5802 C33.0337,12.1162 32.6717,12.5532 32.4567,13.1112 C32.2397,13.6692 32.1687,14.3492 32.0557,14.7732 C31.8727,15.4712 31.7487,15.8902 31.7527,15.8162 C31.7637,15.4382 31.8687,15.1112 31.8827,14.8022 C31.9107,14.1672 31.8057,13.6012 31.4787,12.8002 C31.2877,12.3332 30.9807,12.0152 30.7477,11.5762 C30.4697,11.0532 30.0987,10.6042 30.0987,10.0812 C30.0987,10.3602 30.0377,10.6132 30.0517,10.8652 C30.1167,12.0802 30.3967,13.0182 30.6577,13.8882 C30.8597,14.5612 31.2107,15.2212 31.2107,16.1992 C31.2107,17.0542 31.1297,17.6192 31.2047,17.4612 C31.2677,17.3332 31.6557,16.7432 32.1087,16.1992 C32.8567,15.3012 33.3837,14.7402 33.7187,13.5412 C33.9647,12.6602 34.0547,11.7012 33.9567,10.8332 C33.8937,10.2782 33.7207,9.7592 33.5697,9.3222 C33.5177,9.1672 33.6797,9.7112 33.5377,10.4782 C33.4787,10.8032 33.2857,11.1782 33.1787,11.5802" id="Fill-22" fill="#FEFEFE"></path>
                        <path d="M33.96,14.3375 C33.79,14.7545 33.658,15.3755 33.177,16.0005 C32.599,16.7545 31.636,17.5335 31.064,18.2365 C30.779,18.5845 30.608,18.9625 30.423,19.2315 C30.235,19.5005 30.036,19.6615 29.962,19.7585 C29.812,19.9575 30.578,18.9145 30.631,17.7175 C30.673,16.7825 30.341,15.6335 30.322,15.2235 C30.289,14.4455 30.229,13.8025 30.147,14.1015 C30.116,14.2185 29.896,14.7855 29.745,15.5405 C29.574,16.3955 29.47,17.4565 29.47,17.7815 C29.47,18.5825 29.388,19.3945 29.163,20.1325 C29.038,20.5465 28.829,20.9455 28.66,21.2875 C28.524,21.5605 31.589,19.5725 32.317,18.7795 C33.109,17.9175 33.757,17.0255 33.967,15.8145 C34.05,15.3325 33.947,14.8615 33.96,14.3375" id="Fill-24" fill="#FEFEFE"></path>
                        <path d="M31.4097,20.4747 C31.0537,20.7597 30.5517,20.9177 30.0787,21.1567 C29.4277,21.4857 28.8847,21.7587 28.3467,22.1117 C28.0237,22.3247 27.7097,22.6027 27.3557,22.8397 C27.1387,22.9847 26.9647,23.0767 26.8477,23.1387 C27.0817,22.9237 27.5027,22.4787 27.8087,21.9797 C27.9987,21.6687 28.2447,21.2977 28.3607,20.8977 C28.5617,20.2087 28.5827,19.4327 28.7317,18.7237 C28.8387,18.2147 28.9987,17.7707 29.1407,17.3277 C28.8527,17.6147 28.6597,17.9447 28.4517,18.2337 C28.1337,18.6747 27.8547,19.0477 27.6397,19.5057 C27.3047,20.2197 27.0767,21.0437 26.7327,21.9147 C26.5787,22.3017 26.3417,22.9007 26.0717,23.2517 C25.7247,23.7007 25.3757,24.0457 25.4127,24.0567 C25.4317,24.0617 25.5807,23.9467 26.0187,23.8627 C27.1407,23.6467 27.9397,23.5717 28.6577,23.3567 C29.5507,23.0897 30.3177,22.5887 31.4117,21.5577 C32.4067,20.6197 32.9177,18.8247 32.8657,18.8647 C32.7297,18.9657 32.4097,19.6787 31.4097,20.4747" id="Fill-26" fill="#FEFEFE"></path>
                        <path d="M26.6709,20.8829 C26.2129,21.2349 25.5679,21.7559 24.8299,22.4279 C24.4859,22.7439 24.1909,23.1189 23.8189,23.4519 C23.4939,23.7449 23.0939,24.0019 22.7769,24.2139 C22.1879,24.6059 21.6899,24.6709 21.1619,24.7989 C21.0769,24.8199 21.3109,24.8519 21.7669,24.9869 C22.2229,25.1209 22.8969,25.3589 23.8299,25.5059 C24.4519,25.6039 25.1119,25.7149 25.7669,25.6939 C26.9309,25.6569 28.0859,25.3219 28.9979,24.5879 C29.7279,24.0009 30.0609,23.4269 30.2429,23.1729 C30.2589,23.1519 29.3119,23.8759 28.0049,24.2119 C27.3009,24.3939 26.4759,24.3429 25.6229,24.4369 C25.3409,24.4679 24.9779,24.4599 24.6889,24.5049 C24.1359,24.5899 23.6629,24.7289 23.1879,24.7209 C23.1839,24.7209 24.2939,24.4729 25.0319,23.7739 C25.9789,22.8709 26.3979,21.4499 26.6709,20.8829" id="Fill-28" fill="#FEFEFE"></path>
                        <g id="Group-32" transform="translate(6.000000, 24.574000)">
                            <mask id="mask-4" fill="white">
                                <use xlink:href="#path-3"></use>
                            </mask>
                            <g id="Clip-31"></g>
                            <path d="M19.5337,1.9188 C18.9777,1.9998 18.3327,1.6798 17.7787,1.7618 L14.6687,0.4598 C13.8747,0.1268 13.0177,0.1858 12.1937,0.2638 C11.7407,0.3058 11.3607,0.4028 10.9997,0.5128 C10.6377,0.4028 10.2577,0.3058 9.8047,0.2638 C8.9827,0.1858 8.1237,0.1268 7.3297,0.4598 L4.2207,1.7618 C3.6677,1.6798 3.0207,1.9998 2.4677,1.9188 C1.8397,1.8258 1.2097,1.6418 0.5457,1.3118 C0.8647,1.6108 1.1017,1.8628 1.4057,2.0728 C3.8737,3.7938 5.9277,2.7818 7.3557,1.8118 C7.9557,1.4048 8.2627,1.0898 8.7407,0.8838 C8.9577,0.7908 9.1357,0.7038 9.5217,0.6678 C9.7337,0.6478 10.0217,0.6768 10.3217,0.7388 C10.0097,0.8538 9.6887,0.9958 9.3217,1.2158 C8.8787,1.4818 8.3797,1.7638 7.9627,2.0948 C7.4267,2.5228 6.9797,3.0108 6.4547,3.4028 C6.4317,3.4218 7.1567,4.0428 7.1947,3.9978 C7.5937,3.5538 8.2957,2.8098 9.0257,2.2158 C9.8037,1.5848 10.6007,1.1148 10.7157,1.0578 C10.8027,1.0138 10.8997,0.9738 10.9997,0.9358 C11.0997,0.9738 11.1967,1.0138 11.2837,1.0578 C11.3977,1.1148 12.1957,1.5848 12.9737,2.2158 C13.7057,2.8098 14.4087,3.5538 14.8047,3.9978 C14.8437,4.0428 15.5687,3.4218 15.5457,3.4028 C15.0207,3.0108 14.5727,2.5228 14.0367,2.0948 C13.6217,1.7638 13.1217,1.4818 12.6787,1.2158 C12.3117,0.9958 11.9907,0.8538 11.6787,0.7388 C11.9787,0.6768 12.2667,0.6478 12.4777,0.6678 C12.8617,0.7038 13.0427,0.7908 13.2597,0.8838 C13.7357,1.0898 14.0437,1.4048 14.6437,1.8118 C16.0747,2.7818 18.1267,3.7938 20.5947,2.0728 C20.8997,1.8628 21.1367,1.6108 21.4537,1.3118 C20.7887,1.6418 20.1607,1.8258 19.5337,1.9188" id="Fill-30" fill="#FEFEFE" mask="url(#mask-4)"></path>
                        </g>
                        <path d="M16.7217,0.296 L16.7217,2.399 C14.1467,2.46 11.8177,3.537 10.1257,5.247 L8.6907,3.812 L8.4857,4.018 L9.9257,5.458 C8.3257,7.174 7.3447,9.474 7.3447,12 C7.3447,12.016 7.3457,12.033 7.3457,12.049 L5.2437,12.049 C5.2437,12.033 5.2427,12.016 5.2427,12 C5.2427,5.62 10.3707,0.42 16.7217,0.296 L16.7217,0.296 Z M20.0377,8.617 C19.8907,8.543 19.7707,8.478 19.7047,8.45 C19.6487,8.425 19.3427,8.723 19.3437,8.902 C19.3457,8.993 19.4747,9.038 19.5627,9.056 C19.4147,9.086 19.1217,9.303 18.8697,9.536 C18.6597,9.732 18.4737,10.011 18.4087,9.971 C18.1817,9.836 18.0797,9.656 18.0267,9.653 C17.8657,9.644 17.6767,9.743 17.7017,9.713 C17.8437,9.555 18.0987,9.44 18.2307,9.328 C18.3627,9.215 18.3717,9.106 18.4437,9.08 C18.6047,9.024 18.4587,8.846 18.3937,8.756 C18.3447,8.686 18.4327,8.566 18.3177,8.584 C18.1137,8.616 17.7467,9.016 17.6847,8.995 C17.4987,8.935 17.2517,8.906 17.0127,8.897 L17.0127,7.416 C18.1777,7.431 19.2367,7.886 20.0377,8.617 L20.0377,8.617 Z M17.0127,5.36 C18.5897,5.374 20.0367,5.943 21.1697,6.879 C21.2337,6.962 21.2837,6.999 21.3317,7.023 C21.4207,7.101 21.5127,7.177 21.5967,7.259 L20.3497,8.507 C19.4837,7.665 18.3087,7.141 17.0127,7.125 L17.0127,5.36 Z M17.0127,2.685 C18.5487,2.694 19.9957,3.082 21.2707,3.753 L21.2307,4.546 C21.2217,4.729 21.5117,4.763 21.5517,4.834 C21.5787,4.876 21.5227,4.942 21.5227,5.004 C21.5227,5.11 21.6077,5.275 21.6117,5.423 C21.6187,5.57 21.5457,5.697 21.6237,5.775 C21.6457,5.798 21.8767,5.561 22.0577,5.494 C22.1397,5.462 22.2127,5.574 22.2507,5.574 C22.3617,5.574 22.5637,5.93 22.5757,6.02 C22.5947,6.15 22.5137,6.259 22.5027,6.353 L22.1347,6.721 C22.0667,6.56 21.8997,6.188 21.8357,6.113 C21.7987,6.072 21.7967,5.947 21.7667,5.919 C21.6287,5.787 21.5077,5.856 21.4097,5.754 C21.3497,5.688 21.2297,5.571 21.1567,5.469 C21.1057,5.393 20.8057,5.054 20.8257,5.125 L21.0697,5.97 C21.1057,6.1 21.0767,6.314 21.0767,6.443 C19.9377,5.596 18.5347,5.083 17.0127,5.07 L17.0127,2.685 Z M17.0127,0.292 C20.1917,0.308 23.0757,1.598 25.1797,3.677 L23.7747,5.081 C23.5817,4.758 23.4167,4.41 23.3017,4.131 C23.2477,4.003 23.1357,3.974 23.0647,3.893 C22.9107,3.713 22.7697,3.556 22.5867,3.504 C22.5377,3.49 22.5297,3.408 22.4107,3.361 C22.3397,3.333 22.2977,3.292 22.1277,3.248 C21.9647,3.248 21.7087,3.289 21.5157,3.346 C21.4257,3.373 21.2927,3.343 21.2877,3.416 L21.2867,3.439 C19.9997,2.784 18.5507,2.404 17.0127,2.395 L17.0127,0.292 Z M28.6607,12 C28.6607,15.247 27.3317,18.189 25.1887,20.312 L23.7027,18.826 C25.3897,17.158 26.4607,14.871 26.5487,12.339 L28.5757,12.339 L28.5757,12.049 L26.5567,12.049 C26.5567,12.033 26.5577,12.016 26.5577,12 C26.5577,10.641 26.2667,9.352 25.7557,8.18 C25.7557,8.174 25.7557,8.17 25.7547,8.164 C25.6737,7.452 25.4027,7.239 25.2487,6.974 C24.9927,6.532 24.7747,6.269 24.2077,5.68 C24.1117,5.581 24.0187,5.463 23.9307,5.336 L25.3817,3.885 C27.4097,5.992 28.6607,8.852 28.6607,12 L28.6607,12 Z M17.0127,23.708 L17.0127,21.606 C17.7857,21.601 18.5347,21.494 19.2557,21.316 C19.4197,21.495 19.5807,21.682 19.7517,21.785 C19.9337,21.896 20.1277,21.838 20.3467,21.753 C20.6747,21.626 20.9437,21.362 21.1687,21.049 C21.3547,20.787 21.5707,20.569 21.7257,20.321 C22.3627,19.954 22.9587,19.525 23.4927,19.027 L24.9787,20.512 C22.8947,22.479 20.0937,23.692 17.0127,23.708 L17.0127,23.708 Z M10.5277,18.739 L10.8417,18.425 C10.9567,18.477 11.0537,18.65 11.2237,18.671 C11.4107,18.693 11.7147,18.471 11.8397,18.471 C11.9517,18.471 12.5447,18.444 12.6237,18.395 C12.8437,18.255 12.6577,18.353 12.6237,17.929 C12.5967,17.588 12.3017,17.475 12.0127,17.255 L12.2147,17.052 C13.2647,18.037 14.6197,18.697 16.1207,18.877 L16.3797,19.153 C16.4407,19.217 16.5657,19.269 16.7217,19.314 L16.7217,21.312 C14.3247,21.253 12.1497,20.285 10.5277,18.739 L10.5277,18.739 Z M16.7217,23.704 C13.6647,23.644 10.8927,22.408 8.8367,20.43 L10.3227,18.944 C11.9967,20.543 14.2437,21.543 16.7217,21.601 L16.7217,23.704 Z M11.8167,7.349 C10.7007,8.58 10.0207,10.212 10.0207,12 C10.0207,12.016 10.0207,12.033 10.0217,12.049 L7.6367,12.049 C7.6367,12.033 7.6347,12.016 7.6347,12 C7.6347,9.554 8.5837,7.326 10.1307,5.663 L11.8167,7.349 Z M16.7217,5.074 C14.8837,5.134 13.2237,5.913 12.0177,7.138 L10.3307,5.452 C11.9707,3.795 14.2257,2.75 16.7217,2.689 L16.7217,5.074 Z M16.2737,8.954 C16.1067,9.004 16.1247,8.725 16.0387,8.756 C15.5767,8.915 15.9417,9.121 15.6717,9.377 C15.5987,9.446 15.4127,9.503 15.2637,9.50701574 C15.1957,9.508 15.1247,9.461 15.0947,9.469 C14.9357,9.51 14.9127,9.303 14.8067,9.34 C14.6287,9.404 14.7687,9.508 14.6457,9.477 C14.5067,9.443 14.5957,9.289 14.5707,9.173 C14.5567,9.104 14.4417,9.056 14.3747,9.032 C13.9927,8.905 14.0827,8.945 13.7017,8.772 C14.4827,7.985 15.5437,7.479 16.7217,7.42 L16.7217,8.896 C16.5337,8.903 16.3707,8.924 16.2737,8.954 L16.2737,8.954 Z M18.6817,15.005 C18.7317,14.885 18.9127,14.874 18.9907,14.845 C19.1347,14.789 19.2007,14.766 19.2217,14.905 C19.2397,15.019 19.0697,15.015 19.0317,15.04 C18.9317,15.104 18.7897,15.035 18.1677,15.229 C18.0937,15.252 18.0037,15.272 17.9077,15.291 C18.2977,15.203 18.6457,15.093 18.6817,15.005 L18.6817,15.005 Z M23.2437,18.367 C23.2917,18.283 23.3477,18.198 23.4437,18.181 C23.7057,18.135 23.5747,17.92 23.4707,17.643 C23.4227,17.517 23.3927,17.366 23.3237,17.256 C23.0867,16.875 23.0047,16.949 22.9427,17.15 C22.9027,17.287 22.8577,17.498 22.8347,17.605 C22.8117,17.711 22.7897,17.806 22.7727,17.895 L21.8617,16.983 C21.8627,16.983 21.8637,16.984 21.8657,16.984 C22.2777,17.033 22.0517,16.929 22.1247,16.812 C22.2077,16.68 22.5577,16.528 22.4987,16.513 C22.4187,16.495 22.3567,16.443 22.2987,16.399 C22.8967,15.673 23.3467,14.823 23.6117,13.895 C23.9077,13.867 24.1207,13.829 24.2757,13.761 C24.6877,13.578 24.1627,13.263 23.8457,13.207 C23.8247,13.203 23.7947,13.222 23.7617,13.25 C23.8167,12.952 23.8597,12.65 23.8747,12.339 L26.2597,12.339 C26.1707,14.792 25.1327,17.005 23.4987,18.622 L23.2437,18.367 Z M21.9257,18.928 C22.0307,18.581 22.2877,18.559 22.2877,18.371 C22.2877,18.202 22.2157,18.118 22.1177,18.043 C22.0447,17.983 21.9587,17.913 21.8457,17.913 C21.7267,17.913 21.6267,17.802 21.6187,17.695 C21.6037,17.514 21.7277,17.296 21.5977,17.267 C21.5597,17.258 21.5267,17.239 21.4907,17.228 C21.5267,17.196 21.5667,17.167 21.6017,17.135 L22.7667,18.3 C22.7827,18.344 22.8037,18.384 22.8407,18.418 C22.8847,18.459 22.9207,18.514 23.0067,18.54 L23.2877,18.821 C22.8747,19.206 22.4267,19.553 21.9487,19.858 C22.0197,19.689 22.0987,19.477 22.0987,19.314 C22.0987,19.111 21.8887,19.046 21.9257,18.928 L21.9257,18.928 Z M17.0127,19.385 C17.1707,19.418 17.3397,19.448 17.5007,19.479 C17.6367,19.504 17.8467,19.454 17.9577,19.483 C18.0647,19.513 18.0737,19.623 18.0737,19.704 L17.9537,19.957 C17.8187,20.239 18.1717,20.442 18.3367,20.556 C18.5007,20.67 18.6377,20.82 18.8527,20.948 C18.9077,20.981 18.9607,21.03 19.0137,21.077 C18.3677,21.224 17.7007,21.311 17.0127,21.316 L17.0127,19.385 Z M16.7217,16.452 L16.5597,16.438 L16.4547,16.336 C16.4927,16.329 16.5347,16.317 16.5857,16.295 C16.6227,16.278 16.6707,16.249 16.7217,16.215 L16.7217,16.452 Z M22.6207,12.339 L23.5847,12.339 C23.5677,12.678 23.5177,13.008 23.4507,13.332 C23.3707,13.229 23.2477,13.098 23.1107,12.953 C22.9837,12.818 22.8807,12.623 22.7727,12.454 C22.7357,12.398 22.6427,12.412 22.6207,12.343 C22.6207,12.342 22.6207,12.34 22.6207,12.339 L22.6207,12.339 Z M21.9777,16.331 C21.9577,16.328 21.9407,16.321 21.9287,16.307 C21.8867,16.256 21.9077,16.114 21.8917,16.059 C21.8507,15.918 21.8277,15.871 21.8017,15.876 C21.5777,15.913 21.7837,15.905 21.3637,16.486 L21.2147,16.337 C21.2457,16.337 21.2777,16.341 21.3067,16.328 C21.3697,16.3 21.5147,15.58 21.5587,15.516 C21.7537,15.236 21.7657,14.691 21.4107,14.589 C21.2587,14.545 21.1117,14.95 20.8197,15.101 C20.7817,15.12 20.7377,15.125 20.6897,15.123 C20.7527,15.048 20.8127,14.97 20.8717,14.891 C20.9677,14.864 21.2537,14.667 21.4637,14.46 C21.6287,14.296 21.7067,14.118 21.7697,14.092 C21.8557,14.059 21.9537,14.162 22.0337,14.14 C22.0837,14.127 22.1177,13.981 22.1687,13.979 C22.6297,13.955 22.9997,13.939 23.3027,13.92 C23.0297,14.817 22.5757,15.637 21.9777,16.331 L21.9777,16.331 Z M21.1887,17.101 C20.9077,16.944 20.6597,16.723 20.3797,16.527 C20.1827,16.389 19.9697,16.415 19.7357,16.334 C19.6497,16.307 19.5577,16.234 19.4667,16.175 C19.5157,16.145 19.5607,16.112 19.6087,16.081 C19.6927,16.065 19.7827,16.047 19.8787,16.052 C20.1247,16.066 20.3897,16.228 20.6107,16.215 C20.6397,16.214 20.6647,16.222 20.6917,16.224 L21.3967,16.929 C21.3297,16.989 21.2577,17.043 21.1887,17.101 L21.1887,17.101 Z M22.9747,11.392 C22.9867,11.4 23.0037,11.406 23.0337,11.406 C23.1797,11.407 23.3647,11.309 23.5307,11.143 C23.5677,11.424 23.5927,11.709 23.5927,12 C23.5927,12.016 23.5917,12.033 23.5917,12.049 L22.7397,12.049 C22.8657,11.896 23.0347,11.723 22.9997,11.486 C22.9937,11.447 22.9847,11.417 22.9747,11.392 L22.9747,11.392 Z M17.6207,15.596 C17.7567,15.567 17.7877,15.74 17.8407,15.761 C17.9477,15.804 18.0107,15.912 18.1347,15.924 C18.1907,15.929 18.1877,15.737 18.2477,15.741 C18.3567,15.751 18.4967,15.903 18.5997,15.893 C18.6587,15.888 18.6537,15.712 18.7077,15.701 C18.9157,15.666 19.0917,15.599 19.1797,15.504 C19.2917,15.376 19.4907,15.506 19.5167,15.551 C19.5637,15.638 19.4097,15.79 19.3357,15.913 C18.8837,16.19 18.3797,16.391 17.8427,16.497 C17.7007,16.408 17.5627,16.312 17.4727,16.314 L17.0827,16.32 L17.0127,16.362 L17.0127,16.004 C17.2507,15.82 17.5037,15.62 17.6207,15.596 L17.6207,15.596 Z M13.6667,15.6 C14.2607,16.142 14.9897,16.538 15.7957,16.734 C15.7657,16.767 15.7377,16.797 15.7117,16.823 C15.5857,16.945 15.4717,16.89 15.3827,17.029 C15.3157,17.135 15.3467,17.262 15.2887,17.347 C15.1647,17.532 15.1587,17.513 15.1657,17.643 C15.1867,18.029 15.5567,18.28 15.7947,18.53 C14.5037,18.303 13.3397,17.707 12.4207,16.847 L13.6667,15.6 Z M11.8717,16.266 C11.8707,16.26 11.8737,16.254 11.8707,16.249 C11.7767,16.017 11.6547,15.843 11.5437,15.611 C11.4507,15.419 11.6027,14.994 11.5027,14.808 C11.3057,14.449 11.4277,13.757 11.0887,13.649 C10.9567,13.608 10.8467,12.986 10.7097,12.868 C10.7167,12.652 11.0787,12.646 11.2297,12.696 C11.3557,12.737 11.2577,12.538 11.2737,12.416 C11.2757,12.397 11.2797,12.368 11.2837,12.339 L12.0897,12.339 C12.0957,12.431 12.1087,12.52 12.1207,12.61 C12.0657,12.644 11.9857,12.643 11.9297,12.638 C11.9017,12.573 11.7587,12.424 11.6277,12.512 C11.5707,12.55 11.6137,12.662 11.6027,12.765 C11.5967,12.868 11.5347,12.963 11.6737,13.02 C11.7217,13.041 11.2717,13.071 11.3337,13.088 C11.4987,13.131 11.3887,13.416 11.6567,13.436 C11.7537,13.443 11.7847,13.218 11.8207,13.112 C11.8787,12.943 11.7647,12.892 11.8827,12.892 C12.0017,12.893 11.8957,12.879 12.0357,12.9 C12.0707,12.905 12.1187,12.908 12.1677,12.912 C12.3487,13.867 12.8057,14.727 13.4587,15.397 L12.2117,16.645 C12.0937,16.524 11.9817,16.396 11.8717,16.266 L11.8717,16.266 Z M8.0047,14.561 C7.8017,13.85 7.6707,13.109 7.6427,12.339 L10.0297,12.339 C10.0457,12.675 10.0927,13.002 10.1557,13.323 C9.9407,13.131 9.7127,12.866 9.5167,12.883 C9.2797,12.904 8.8997,13.153 8.7257,13.444 C8.5727,13.701 8.5227,14.362 8.4297,14.604 C8.4167,14.637 8.2417,14.599 8.0047,14.561 L8.0047,14.561 Z M10.3197,12.339 L10.6857,12.339 C10.6317,12.423 10.5677,12.528 10.5537,12.606 C10.5157,12.809 10.5277,12.979 10.5697,13.141 C10.5757,13.164 10.5807,13.178 10.5867,13.196 C10.5727,13.358 10.5567,13.513 10.4957,13.514 C10.4927,13.514 10.4897,13.512 10.4867,13.512 C10.3977,13.132 10.3397,12.741 10.3197,12.339 L10.3197,12.339 Z M13.2197,8.752 C13.1197,8.854 13.0357,9.013 12.9167,9.086 C12.7727,9.173 12.6707,9.14 12.5477,9.25 C12.4197,9.365 12.3677,9.528 12.2747,9.615 C12.0397,9.838 11.8777,9.61 11.8237,9.917 C11.8137,9.967 11.7767,10.094 11.6857,10.141 C11.5757,10.201 11.5217,10.097 11.4037,10.174 C11.3097,10.233 11.2577,10.388 11.2237,10.416 C11.0017,10.592 10.9957,11.032 10.9697,11.349 C10.9467,11.604 10.8397,11.837 10.7917,12.049 L10.3117,12.049 C10.3117,12.033 10.3107,12.016 10.3107,12 C10.3107,10.292 10.9597,8.733 12.0227,7.554 L13.2197,8.752 Z M13.4697,8.591 L12.2217,7.343 C13.3767,6.171 14.9637,5.425 16.7217,5.364 L16.7217,7.129 C15.4507,7.189 14.3057,7.738 13.4697,8.591 L13.4697,8.591 Z M12.0767,12.049 L11.3357,12.049 C11.3927,11.775 11.4847,11.452 11.5977,11.386 C11.7317,11.31 12.0267,11.372 12.1147,11.42 C12.0917,11.61 12.0757,11.803 12.0757,12 C12.0757,12.016 12.0767,12.033 12.0767,12.049 L12.0767,12.049 Z M11.7997,17.057 C11.7107,16.958 11.6287,16.844 11.5657,16.691 C11.5377,16.622 11.6087,16.559 11.6887,16.496 C11.7927,16.616 11.8957,16.736 12.0067,16.85 L11.7997,17.057 Z M22.6237,6.643 C22.7167,6.733 22.8557,6.79 23.0557,6.816 C23.2197,6.837 23.2617,7.008 23.3547,7.135 C23.5097,7.345 23.6947,7.54 24.0167,7.497 C24.1747,7.477 24.4227,7.86 24.5437,8.052 C24.6677,8.252 24.7237,8.397 24.9097,8.446 C24.9927,8.468 25.1037,8.365 25.2607,8.426 C25.4047,8.482 25.5137,8.521 25.5947,8.531 C26.0277,9.604 26.2677,10.774 26.2677,12 C26.2677,12.016 26.2667,12.033 26.2657,12.049 L23.8817,12.049 C23.8817,12.033 23.8827,12.016 23.8827,12 C23.8827,11.596 23.8427,11.202 23.7757,10.817 C23.8307,10.72 23.8797,10.616 23.9127,10.503 C23.9897,10.248 23.8967,9.959 23.8887,9.663 C23.8887,9.595 23.9807,9.428 23.9727,9.361 C23.9517,9.198 23.8817,8.962 23.7707,8.842 C23.7007,8.765 23.5957,8.809 23.5387,8.71 C23.4857,8.621 23.6957,8.458 23.6757,8.411 C23.6197,8.289 23.4627,8.407 23.4247,8.276 C23.4087,8.227 23.5797,8.122 23.5647,8.031 C23.5567,7.991 23.4167,7.983 23.3667,7.93 C23.3117,7.872 23.0717,8.11 23.0037,8.071 C22.9047,8.013 22.9647,7.835 22.8647,7.743 C22.6357,7.533 22.4167,7.253 22.2697,6.998 L22.6237,6.643 Z M20.5527,8.715 L21.7997,7.467 C22.1387,7.83 22.4317,8.234 22.6837,8.666 C22.6587,8.823 22.5307,8.991 22.5547,9.112 C22.5857,9.273 22.8777,9.357 22.9047,9.383 C22.9747,9.447 23.0607,9.526 23.1447,9.613 C23.2607,9.914 23.3537,10.225 23.4257,10.545 C23.4237,10.554 23.4227,10.564 23.4207,10.573 C23.3447,10.976 22.9447,11.275 22.9647,11.371 C22.8997,11.243 22.7857,11.278 22.7737,10.965 C22.7607,10.625 22.7067,10.568 22.9417,10.49 C23.1917,10.408 23.1217,10.203 23.2087,10.092 C23.2617,10.026 22.9977,9.809 22.6857,9.727 C22.5657,9.696 22.4147,9.864 22.3087,9.867 C22.2007,9.869 22.1397,9.705 22.1347,9.674 C22.1127,9.536 22.1287,9.33 21.9497,9.183 C21.9067,9.145 21.8017,8.997 21.6617,8.973 C21.4257,8.932 21.0847,9.012 20.7357,8.911 C20.7267,8.909 20.7177,8.905 20.7097,8.902 C20.6577,8.84 20.6077,8.775 20.5527,8.715 L20.5527,8.715 Z M17.9567,11.853 C18.0057,11.858 18.1017,11.997 18.1487,12.177 C18.2047,12.409 18.2087,12.687 18.2447,12.62 C18.2757,12.564 18.4087,12.962 18.2077,13.075 C18.0597,13.16 17.6097,13.224 17.4987,13.298 C17.0997,13.564 17.2457,13.773 17.2827,13.765 C17.3287,13.754 17.0457,13.898 16.8717,13.937 C16.6447,13.991 16.0667,13.835 16.1697,13.862 C16.3397,13.908 16.6627,14.313 16.6667,14.745 C16.6707,15.008 16.6057,15.28 16.7217,15.396 L16.7217,15.479 C16.6117,15.5 16.5087,15.523 16.4277,15.551 C16.3417,15.58 16.4337,15.671 16.3707,15.705 C16.1287,15.834 16.2687,16.116 16.2517,16.139 C16.2397,16.157 16.2337,16.228 16.2677,16.281 C16.1897,16.313 16.1027,16.393 16.0157,16.486 C15.2017,16.317 14.4657,15.934 13.8717,15.395 L15.4267,13.841 C15.3507,13.778 15.2827,13.711 15.2157,13.64 L13.6647,15.192 C13.0727,14.583 12.6527,13.808 12.4707,12.946 C12.7377,12.983 13.0067,12.996 13.2247,13.058 C13.3197,13.085 13.2627,13.181 13.2917,13.228 C13.3357,13.293 13.4537,13.305 13.5427,13.268 C13.6547,13.22 13.6007,13.374 13.6677,13.559 C13.6927,13.628 13.7197,13.789 13.9517,13.715 C14.0157,13.696 13.7847,13.517 14.0117,13.461 C14.0567,13.449 14.0547,13.957 14.2547,13.957 C14.5817,13.957 14.5687,13.702 14.5797,13.525 C14.5917,13.359 14.8387,13.62 14.9737,13.552 C15.2307,13.422 15.1997,13.27 15.1777,12.918 C15.1707,12.832 15.3297,13.035 15.3767,12.946 C15.4257,12.854 15.4397,12.693 15.5187,12.549 C15.5817,12.437 15.7157,12.346 15.7077,12.24 C15.6997,12.096 15.4467,12.09 15.3687,12.007 C15.2717,11.902 15.3507,11.793 15.3427,11.675 C15.3307,11.491 15.3767,11.281 15.5347,11.15 C15.7397,10.978 15.9837,10.677 16.1637,10.653 C16.3047,10.636 16.4097,10.713 16.5337,10.512 C16.6537,10.314 16.4957,10.198 16.5197,9.904 C16.5357,9.702 16.6457,10.163 16.7807,10.345 C16.9537,10.582 17.1687,10.588 17.1767,10.548 C17.1817,10.527 17.3027,10.409 17.3737,10.451 C17.5087,10.526 17.6307,10.887 17.8507,11.041 C17.9007,11.075 17.9387,11.24 17.9777,11.408 C17.9957,11.478 17.7407,11.655 17.7587,11.717 C17.7837,11.799 17.8647,11.845 17.9567,11.853 L17.9567,11.853 Z M5.2507,12.339 L7.3527,12.339 C7.3787,13.092 7.5017,13.82 7.6927,14.52 C7.6547,14.516 7.6177,14.512 7.5787,14.509 C7.5177,14.505 7.4727,14.243 7.4117,14.256 C7.1937,14.301 7.2447,14.402 7.0607,14.497 C6.8447,14.609 6.5987,14.345 6.4687,14.525 C6.3667,14.665 6.2287,14.945 6.2697,15.237 C6.3127,15.529 6.2867,15.769 6.5327,16.016 C6.7017,16.186 6.6417,16.003 6.8697,16.181 C6.9487,16.24 6.9517,16.349 7.0377,16.411 C7.1377,16.484 7.2567,16.324 7.3667,16.399 C7.4597,16.462 7.5367,16.556 7.6327,16.621 C7.7927,16.727 7.9597,16.789 8.1317,16.898 C8.2457,16.969 8.0637,17.072 8.1807,17.145 C8.3227,17.231 8.4247,17.348 8.5777,17.432 C8.6447,17.467 8.6827,17.318 8.7527,17.353 C8.8667,17.411 8.8257,17.578 8.9437,17.637 C9.0357,17.682 9.0657,17.819 9.1597,17.862 C9.2867,17.919 9.7967,18.485 9.9407,18.547 C9.9997,18.611 10.0547,18.68 10.1157,18.742 L8.6297,20.228 C6.6107,18.186 5.3387,15.409 5.2507,12.339 L5.2507,12.339 Z M16.9507,24 C23.5677,24 28.9517,18.616 28.9517,12 C28.9517,5.383 23.5677,0 16.9507,0 C10.3347,0 4.9517,5.383 4.9517,12 C4.9517,18.616 10.3347,24 16.9507,24 L16.9507,24 Z" id="Fill-33" fill="#FEFEFE"></path>
                        <path d="M19.2295,1.5318 C18.7985,1.3688 18.6455,1.4158 18.1905,1.4848 C17.9355,1.5198 17.8175,1.7528 17.5735,1.7528 C17.4095,1.7528 17.3985,1.9978 17.5255,2.0918 C17.8065,2.3008 18.4005,2.1848 18.3895,2.0448 C18.5765,2.0448 19.0545,2.0918 19.2045,2.0218 C19.5675,1.8458 19.7185,1.7188 19.2295,1.5318" id="Fill-35" fill="#FEFEFE"></path>
                        <path d="M22.9009,3.5255 C22.9119,3.4285 22.8469,3.2365 22.9249,3.0945 C22.9569,3.0385 22.8299,2.9735 22.6449,2.9245 C22.5829,2.9075 22.5539,2.8495 22.4589,2.8495 C22.2399,2.8495 22.2169,2.9625 22.3459,3.1215 C22.5119,3.3265 22.8959,3.5875 22.9009,3.5255" id="Fill-37" fill="#FEFEFE"></path>
                        <path d="M16.584,12.2174 C16.476,12.1464 16.055,12.0874 15.863,12.2514 C15.797,12.3064 15.855,12.4534 15.83,12.5434 C15.819,12.6844 15.626,12.9034 15.461,13.0224 C15.386,13.0774 15.281,13.0384 15.266,13.0904 C15.132,13.5564 16.227,14.3374 15.947,13.7154 C15.932,13.6804 15.76,13.5394 15.832,13.5274 C15.914,13.5134 16.303,13.5914 16.387,13.5314 C16.502,13.4494 16.488,13.2404 16.576,13.0664 C16.661,12.9044 16.788,12.7184 16.801,12.5814 C16.819,12.4054 16.7,12.2944 16.584,12.2174" id="Fill-39" fill="#FEFEFE"></path>
                    </g>
                </g>
            </g>
        </g>
    </g>
</svg>