<?xml version="1.0" encoding="UTF-8"?>
<svg width="54px" height="54px" viewBox="0 0 54 54" version="1.1" xmlns="http://www.w3.org/2000/svg" xmlns:xlink="http://www.w3.org/1999/xlink">
    <!-- Generator: sketchtool 61.2 (101010) - https://sketch.com -->
    <title>16545418-CB42-43EC-A963-1D43AAAA8B3F</title>
    <desc>Created with sketchtool.</desc>
    <defs>
        <polygon id="path-1" points="0 0.0002 30 0.0002 30 30 0 30"></polygon>
    </defs>
    <g id="Page-1" stroke="none" stroke-width="1" fill="none" fill-rule="evenodd">
        <g id="THE-DIFFERENCE-YOU-MAKE" transform="translate(-306.000000, -4580.000000)">
            <g id="health_campaign" transform="translate(150.000000, 4359.000000)">
                <g id="icon_health" transform="translate(156.000000, 221.000000)">
                    <circle id="Oval" fill="#FF833D" cx="27" cy="27" r="27"></circle>
                    <g id="Group-3" transform="translate(12.000000, 9.000000)">
                        <mask id="mask-2" fill="white">
                            <use xlink:href="#path-1"></use>
                        </mask>
                        <g id="Clip-2"></g>
                        <path d="M17.6096,19.1532 C17.6626,19.4782 17.3946,19.9582 16.8226,20.3132 C16.4476,20.5532 16.0806,20.7822 15.7206,21.0082 L15.7756,16.9092 C17.7226,17.6882 17.5786,18.7162 17.6096,19.1532 M12.9806,20.3132 C12.4086,19.9582 12.1406,19.4782 12.1926,19.1532 C12.2246,18.7022 12.0676,17.6262 14.2026,16.8422 L14.2516,21.1162 C13.8396,20.8562 13.4136,20.5892 12.9806,20.3132 M20.7266,1.9652 C19.7796,1.1882 19.1216,1.3712 18.1716,3.0632 C17.5456,4.1822 16.5476,4.3172 15.9356,4.2832 L15.9396,4.0592 C16.6486,3.7072 17.1486,2.9922 17.1486,2.1492 C17.1486,0.9602 16.1856,0.0002 15.0006,0.0002 C13.8146,0.0002 12.8476,0.9602 12.8476,2.1502 C12.8476,2.9922 13.3476,3.7072 14.0586,4.0582 L14.0606,4.2832 C13.4516,4.3182 12.4516,4.1832 11.8246,3.0642 C10.8796,1.3712 10.2186,1.1892 9.2736,1.9652 C8.3226,2.7422 4.5726,7.2242 -0.0004,6.8122 C-0.0004,6.8122 0.9066,8.8702 3.3766,8.4142 C3.3766,8.4142 4.6966,9.7842 6.8396,8.8252 C6.8396,8.8252 7.9526,9.8292 9.7246,8.9162 C9.7246,8.9162 11.0406,9.9222 12.4446,9.0532 C12.4446,9.0532 13.2376,9.6272 14.1196,9.4782 L14.1756,14.6532 C14.0756,14.6332 13.9956,14.6102 13.8906,14.5912 C13.8866,14.5892 12.3556,14.2612 10.7356,13.8062 C9.1776,13.3982 7.4666,12.7362 7.2146,12.3912 C7.2366,12.3702 7.2716,12.3532 7.3166,12.3322 C7.4546,12.2582 7.6916,12.1832 7.9726,12.1262 C8.5456,12.0092 9.3206,11.9502 10.0996,11.9192 C11.6486,11.8632 11.9276,11.9302 11.9556,11.9352 C11.9576,11.8862 12.8516,12.0412 13.0976,11.1302 C13.0886,11.1222 13.1156,11.0852 13.1006,11.0632 C13.0496,10.4362 12.5676,10.4052 12.1726,10.3322 C11.5316,10.2482 11.8656,10.2812 11.0026,10.2922 C9.5846,10.3972 5.2146,10.0442 4.6646,12.3432 C4.6646,12.4082 4.6606,12.4492 4.6526,12.5062 C4.8366,14.5082 8.9836,15.3782 11.9866,15.9762 C10.9676,16.6742 10.4226,17.5832 10.2056,18.7572 C10.1026,20.0092 11.0966,21.2002 13.4046,22.5322 C11.6516,23.7752 10.4986,24.9402 10.5926,26.3492 C10.7566,27.4972 11.7706,29.0322 13.7626,29.9992 C13.7686,30.0012 13.7706,29.9972 13.7746,29.9992 L13.7796,29.9992 C13.7796,29.9992 12.3856,27.8722 12.2916,26.7082 C12.1996,26.0282 12.5866,25.0252 14.2816,23.8152 L14.3306,28.0702 L14.3386,28.0702 C14.3506,28.4312 14.6296,28.7202 14.9816,28.7202 C15.3326,28.7202 15.6116,28.4312 15.6236,28.0702 L15.6296,28.0702 L15.6866,23.9262 C17.2486,25.0852 17.6026,26.0482 17.5126,26.7082 C17.4186,27.8722 16.0266,29.9992 16.0266,29.9992 L16.0296,29.9992 C16.0296,29.9992 16.0346,30.0012 16.0436,29.9992 C18.0336,29.0322 19.0496,27.4972 19.2116,26.3482 C19.3056,24.9402 18.1536,23.7742 16.4016,22.5322 C18.7076,21.2002 19.7046,20.0082 19.6006,18.7572 C19.3836,17.5832 18.8386,16.6742 17.8176,15.9762 C20.8236,15.3782 24.9676,14.5082 25.1516,12.5062 C25.1436,12.4492 25.1396,12.4082 25.1396,12.3432 C24.5906,10.0432 20.2196,10.3972 18.8016,10.2922 C17.9386,10.2802 18.2726,10.2482 17.6316,10.3312 C17.2376,10.4042 16.7556,10.4362 16.7046,11.0632 C16.6886,11.0842 16.7176,11.1212 16.7086,11.1302 C16.9546,12.0402 17.8486,11.8862 17.8506,11.9352 C17.8766,11.9302 18.1556,11.8632 19.7066,11.9182 C20.4836,11.9492 21.2596,12.0092 21.8316,12.1252 C22.1146,12.1832 22.3476,12.2582 22.4876,12.3312 C22.5326,12.3532 22.5696,12.3692 22.5916,12.3912 C22.3396,12.7362 20.6286,13.3982 19.0696,13.8062 C17.4486,14.2602 15.9176,14.5892 15.9136,14.5912 C15.8746,14.5982 15.8436,14.6062 15.8046,14.6132 L15.8716,9.4772 C16.7576,9.6322 17.5566,9.0522 17.5566,9.0522 C18.9576,9.9222 20.2776,8.9162 20.2776,8.9162 C22.0486,9.8292 23.1606,8.8252 23.1606,8.8252 C25.3026,9.7842 26.6236,8.4142 26.6236,8.4142 C29.0916,8.8702 30.0006,6.8122 30.0006,6.8122 C25.4256,7.2242 21.6756,2.7422 20.7266,1.9652" id="Fill-1" fill="#FFFFFF" mask="url(#mask-2)"></path>
                    </g>
                </g>
            </g>
        </g>
    </g>
</svg>