<?xml version="1.0" encoding="UTF-8"?>
<svg width="54px" height="54px" viewBox="0 0 54 54" version="1.1" xmlns="http://www.w3.org/2000/svg" xmlns:xlink="http://www.w3.org/1999/xlink">
    <!-- Generator: sketchtool 61.2 (101010) - https://sketch.com -->
    <title>1BD817AA-37BB-48B2-B405-73A615E902C1</title>
    <desc>Created with sketchtool.</desc>
    <defs>
        <polygon id="path-1" points="0.000103448276 0.0002 29.1941379 0.0002 29.1941379 30 0.000103448276 30"></polygon>
    </defs>
    <g id="Page-1" stroke="none" stroke-width="1" fill="none" fill-rule="evenodd">
        <g id="THE-DIFFERENCE-YOU-MAKE" transform="translate(-693.000000, -4580.000000)">
            <g id="protection_campaign" transform="translate(537.000000, 4359.000000)">
                <g id="icon_law" transform="translate(156.000000, 221.000000)">
                    <circle id="Oval" fill="#54C381" cx="27" cy="27" r="27"></circle>
                    <g id="Group-3" transform="translate(12.000000, 9.000000)">
                        <mask id="mask-2" fill="white">
                            <use xlink:href="#path-1"></use>
                        </mask>
                        <g id="Clip-2"></g>
                        <path d="M7.70906897,14.6152 L4.92424138,8.7982 L2.18803448,14.6152 L7.70906897,14.6152 Z M21.4852759,14.6152 L24.2204483,8.7982 L26.9556207,14.6152 L21.4852759,14.6152 Z M14.5718276,30.0002 L21.7832069,30.0002 L21.7832069,28.7982 C21.7832069,28.1732 21.2866552,27.6442 20.5904483,27.6442 L18.2028621,27.6442 C18.1035517,26.2022 17.1580345,25.0002 15.7656207,24.5192 L15.7656207,7.5002 C16.4618276,7.0672 16.8601034,6.2982 16.7607931,5.4322 C18.6011379,3.4612 21.1366552,5.3852 23.0763103,6.1062 C23.2263103,6.5862 23.6742414,6.9232 24.2204483,6.9232 C24.867,6.9232 25.4142414,6.3942 25.4142414,5.7212 C25.4142414,5.0962 24.867,4.5672 24.2204483,4.5672 C23.8728621,4.5672 23.5738966,4.7112 23.3256207,4.9522 C21.0373448,3.9902 18.6011379,2.3072 16.2135517,4.3272 C15.9642414,4.0382 15.6166552,3.8462 15.269069,3.7502 C15.7159655,3.5102 16.014931,3.0772 16.014931,2.5482 C16.014931,1.7792 14.6225172,0.0482 14.5718276,0.0002 C14.5221724,0.0482 13.1794138,1.7792 13.1794138,2.5482 C13.1794138,3.0772 13.4783793,3.5102 13.9252759,3.7502 C13.5776897,3.8462 13.229069,4.0382 12.9807931,4.3272 C10.5932069,2.3072 8.157,3.9902 5.81906897,4.9522 C5.61941379,4.7112 5.32148276,4.5672 4.97286207,4.5672 C4.27768966,4.5672 3.73044828,5.0962 3.73044828,5.7212 C3.73044828,6.3942 4.27768966,6.9232 4.97286207,6.9232 C5.52010345,6.9232 5.96803448,6.5862 6.117,6.1062 C8.05665517,5.3852 10.5932069,3.4612 12.4335517,5.4322 C12.3342414,6.2982 12.7314828,7.0672 13.3780345,7.5002 L13.3780345,24.5192 C12.0363103,25.0002 11.0411379,26.2022 10.9914828,27.6442 L8.55424138,27.6442 C7.90768966,27.6442 7.36044828,28.1732 7.36044828,28.7982 L7.36044828,30.0002 L14.5718276,30.0002 Z M19.2973448,14.6152 C19.9935517,16.5862 21.9332069,17.9812 24.2204483,17.9812 C26.5087241,17.9812 28.4483793,16.5862 29.1942414,14.6152 L28.0501034,14.6152 L24.7180345,7.3072 C24.569069,6.9232 23.9225172,6.9232 23.7735517,7.3072 L20.4414828,14.6152 L19.2973448,14.6152 Z M9.897,14.6152 C9.15113793,16.5862 7.21148276,17.9812 4.92424138,17.9812 C2.63596552,17.9812 0.745965517,16.5862 0.000103448276,14.6152 L1.14424138,14.6152 L4.47631034,7.3072 C4.62527586,6.9232 5.27182759,6.9232 5.4207931,7.3072 L8.75286207,14.6152 L9.897,14.6152 Z" id="Fill-1" fill="#FFFFFF" mask="url(#mask-2)"></path>
                    </g>
                </g>
            </g>
        </g>
    </g>
</svg>