<?xml version="1.0" encoding="UTF-8"?>
<svg width="60px" height="63px" viewBox="0 0 60 63" version="1.1" xmlns="http://www.w3.org/2000/svg" xmlns:xlink="http://www.w3.org/1999/xlink">
    <!-- Generator: Sketch 55 (78076) - https://sketchapp.com -->
    <title>icon_ball</title>
    <desc>Created with Sketch.</desc>
    <defs>
        <polygon id="path-1" points="0.267761194 0.11315 30 0.11315 30 3 0.267761194 3"></polygon>
    </defs>
    <g id="Site-Web---Desktop" stroke="none" stroke-width="1" fill="none" fill-rule="evenodd">
        <g id="FUNDRAISING-TIPS" transform="translate(-419.000000, -514.000000)">
            <g id="Group" transform="translate(419.000000, 444.000000)">
                <g id="icon_ball" transform="translate(0.000000, 70.000000)">
                    <path d="M28.4997758,2.67337133 C14.2126714,2.67337133 2.58901362,14.2971205 2.58901362,28.5847857 C2.58901362,42.8720025 14.2126714,54.4957518 28.4997758,54.4957518 C42.7868802,54.4957518 54.410538,42.8720025 54.410538,28.5847857 C54.410538,14.2971205 42.7868802,2.67337133 28.4997758,2.67337133 M28.4997758,57.0843373 C12.7849923,57.0843373 0,44.2992445 0,28.5843373 C0,12.8694302 12.7849923,0.0843373494 28.4997758,0.0843373494 C44.2150077,0.0843373494 57,12.8694302 57,28.5847857 C57,44.2992445 44.2150077,57.0843373 28.4997758,57.0843373" id="Fill-1" fill="#0072BC"></path>
                    <path d="M29.2766477,50.0843373 C28.5717719,50.0843373 28,49.5125655 28,48.8072474 C28,48.1028139 28.5717719,47.531042 29.2766477,47.531042 C33.8309236,47.531042 38.2503268,45.8935545 41.7220834,42.9206059 C45.9955587,39.2600276 48.4471468,33.9531176 48.4471468,28.360985 C48.4471468,27.655667 49.0184765,27.0843373 49.7233523,27.0843373 C50.4282281,27.0843373 51,27.655667 51,28.360985 C51,34.7004452 48.223833,40.7139997 43.3825656,44.8601199 C39.4491464,48.2288425 34.4393986,50.0843373 29.2766477,50.0843373" id="Fill-3" fill="#0072BC"></path>
                    <path d="M29.5002227,8.65576592 C28.4367361,8.65576592 27.5714286,9.52107346 27.5714286,10.58456 C27.5714286,11.6480466 28.4367361,12.5129088 29.5002227,12.5129088 C30.5637092,12.5129088 31.4285714,11.6480466 31.4285714,10.58456 C31.4285714,9.52107346 30.5637092,8.65576592 29.5002227,8.65576592 M29.5002227,15.0843373 C27.018754,15.0843373 25,13.0655833 25,10.58456 C25,8.10309137 27.018754,6.08433735 29.5002227,6.08433735 C31.981246,6.08433735 34,8.10309137 34,10.58456 C34,13.0655833 31.981246,15.0843373 29.5002227,15.0843373" id="Fill-5" fill="#0072BC"></path>
                    <path d="M17.5002227,12.6557659 C16.4367361,12.6557659 15.5714286,13.5210735 15.5714286,14.58456 C15.5714286,15.6480466 16.4367361,16.5129088 17.5002227,16.5129088 C18.5637092,16.5129088 19.4290168,15.6480466 19.4290168,14.58456 C19.4290168,13.5210735 18.5637092,12.6557659 17.5002227,12.6557659 M17.5002227,19.0843373 C15.018754,19.0843373 13,17.0655833 13,14.58456 C13,12.1030914 15.018754,10.0843373 17.5002227,10.0843373 C19.9816913,10.0843373 22,12.1030914 22,14.58456 C22,17.0655833 19.9816913,19.0843373 17.5002227,19.0843373" id="Fill-7" fill="#0072BC"></path>
                    <path d="M27.5,18.6556387 C26.4364608,18.6556387 25.5711105,19.5209034 25.5711105,20.5843373 C25.5711105,21.6477713 26.4364608,22.5125907 27.5,22.5125907 C28.5635392,22.5125907 29.4288895,21.6477713 29.4288895,20.5843373 C29.4288895,19.5209034 28.5635392,18.6556387 27.5,18.6556387 M27.5,25.0843373 C25.0184086,25.0843373 23,23.0652379 23,20.5843373 C23,18.1029915 25.0184086,16.0843373 27.5,16.0843373 C29.9815914,16.0843373 32,18.1029915 32,20.5843373 C32,23.0652379 29.9815914,25.0843373 27.5,25.0843373" id="Fill-9" fill="#0072BC"></path>
                    <path d="M52.7068912,57.0843373 L2.29266109,57.0843373 C1.57849606,57.0843373 1,56.4124163 1,55.5840775 C1,54.7562584 1.57849606,54.0843373 2.29266109,54.0843373 L52.7068912,54.0843373 C53.4210562,54.0843373 54,54.7562584 54,55.5840775 C54,56.4124163 53.4210562,57.0843373 52.7068912,57.0843373" id="Fill-11" fill="#0072BC"></path>
                    <g id="Group-15" transform="translate(30.000000, 59.084337)">
                        <mask id="mask-2" fill="white">
                            <use xlink:href="#path-1"></use>
                        </mask>
                        <g id="Clip-14"></g>
                        <path d="M28.7073134,3.00015 L1.56044776,3.00015 C0.846716418,3.00015 0.267761194,2.35365 0.267761194,1.55615 C0.267761194,0.75965 0.846716418,0.11315 1.56044776,0.11315 L28.7073134,0.11315 C29.4210448,0.11315 30,0.75965 30,1.55615 C30,2.35365 29.4214925,3.00015 28.7073134,3.00015" id="Fill-13" fill="#0072BC" mask="url(#mask-2)"></path>
                    </g>
                </g>
            </g>
        </g>
    </g>
</svg>