<?xml version="1.0" encoding="UTF-8"?>
<svg width="202px" height="50px" viewBox="0 0 202 50" version="1.1" xmlns="http://www.w3.org/2000/svg" xmlns:xlink="http://www.w3.org/1999/xlink">
    <!-- Generator: Sketch 55 (78076) - https://sketchapp.com -->
    <title>logo_unhcr_fundraising_page_footer</title>
    <desc>Created with Sketch.</desc>
    <defs>
        <polygon id="path-1" points="0.881702828 0.633035714 14.9905122 0.633035714 14.9905122 33.4457598 0.881702828 33.4457598"></polygon>
        <polygon id="path-3" points="0.812962818 0.633035714 14.9346012 0.633035714 14.9346012 33.4457598 0.812962818 33.4457598"></polygon>
        <polygon id="path-5" points="0 0.394553571 6.61256635 0.394553571 6.61256635 10.0722321 0 10.0722321"></polygon>
        <polygon id="path-7" points="0.564732143 0.150446429 7.10267857 0.150446429 7.10267857 8.75491071 0.564732143 8.75491071"></polygon>
    </defs>
    <g id="Site-Web---Desktop" stroke="none" stroke-width="1" fill="none" fill-rule="evenodd">
        <g id="FUNDRAISING-PAGE---EXAMPLE" transform="translate(-247.000000, -1834.000000)">
            <g id="logo_unhcr_fundraising_page_footer" transform="translate(247.000000, 1834.000000)">
                <path d="M29.4903571,33.6900893 C30.0617857,33.6900893 29.9876786,33.3659821 29.9876786,32.7597321 L29.9876786,29.810625 C29.9876786,29.2025893 29.9323214,29.0097321 30.27875,29.0097321 C31.4903571,29.0097321 31.8216071,28.8972321 31.8216071,27.8186607 L31.8216071,16.8641964 C31.8216071,13.8802679 29.7153571,14.3749107 29.1233929,13.2847321 C28.27875,11.810625 30.6992857,11.810625 29.8189286,8.61776786 C29.5957143,7.89276786 29.02875,7.44633929 27.9358929,7.44633929 C26.84125,7.44633929 26.2725,7.89276786 26.0510714,8.61776786 C25.1733929,11.810625 27.5966071,11.810625 26.7519643,13.2847321 C26.1555357,14.3749107 24.0528571,13.8802679 24.0528571,16.8641964 L24.0528571,27.8186607 C24.0528571,28.8972321 24.37875,29.0097321 25.5957143,29.0097321 C25.9358929,29.0097321 25.8832143,29.2025893 25.8832143,29.810625 L25.8832143,32.7597321 C25.8832143,33.3659821 25.81,33.6900893 26.3841071,33.6900893 L29.4903571,33.6900893" id="Fill-1" fill="#0072BC"></path>
                <g id="Group-5" transform="translate(12.500000, 0.260179)">
                    <mask id="mask-2" fill="white">
                        <use xlink:href="#path-1"></use>
                    </mask>
                    <g id="Clip-4"></g>
                    <path d="M7.40089286,9.669375 C6.32321429,10.8158036 4.62142857,13.4925893 5.73303571,15.7149107 C7.99196429,16.5845536 7.81875,8.556875 10.6357143,8.694375 C12.0267857,9.981875 10.21875,13.7702679 9.65982143,15.4354464 C8.96517857,17.4916964 8.41071429,21.7979464 7.08928571,23.8809821 C5.98035714,25.6211607 6.81160714,31.0783036 6.4625,32.9550893 C5.52767857,33.8925893 2.9875,33.2300893 1.91071429,33.0550893 C1.91071429,30.9024107 1.62946429,29.200625 1.28571429,25.7586607 C1.25178571,25.0649107 0.520535714,14.4300893 1.11160714,13.1434821 C2.32857143,10.4658036 8.96517857,5.35955357 9.87321429,4.38455357 C10.6678571,3.51669643 13.4830357,0.632767857 14.5616071,0.632767857 C15.3232143,1.15508929 14.8732143,2.37026786 14.7017857,2.856875 C13.6241071,5.53366071 8.96517857,8.17383929 7.40089286,9.669375" id="Fill-3" fill="#0072BC" mask="url(#mask-2)"></path>
                </g>
                <g id="Group-8" transform="translate(27.678571, 0.260179)">
                    <mask id="mask-4" fill="white">
                        <use xlink:href="#path-3"></use>
                    </mask>
                    <g id="Clip-7"></g>
                    <path d="M8.4175,9.669375 C9.45767857,10.8158036 11.1639286,13.4925893 10.0835714,15.7149107 C7.79071429,16.5845536 7.96660714,8.556875 5.14785714,8.694375 C3.79607143,9.981875 5.60053571,13.7702679 6.15767857,15.4354464 C6.85321429,17.4916964 7.41035714,21.7979464 8.72642857,23.8809821 C9.80767857,25.6211607 9.00410714,31.0783036 9.3175,32.9550893 C10.2933929,33.8925893 12.7933929,33.2300893 13.9058929,33.0550893 C13.9058929,30.9024107 14.1505357,29.200625 14.4969643,25.7586607 C14.5657143,25.0649107 15.2960714,14.4300893 14.7058929,13.1434821 C13.4907143,10.4658036 6.85321429,5.35955357 5.94964286,4.38455357 C5.1175,3.51669643 2.33357143,0.632767857 1.255,0.632767857 C0.460357143,1.15508929 0.945178571,2.37026786 1.11839286,2.856875 C2.19696429,5.53366071 6.85321429,8.17383929 8.4175,9.669375" id="Fill-6" fill="#0072BC" mask="url(#mask-4)"></path>
                </g>
                <path d="M10.2476786,6.325 C9.65660714,6.88392857 8.32982143,7.26517857 7.42625,8.47946429 C7.07892857,7.82142857 7.9825,6.22142857 9.06285714,5.28125 C9.86196429,4.61607143 11.4316071,3.53839286 11.8798214,3.43571429 C12.2298214,4.23571429 10.9780357,5.45625 10.2476786,6.325" id="Fill-9" fill="#0072BC"></path>
                <path d="M8.40053571,10.679375 C7.39339286,11.6150893 6.31482143,12.0008036 4.91839286,13.7088393 C4.32732143,11.6516964 4.4675,9.84098214 4.74339286,8.62133929 C5.23357143,7.02223214 6.03267857,5.24366071 7.39339286,4.68830357 C7.11392857,5.59455357 6.65767857,6.84633929 6.555,8.554375 C5.96571429,10.8883036 5.61392857,10.9570536 5.755,11.2704464 C5.89160714,11.2704464 6.65767857,10.0508036 7.59964286,9.11151786 C8.71571429,7.99901786 10.105,7.75258929 11.0103571,7.09276786 C10.8746429,7.54366071 10.0746429,8.97044643 8.40053571,10.679375" id="Fill-11" fill="#0072BC"></path>
                <path d="M3.49419643,20.3246429 C2.13526786,17.88625 1.99508929,16.1103571 1.88883929,14.0532143 C1.96026786,12.6282143 2.65669643,9.32107143 3.70044643,8.83446429 C3.38705357,11.8264286 4.19151786,12.105 3.87455357,14.5773214 C3.87455357,14.7157143 3.52455357,17.2942857 3.52455357,17.4326786 C3.94330357,17.3639286 3.56205357,15.0630357 8.32901786,11.7567857 C7.28973214,13.5675 7.77276786,14.1246429 5.89151786,16.5291071 C3.70044643,18.6880357 3.38705357,20.8085714 3.49419643,20.3246429" id="Fill-13" fill="#0072BC"></path>
                <g id="Group-17" transform="translate(0.000000, 15.438750)">
                    <mask id="mask-6" fill="white">
                        <use xlink:href="#path-5"></use>
                    </mask>
                    <g id="Clip-16"></g>
                    <path d="M5.40848214,7.185625 C4.39598214,8.64723214 4.57008929,9.37758929 4.32723214,10.0722321 C1.92098214,8.68116071 -0.791517857,3.14633929 0.215625,0.394553571 C0.845089286,2.48205357 1.71383929,2.93473214 2.34151786,4.67669643 C3.421875,7.28830357 3.25044643,8.08741071 3.94330357,8.68116071 C3.803125,7.323125 4.25580357,5.72044643 4.71294643,4.53651786 C5.37455357,3.52669643 5.89151786,2.20348214 6.38348214,1.74991071 C6.90401786,3.66866071 6.52008929,5.23383929 5.40848214,7.185625" id="Fill-15" fill="#0072BC" mask="url(#mask-6)"></path>
                </g>
                <path d="M7.56741071,27.3590179 C7.56741071,29.4822321 7.18169643,30.4241964 7.00848214,31.989375 C2.86383929,30.6322321 0.704017857,25.8965179 0.704017857,23.564375 C1.96026786,26.4179464 3.80401786,26.3822321 6.21116071,30.4241964 C6.41830357,28.889375 5.78973214,30.0384821 5.721875,27.1509821 C5.78973214,24.120625 6.41830357,24.0134821 6.52008929,22.1358036 C7.28973214,22.9697321 7.56741071,26.3152679 7.56741071,27.3590179" id="Fill-18" fill="#0072BC"></path>
                <path d="M11.0110714,33.3805357 C11.3271429,34.9475 11.46375,36.7948214 11.7101786,38.15375 C9.34410714,37.2832143 8.74767857,37.9439286 5.93071429,36.1671429 C4.63964286,35.4698214 2.34232143,32.5475 2.48607143,30.4546429 C5.26910714,33.5555357 5.75571429,33.2091071 7.11464286,34.3555357 C8.36732143,35.3671429 9.37535714,36.8644643 10.2851786,36.6573214 C10.35125,35.8207143 8.22892857,34.0082143 8.50571429,28.7867857 C9.06285714,29.3760714 10.5941071,31.7439286 11.0110714,33.3805357" id="Fill-20" fill="#0072BC"></path>
                <path d="M15.7133929,37.2833036 C16.44375,38.3261607 16.2723214,38.7788393 18.1535714,40.936875 C17.6964286,41.1458036 15.0196429,41.843125 13.2383929,41.9145536 C12.0598214,41.9145536 7.87946429,40.799375 6.48839286,37.9440179 C8.88928571,39.2315179 8.92589286,38.9190179 12.1267857,39.6154464 C14.4267857,40.1377679 16.0625,40.868125 16.6901786,40.799375 C16.5508929,40.486875 14.7776786,39.7538393 13.5571429,38.2225893 C12.3357143,36.5859821 12.6151786,34.7404464 11.5330357,33.380625 C12.2669643,33.1716964 15.1214286,36.5172321 15.7133929,37.2833036" id="Fill-22" fill="#0072BC"></path>
                <path d="M45.5539286,6.325 C46.1110714,6.88392857 47.47,7.26517857 48.3405357,8.47946429 C48.7226786,7.82142857 47.7860714,6.22142857 46.7039286,5.28125 C45.9432143,4.61607143 44.3717857,3.53839286 43.8807143,3.43571429 C43.5342857,4.23571429 44.7869643,5.45625 45.5539286,6.325" id="Fill-24" fill="#0072BC"></path>
                <path d="M47.4007143,10.679375 C48.3757143,11.6150893 49.4569643,12.0008036 50.8453571,13.7088393 C51.44,11.6516964 51.2989286,9.84098214 51.0257143,8.62133929 C50.5730357,7.02223214 49.7346429,5.24366071 48.3757143,4.68830357 C48.6917857,5.59455357 49.1078571,6.84633929 49.2123214,8.554375 C49.8033929,10.8883036 50.1525,10.9570536 50.0132143,11.2704464 C49.8748214,11.2704464 49.1078571,10.0508036 48.165,9.11151786 C47.0891071,7.99901786 45.6917857,7.75258929 44.7551786,7.09276786 C44.8953571,7.54366071 45.7301786,8.97044643 47.4007143,10.679375" id="Fill-26" fill="#0072BC"></path>
                <path d="M52.2769643,20.3246429 C53.6698214,17.88625 53.7698214,16.1103571 53.8796429,14.0532143 C53.8064286,12.6282143 53.11,9.32107143 52.1019643,8.83446429 C52.3796429,11.8264286 51.57875,12.105 51.9269643,14.5773214 C51.9269643,14.7157143 52.2421429,17.2942857 52.2421429,17.4326786 C51.8582143,17.3639286 52.2046429,15.0630357 47.4698214,11.7567857 C48.4814286,13.5675 47.99125,14.1246429 49.8742857,16.5291071 C52.1019643,18.6880357 52.3796429,20.8085714 52.2769643,20.3246429" id="Fill-28" fill="#0072BC"></path>
                <path d="M50.3926786,22.624375 C51.3721429,24.0859821 51.19625,24.8163393 51.44,25.5109821 C53.8444643,24.1199107 56.5926786,18.5850893 55.5480357,15.8333036 C54.9560714,17.9208036 54.0516071,18.3734821 53.4605357,20.1154464 C52.34625,22.7270536 52.5176786,23.5261607 51.8578571,24.1199107 C51.9953571,22.761875 51.50875,21.1591964 51.0560714,19.9752679 C50.4301786,18.9654464 49.8748214,17.6422321 49.38375,17.1886607 C48.8971429,19.1074107 49.2435714,20.6725893 50.3926786,22.624375" id="Fill-30" fill="#0072BC"></path>
                <path d="M48.2019643,27.3590179 C48.2019643,29.4822321 48.61625,30.4241964 48.7939286,31.989375 C52.9055357,30.6322321 55.0975,25.8965179 55.0975,23.564375 C53.8064286,26.4179464 51.9957143,26.3822321 49.5608929,30.4241964 C49.3510714,28.889375 49.9751786,30.0384821 50.0466071,27.1509821 C49.9751786,24.120625 49.3510714,24.0134821 49.2439286,22.1358036 C48.4823214,22.9697321 48.2019643,26.3152679 48.2019643,27.3590179" id="Fill-32" fill="#0072BC"></path>
                <path d="M44.7557143,33.3805357 C44.4405357,34.9475 44.3369643,36.7948214 44.0941071,38.15375 C46.4271429,37.2832143 47.0191071,37.9439286 49.8369643,36.1671429 C51.12625,35.4698214 53.4610714,32.5475 53.3208929,30.4546429 C50.5342857,33.5555357 50.01375,33.2091071 48.6923214,34.3555357 C47.4360714,35.3671429 46.3914286,36.8644643 45.4842857,36.6573214 C45.4155357,35.8207143 47.53875,34.0082143 47.2967857,28.7867857 C46.7039286,29.3760714 45.1708929,31.7439286 44.7557143,33.3805357" id="Fill-34" fill="#0072BC"></path>
                <path d="M40.0520536,37.2833036 C39.3538393,38.3261607 39.5270536,38.7788393 37.6154464,40.936875 C38.1011607,41.1458036 40.749375,41.843125 42.5609821,41.9145536 C43.7091964,41.9145536 47.8886607,40.799375 49.2779464,37.9440179 C46.880625,39.2315179 46.8413393,38.9190179 43.6404464,39.6154464 C41.3404464,40.1377679 39.7395536,40.868125 39.080625,40.799375 C39.2172321,40.486875 41.0252679,39.7538393 42.2145536,38.2225893 C43.430625,36.5859821 43.1529464,34.7404464 44.2654464,33.380625 C43.5029464,33.1716964 40.6475893,36.5172321 40.0520536,37.2833036" id="Fill-36" fill="#0072BC"></path>
                <path d="M21.946875,47.10125 L21.2495536,46.7521429 C21.2495536,46.7521429 25.6772321,41.3548214 33.2638393,41.7744643 C40.8549107,42.1923214 40.3334821,43.97 44.4049107,43.68875 C44.8584821,43.6548214 44.0584821,44.2485714 44.0584821,44.2485714 C44.0584821,44.2485714 40.0879464,45.77625 35.178125,44.1066071 C30.3022321,42.4351786 27.1325893,41.4244643 21.946875,47.10125" id="Fill-38" fill="#0072BC"></path>
                <path d="M33.9572321,47.10125 L34.6590179,46.7521429 C34.6590179,46.7521429 30.2697321,41.3548214 22.6795536,41.7744643 C15.0536607,42.1923214 15.5759821,43.97 11.5027679,43.68875 C11.0491964,43.6548214 11.8491964,44.2485714 11.8491964,44.2485714 C11.8491964,44.2485714 15.8161607,45.77625 20.7286607,44.1066071 C25.6358036,42.4351786 28.8072321,41.4244643 33.9572321,47.10125" id="Fill-40" fill="#0072BC"></path>
                <path d="M87.7728571,23.6197321 C87.7728571,30.8947321 83.8433929,34.3858036 75.8344643,34.3858036 C67.8219643,34.3858036 63.8541071,30.8947321 63.8541071,23.6197321 L63.8541071,7.52866071 L71.9371429,7.52866071 L71.9371429,21.8197321 C71.9371429,24.5000893 71.9371429,27.8465179 75.8692857,27.8465179 C79.6907143,27.8465179 79.6907143,24.5000893 79.6907143,21.8197321 L79.6907143,7.52866071 L87.7728571,7.52866071 L87.7728571,23.6197321" id="Fill-42" fill="#0072BC"></path>
                <polygon id="Fill-44" fill="#0072BC" points="92.6233929 7.52821429 100.888571 7.52821429 108.531429 21.56125 108.60375 21.56125 108.60375 7.52821429 116.245714 7.52821429 116.245714 33.7576786 108.384107 33.7576786 100.338571 19.4317857 100.264464 19.4317857 100.264464 33.7576786 92.6233929 33.7576786"></polygon>
                <polygon id="Fill-46" fill="#0072BC" points="121.207054 7.52821429 129.290089 7.52821429 129.290089 16.6389286 136.859732 16.6389286 136.859732 7.52821429 144.941875 7.52821429 144.941875 33.7576786 136.859732 33.7576786 136.859732 23.3621429 129.290089 23.3621429 129.290089 33.7576786 121.207054 33.7576786"></polygon>
                <path d="M165.6275,17.30125 C165.480179,16.345 164.745357,13.4441071 161.399821,13.4441071 C157.615,13.4441071 156.405179,17.1155357 156.405179,20.6432143 C156.405179,24.1691071 157.615,27.8458929 161.399821,27.8458929 C164.12125,27.8458929 165.186429,25.9342857 165.665,23.4735714 L173.599821,23.4735714 C173.599821,28.7628571 169.299821,34.3851786 161.622143,34.3851786 C153.135536,34.3851786 148.320357,28.3958929 148.320357,20.6432143 C148.320357,12.37625 153.54,6.90392857 161.622143,6.90392857 C168.82125,6.93875 172.791786,10.7244643 173.488214,17.30125 L165.6275,17.30125" id="Fill-48" fill="#0072BC"></path>
                <path d="M176.9775,33.7589286 L185.061429,33.7589286 L185.061429,24.6125 L189.363214,24.6125 C192.556964,24.6125 192.776607,27.2214286 192.998036,29.7205357 C193.106071,31.0794643 193.253393,32.4383929 193.660536,33.7589286 L201.743571,33.7589286 C201.006071,32.5473214 200.972143,29.425 200.859643,28.1401786 C200.565893,24.86875 199.207857,22.4446429 197.0025,21.5991071 C199.685536,20.60625 200.934643,17.7419643 200.934643,15.0232143 C200.934643,10.0607143 196.963214,7.52857143 192.373036,7.52857143 L176.9775,7.52857143 L176.9775,33.7589286 L176.9775,33.7589286 Z M185.061429,13.7723214 L188.84625,13.7723214 C191.93375,13.7723214 192.851607,14.7276786 192.851607,16.3830357 C192.851607,18.7303571 190.792679,18.9901786 189.287321,18.9901786 L185.061429,18.9901786 L185.061429,13.7723214 Z" id="Fill-50" fill="#0072BC"></path>
                <polygon id="Fill-52" fill="#0072BC" points="66.4846429 39.7891964 63.8498214 39.7891964 63.8498214 38.1641964 71.0516071 38.1641964 71.0516071 39.7891964 68.4167857 39.7891964 68.4167857 46.9534821 66.4846429 46.9534821"></polygon>
                <path d="M71.6542857,38.1639286 L73.4033929,38.1639286 L73.4033929,41.4755357 L73.4382143,41.4755357 C73.88375,40.76125 74.64625,40.4166071 75.2989286,40.4166071 C77.1569643,40.4166071 77.6257143,41.4630357 77.6257143,43.0389286 L77.6257143,46.9541071 L75.8757143,46.9541071 L75.8757143,43.3576786 C75.8757143,42.3121429 75.5703571,41.7942857 74.7578571,41.7942857 C73.8096429,41.7942857 73.4033929,42.3246429 73.4033929,43.6166071 L73.4033929,46.9541071 L71.6542857,46.9541071 L71.6542857,38.1639286" id="Fill-54" fill="#0072BC"></path>
                <path d="M82.9667857,43.0877679 C82.8069643,42.2011607 82.4248214,41.7341964 81.5757143,41.7341964 C80.4685714,41.7341964 80.1471429,42.5966964 80.1239286,43.0877679 L82.9667857,43.0877679 L82.9667857,43.0877679 Z M80.1239286,44.1949107 C80.1730357,45.3038393 80.7141071,45.8074107 81.6864286,45.8074107 C82.39,45.8074107 82.9542857,45.3779464 83.065,44.9824107 L84.6042857,44.9824107 C84.1114286,46.4859821 83.065,47.1261607 81.6248214,47.1261607 C79.6203571,47.1261607 78.3748214,45.7475893 78.3748214,43.7770536 C78.3748214,41.8690179 79.6935714,40.4172321 81.6248214,40.4172321 C83.7917857,40.4172321 84.8382143,42.2377679 84.7167857,44.1949107 L80.1239286,44.1949107 Z" id="Fill-56" fill="#0072BC"></path>
                <path d="M96.0670536,43.6309821 C96.0670536,46.0059821 94.6634821,47.1613393 92.3125893,47.1613393 C89.9491964,47.1613393 88.5697321,46.0184821 88.5697321,43.6309821 L88.5697321,38.1640179 L90.5027679,38.1640179 L90.5027679,43.6309821 C90.5027679,44.5899107 90.7491964,45.538125 92.3125893,45.538125 C93.6911607,45.538125 94.1340179,44.9345536 94.1340179,43.6309821 L94.1340179,38.1640179 L96.0670536,38.1640179 L96.0670536,43.6309821" id="Fill-58" fill="#0072BC"></path>
                <polygon id="Fill-60" fill="#0072BC" points="97.3597321 38.1639286 99.2802679 38.1639286 102.949018 44.0603571 102.973125 44.0603571 102.973125 38.1639286 104.782946 38.1639286 104.782946 46.9541071 102.849911 46.9541071 99.1936607 41.0701786 99.1686607 41.0701786 99.1686607 46.9541071 97.3597321 46.9541071"></polygon>
                <path d="M108.993929,46.9539286 L110.926964,46.9539286 L110.926964,43.5173214 L112.859107,43.5173214 C113.831429,43.5173214 114.189464,43.9244643 114.324286,44.8476786 C114.4225,45.5503571 114.398393,46.4003571 114.631429,46.9539286 L116.564464,46.9539286 C116.220714,46.4592857 116.231429,45.4253571 116.194821,44.8735714 C116.134107,43.9869643 115.864464,43.0646429 114.915357,42.8173214 L114.915357,42.7932143 C115.887679,42.3985714 116.305536,41.6217857 116.305536,40.58875 C116.305536,39.2610714 115.31,38.16375 113.733214,38.16375 L108.993929,38.16375 L108.993929,46.9539286 L108.993929,46.9539286 Z M110.926964,39.6664286 L113.043929,39.6664286 C113.904643,39.6664286 114.3725,40.0369643 114.3725,40.8842857 C114.3725,41.7708929 113.904643,42.1396429 113.043929,42.1396429 L110.926964,42.1396429 L110.926964,39.6664286 Z" id="Fill-62" fill="#0072BC"></path>
                <path d="M123.507143,44.1950893 C123.63125,42.2379464 122.583929,40.4174107 120.417857,40.4174107 C118.484821,40.4174107 117.166964,41.8691964 117.166964,43.7772321 C117.166964,45.746875 118.411607,47.1272321 120.417857,47.1272321 C121.858929,47.1272321 122.903571,46.4852679 123.397321,44.9825893 L121.858929,44.9825893 C121.746429,45.378125 121.180357,45.8075893 120.480357,45.8075893 C119.508036,45.8075893 118.965179,45.3040179 118.915179,44.1950893 L123.507143,44.1950893 L123.507143,44.1950893 Z M118.915179,43.0879464 C118.941071,42.596875 119.259821,41.734375 120.36875,41.734375 C121.217857,41.734375 121.6,42.2013393 121.760714,43.0879464 L118.915179,43.0879464 Z" id="Fill-64" fill="#0072BC"></path>
                <path d="M124.659821,41.7571429 L123.6125,41.7571429 L123.6125,40.5883929 L124.659821,40.5883929 L124.659821,40.0973214 C124.659821,38.9767857 125.360714,38.1642857 126.788393,38.1642857 C127.096429,38.1642857 127.416964,38.2017857 127.710714,38.2133929 L127.710714,39.51875 C127.503571,39.49375 127.29375,39.4803571 127.070536,39.4803571 C126.604464,39.4803571 126.407143,39.6776786 126.407143,40.2080357 L126.407143,40.5883929 L127.613393,40.5883929 L127.613393,41.7571429 L126.407143,41.7571429 L126.407143,46.9535714 L124.659821,46.9535714 L124.659821,41.7571429" id="Fill-66" fill="#0072BC"></path>
                <path d="M134.126429,46.9539286 L132.463929,46.9539286 L132.463929,46.0673214 L132.426429,46.0673214 C131.982679,46.7807143 131.220179,47.12625 130.481786,47.12625 C128.62375,47.12625 128.155893,46.0789286 128.155893,44.5039286 L128.155893,40.58875 L129.903214,40.58875 L129.903214,44.1825 C129.903214,45.2298214 130.210357,45.7467857 131.02375,45.7467857 C131.971071,45.7467857 132.377321,45.2182143 132.377321,43.9244643 L132.377321,40.58875 L134.126429,40.58875 L134.126429,46.9539286" id="Fill-68" fill="#0072BC"></path>
                <path d="M141.301518,40.58875 L139.639911,40.58875 L139.639911,41.43875 L139.615804,41.43875 C139.197946,40.6994643 138.558661,40.4173214 137.718482,40.4173214 C135.934554,40.4173214 134.987232,41.9182143 134.987232,43.5673214 C134.987232,45.3155357 135.798839,46.7691071 137.708661,46.7691071 C138.470268,46.7691071 139.235446,46.4476786 139.615804,45.7842857 L139.639911,45.7842857 L139.639911,46.6217857 C139.652411,47.5325 139.208661,48.1967857 138.237232,48.1967857 C137.622054,48.1967857 137.092589,47.9735714 136.930982,47.3226786 L135.196161,47.3226786 C135.281875,48.7744643 136.746161,49.3673214 138.004196,49.3673214 C140.932768,49.3673214 141.301518,47.5932143 141.301518,46.5467857 L141.301518,40.58875 M138.150625,45.45125 C137.079196,45.45125 136.736339,44.4548214 136.736339,43.5441071 C136.736339,42.5967857 137.164911,41.7342857 138.150625,41.7342857 C139.282768,41.7342857 139.639911,42.6566071 139.639911,43.6905357 C139.639911,44.6021429 139.148839,45.45125 138.150625,45.45125" id="Fill-70" fill="#0072BC"></path>
                <path d="M148.516786,44.1950893 C148.639107,42.2379464 147.592679,40.4174107 145.425714,40.4174107 C143.493571,40.4174107 142.174821,41.8691964 142.174821,43.7772321 C142.174821,45.746875 143.420357,47.1272321 145.425714,47.1272321 C146.866786,47.1272321 147.913214,46.4852679 148.405179,44.9825893 L146.866786,44.9825893 C146.754286,45.378125 146.189107,45.8075893 145.486429,45.8075893 C144.515,45.8075893 143.973036,45.3040179 143.923929,44.1950893 L148.516786,44.1950893 L148.516786,44.1950893 Z M143.923929,43.0879464 C143.948036,42.596875 144.268571,41.734375 145.376607,41.734375 C146.226607,41.734375 146.607857,42.2013393 146.767679,43.0879464 L143.923929,43.0879464 Z" id="Fill-72" fill="#0072BC"></path>
                <path d="M155.359643,44.1950893 C155.48375,42.2379464 154.436429,40.4174107 152.270357,40.4174107 C150.337321,40.4174107 149.020357,41.8691964 149.020357,43.7772321 C149.020357,45.746875 150.263214,47.1272321 152.270357,47.1272321 C153.710536,47.1272321 154.756071,46.4852679 155.250714,44.9825893 L153.710536,44.9825893 C153.599821,45.378125 153.03375,45.8075893 152.331071,45.8075893 C151.359643,45.8075893 150.817679,45.3040179 150.768571,44.1950893 L155.359643,44.1950893 L155.359643,44.1950893 Z M150.768571,43.0879464 C150.794464,42.596875 151.112321,41.734375 152.22125,41.734375 C153.07125,41.734375 153.453393,42.2013393 153.611429,43.0879464 L150.768571,43.0879464 Z" id="Fill-74" fill="#0072BC"></path>
                <path d="M159.064554,46.9539286 L161.020804,46.9539286 L161.712768,44.9967857 L164.998482,44.9967857 L165.663661,46.9539286 L167.671696,46.9539286 L164.382411,38.16375 L162.401161,38.16375 L159.064554,46.9539286 Z M163.360982,40.3298214 L163.385982,40.3298214 L164.493125,43.5557143 L162.216339,43.5557143 L163.360982,40.3298214 Z" id="Fill-76" fill="#0072BC"></path>
                <path d="M174.096607,40.58875 L172.435893,40.58875 L172.435893,41.43875 L172.409107,41.43875 C171.99125,40.6994643 171.351071,40.4173214 170.513571,40.4173214 C168.727857,40.4173214 167.780536,41.9182143 167.780536,43.5673214 C167.780536,45.3155357 168.593929,46.7691071 170.501071,46.7691071 C171.263571,46.7691071 172.029643,46.4476786 172.409107,45.7842857 L172.435893,45.7842857 L172.435893,46.6217857 C172.445714,47.5325 172.002857,48.1967857 171.030536,48.1967857 C170.41625,48.1967857 169.885893,47.9735714 169.725179,47.3226786 L167.988571,47.3226786 C168.076964,48.7744643 169.542143,49.3673214 170.7975,49.3673214 C173.726071,49.3673214 174.096607,47.5932143 174.096607,46.5467857 L174.096607,40.58875 M170.944821,45.45125 C169.874286,45.45125 169.52875,44.4548214 169.52875,43.5441071 C169.52875,42.5967857 169.959107,41.7342857 170.944821,41.7342857 C172.076964,41.7342857 172.435893,42.6566071 172.435893,43.6905357 C172.435893,44.6021429 171.94125,45.45125 170.944821,45.45125" id="Fill-78" fill="#0072BC"></path>
                <path d="M181.310089,44.1950893 C181.432411,42.2379464 180.387768,40.4174107 178.219911,40.4174107 C176.285982,40.4174107 174.969911,41.8691964 174.969911,43.7772321 C174.969911,45.746875 176.211875,47.1272321 178.219911,47.1272321 C179.660089,47.1272321 180.706518,46.4852679 181.198482,44.9825893 L179.660089,44.9825893 C179.548482,45.378125 178.983304,45.8075893 178.280625,45.8075893 C177.310089,45.8075893 176.766339,45.3040179 176.717232,44.1950893 L181.310089,44.1950893 L181.310089,44.1950893 Z M176.717232,43.0879464 C176.741339,42.596875 177.062768,41.734375 178.169911,41.734375 C179.019911,41.734375 179.402054,42.2013393 179.561875,43.0879464 L176.717232,43.0879464 Z" id="Fill-80" fill="#0072BC"></path>
                <path d="M182.073036,40.58875 L183.73375,40.58875 L183.73375,41.4753571 L183.772143,41.4753571 C184.215,40.7610714 184.979286,40.4173214 185.715893,40.4173214 C187.573929,40.4173214 188.043571,41.4628571 188.043571,43.03875 L188.043571,46.9539286 L186.294464,46.9539286 L186.294464,43.3583929 C186.294464,42.3119643 185.988214,41.795 185.175714,41.795 C184.226607,41.795 183.820357,42.3244643 183.820357,43.6173214 L183.820357,46.9539286 L182.073036,46.9539286 L182.073036,40.58875" id="Fill-82" fill="#0072BC"></path>
                <path d="M193.434286,42.8305357 C193.324464,42.1153571 192.868214,41.7341071 192.142321,41.7341071 C191.022679,41.7341071 190.653036,42.86625 190.653036,43.8019643 C190.653036,44.7126786 191.010179,45.8082143 192.104821,45.8082143 C192.917321,45.8082143 193.385179,45.2921429 193.495893,44.5153571 L195.183393,44.5153571 C194.961964,46.2019643 193.791429,47.1269643 192.118214,47.1269643 C190.197679,47.1269643 188.904821,45.7716071 188.904821,43.8635714 C188.904821,41.8823214 190.086071,40.4180357 192.154821,40.4180357 C193.656607,40.4180357 195.036071,41.2055357 195.145893,42.8305357 L193.434286,42.8305357" id="Fill-84" fill="#0072BC"></path>
                <g id="Group-88" transform="translate(194.642857, 40.438750)">
                    <mask id="mask-8" fill="white">
                        <use xlink:href="#path-7"></use>
                    </mask>
                    <g id="Clip-87"></g>
                    <path d="M4.44330357,7.31383929 C4.06026786,8.33616071 3.45758929,8.75491071 2.25133929,8.75491071 C1.89419643,8.75491071 1.53705357,8.73080357 1.17991071,8.69419643 L1.17991071,7.25401786 C1.51294643,7.278125 1.85669643,7.32901786 2.20133929,7.31383929 C2.803125,7.25401786 3.003125,6.62544643 2.803125,6.12008929 L0.564732143,0.150446429 L2.43705357,0.150446429 L3.87633929,4.50758929 L3.90223214,4.50758929 L5.29151786,0.150446429 L7.103125,0.150446429 L4.44330357,7.31383929" id="Fill-86" fill="#0072BC" mask="url(#mask-8)"></path>
                </g>
            </g>
        </g>
    </g>
</svg>