<?xml version="1.0" encoding="UTF-8"?>
<svg width="64px" height="52px" viewBox="0 0 64 52" version="1.1" xmlns="http://www.w3.org/2000/svg" xmlns:xlink="http://www.w3.org/1999/xlink">
    <!-- Generator: sketchtool 62 (101010) - https://sketch.com -->
    <title>05E55A68-2714-497B-91B7-2AA7B3391FA9</title>
    <desc>Created with sketchtool.</desc>
    <defs>
        <polygon id="path-1" points="0.00032 0.000426666667 63.9992533 0.000426666667 63.9992533 51.8090667 0.00032 51.8090667"></polygon>
    </defs>
    <g id="Page-1" stroke="none" stroke-width="1" fill="none" fill-rule="evenodd">
        <g id="FUNDRAISING-TIPS" transform="translate(-419.000000, -1610.000000)">
            <g id="Group" transform="translate(419.000000, 1509.000000)">
                <g id="icon_discuss" transform="translate(0.000000, 101.000000)">
                    <mask id="mask-2" fill="white">
                        <use xlink:href="#path-1"></use>
                    </mask>
                    <g id="Clip-2"></g>
                    <path d="M60.9528533,36.5717333 C60.9528533,39.0848 58.8952533,41.1424 56.38112,41.1424 C55.8776533,41.1424 55.4200533,41.3866667 55.1309867,41.7973333 L51.0477867,47.6341333 L46.9645867,41.7973333 C46.6744533,41.3866667 46.21792,41.1424 45.7144533,41.1424 L32.00032,41.1424 C29.4861867,41.1424 27.4285867,39.0848 27.4285867,36.5717333 L27.4285867,24.3808 C27.4285867,21.8666667 29.4861867,19.8101333 32.00032,19.8101333 L56.38112,19.8101333 C58.8952533,19.8101333 60.9528533,21.8666667 60.9528533,24.3808 L60.9528533,36.5717333 Z M19.8093867,30.4757333 C19.3069867,30.4757333 18.81952,30.7349333 18.54432,31.1626667 L13.7144533,38.4 L8.88352,31.1626667 C8.60938667,30.7349333 8.12192,30.4757333 7.61952,30.4757333 C5.10538667,30.4757333 3.04778667,28.4181333 3.04778667,25.9050667 L3.04778667,7.6192 C3.04778667,5.10506667 5.10538667,3.04746667 7.61952,3.04746667 L41.14272,3.04746667 C43.6568533,3.04746667 45.7144533,5.10506667 45.7144533,7.6192 L45.7144533,16.7616 L32.00032,16.7616 C27.7944533,16.7616 24.38112,20.1749333 24.38112,24.3808 L24.38112,30.4757333 L19.8093867,30.4757333 Z M56.38112,16.7616 L48.76192,16.7616 L48.76192,7.6192 C48.76192,3.41333333 45.3485867,-7.10542736e-15 41.14272,-7.10542736e-15 L7.61952,-7.10542736e-15 C3.41365333,-7.10542736e-15 0.00032,3.41333333 0.00032,7.6192 L0.00032,25.9050667 C0.00032,29.8208 2.97205333,33.0517333 6.76618667,33.4784 L12.4344533,41.9808 C12.72352,42.4074667 13.2109867,42.6666667 13.7144533,42.6666667 C14.2168533,42.6666667 14.7053867,42.4074667 14.9784533,41.9808 L20.6168533,33.5242667 L24.38112,33.5242667 L24.38112,36.5717333 C24.38112,40.7765333 27.7944533,44.1909333 32.00032,44.1909333 L44.92192,44.1909333 L49.7976533,51.1541333 C50.08672,51.5658667 50.54432,51.8090667 51.0477867,51.8090667 C51.5512533,51.8090667 52.0077867,51.5658667 52.29792,51.1541333 L57.20352,44.1450667 C61.0136533,43.7333333 63.9992533,40.4874667 63.9992533,36.5717333 L63.9992533,24.3808 C63.9992533,20.1749333 60.58592,16.7616 56.38112,16.7616 L56.38112,16.7616 Z" id="Fill-1" fill="#24AAE2" mask="url(#mask-2)"></path>
                </g>
            </g>
        </g>
    </g>
</svg>