<?xml version="1.0" encoding="UTF-8"?>
<svg width="60px" height="64px" viewBox="0 0 60 64" version="1.1" xmlns="http://www.w3.org/2000/svg" xmlns:xlink="http://www.w3.org/1999/xlink">
    <!-- Generator: sketchtool 62 (101010) - https://sketch.com -->
    <title>AC0D2709-8204-4EE0-BF27-CA5D6226D379</title>
    <desc>Created with sketchtool.</desc>
    <defs>
        <polygon id="path-1" points="0.0006 0.78335 59.9996 0.78335 59.9996 64 0.0006 64"></polygon>
    </defs>
    <g id="Page-1" stroke="none" stroke-width="1" fill="none" fill-rule="evenodd">
        <g id="FUNDRAISING-TIPS" transform="translate(-419.000000, -815.000000)">
            <g id="Group" transform="translate(419.000000, 733.000000)">
                <g id="icon_email" transform="translate(0.000000, 81.000000)">
                    <g id="Group-3" transform="translate(0.000000, 0.216700)">
                        <mask id="mask-2" fill="white">
                            <use xlink:href="#path-1"></use>
                        </mask>
                        <g id="Clip-2"></g>
                        <path d="M27.6296,4.6771 L32.3696,4.6771 L31.8286,4.1351 C30.7446,3.1871 29.3906,3.1871 28.3066,4.1351 L27.6296,4.6771 Z M57.2906,58.7181 L57.2906,27.4311 L38.8716,42.1941 L57.2906,58.7181 Z M3.9276,61.1561 C4.0636,61.2911 4.3346,61.2911 4.4696,61.2911 L55.5296,61.2911 C55.8016,61.2911 55.9376,61.2911 56.2076,61.1561 L36.7036,43.9541 L33.4536,46.3931 C31.4226,48.1541 28.5776,48.1541 26.5466,46.3931 L23.4316,43.9541 L3.9276,61.1561 Z M2.7086,27.4311 L2.7086,58.7181 L21.2636,42.1941 L2.7086,27.4311 Z M46.8616,32.3071 L46.8616,7.3861 L13.1376,7.3861 L13.1376,32.3071 L28.1716,44.3621 C29.3906,45.1741 30.7446,45.1741 31.8286,44.3621 L46.8616,32.3071 Z M56.4786,24.5871 L49.5706,18.8981 L49.5706,30.1401 L56.4786,24.5871 Z M0.5416,23.6391 L10.4286,15.3771 L10.4286,6.0311 C10.4286,5.2191 11.1066,4.6771 11.7836,4.6771 L23.4316,4.6771 L26.5466,2.1041 C28.5776,0.3431 31.4226,0.3431 33.4536,2.1041 L36.7036,4.6771 L48.2166,4.6771 C49.0286,4.6771 49.5706,5.2191 49.5706,6.0311 L49.5706,15.3771 L59.5936,23.6391 C59.8646,23.7741 59.9996,24.1801 59.9996,24.5871 L59.9996,59.5311 C59.9996,61.9681 57.9686,64.0001 55.5296,64.0001 L4.4696,64.0001 C2.0316,64.0001 0.0006,61.9681 0.0006,59.5311 L0.0006,24.5871 C0.0006,24.1801 0.1356,23.7741 0.5416,23.6391 L0.5416,23.6391 Z M10.4286,30.1401 L10.4286,18.8981 L3.5216,24.5871 L10.4286,30.1401 Z" id="Fill-1" fill="#24AAE2" mask="url(#mask-2)"></path>
                    </g>
                    <path d="M18.5554,14.9162 C17.7434,14.9162 17.2014,14.3742 17.2014,13.5622 C17.2014,12.8852 17.7434,12.2082 18.5554,12.2082 L41.4454,12.2082 C42.2574,12.2082 42.7994,12.8852 42.7994,13.5622 C42.7994,14.3742 42.2574,14.9162 41.4454,14.9162 L18.5554,14.9162 Z" id="Fill-4" fill="#24AAE2"></path>
                    <path d="M18.5554,20.6052 C17.7434,20.6052 17.2014,20.0632 17.2014,19.2512 C17.2014,18.5732 17.7434,17.8962 18.5554,17.8962 L41.4454,17.8962 C42.2574,17.8962 42.7994,18.5732 42.7994,19.2512 C42.7994,20.0632 42.2574,20.6052 41.4454,20.6052 L18.5554,20.6052 Z" id="Fill-6" fill="#24AAE2"></path>
                    <path d="M18.5554,26.4289 C17.7434,26.4289 17.2014,25.7519 17.2014,25.0749 C17.2014,24.2619 17.7434,23.7199 18.5554,23.7199 L33.0474,23.7199 C33.8604,23.7199 34.4024,24.2619 34.4024,25.0749 C34.4024,25.7519 33.8604,26.4289 33.0474,26.4289 L18.5554,26.4289 Z" id="Fill-8" fill="#24AAE2"></path>
                </g>
            </g>
        </g>
    </g>
</svg>