<?xml version="1.0" encoding="UTF-8"?>
<svg width="60px" height="57px" viewBox="0 0 60 57" version="1.1" xmlns="http://www.w3.org/2000/svg" xmlns:xlink="http://www.w3.org/1999/xlink">
    <!-- Generator: sketchtool 62 (101010) - https://sketch.com -->
    <title>221B7730-A664-49B5-9F63-0EED043F4E47</title>
    <desc>Created with sketchtool.</desc>
    <defs>
        <polygon id="path-1" points="0.0003 0 59.9999022 0 59.9999022 56.528838 0.0003 56.528838"></polygon>
    </defs>
    <g id="UNWRA---Desktop" stroke="none" stroke-width="1" fill="none" fill-rule="evenodd">
        <g id="FUNDRAISING-TIPS" transform="translate(-419.000000, -1327.000000)">
            <g id="Group" transform="translate(419.000000, 1216.000000)">
                <g id="icon_thumb" transform="translate(0.000000, 111.000000)">
                    <mask id="mask-2" fill="white">
                        <use xlink:href="#path-1"></use>
                    </mask>
                    <g id="Clip-2"></g>
                    <path d="M9.6413,43.3792 C8.5003,43.3792 7.5753,44.3042 7.5753,45.4442 C7.5753,46.5862 8.5003,47.5112 9.6413,47.5112 C10.7823,47.5112 11.7073,46.5862 11.7073,45.4442 C11.7073,44.3042 10.7823,43.3792 9.6413,43.3792 L9.6413,43.3792 Z M3.4433,26.1832 L15.8393,26.1832 C16.2453,26.1832 16.5283,26.4662 16.5283,26.8722 L16.5283,51.6642 C16.5283,52.0692 16.2453,52.3532 15.8393,52.3532 L3.4433,52.3532 C3.0373,52.3532 2.7543,52.0692 2.7543,51.6642 L2.7543,26.8722 C2.7543,26.4662 3.0373,26.1832 3.4433,26.1832 L3.4433,26.1832 Z M30.1083,2.7682 C31.4423,2.6292 32.9283,3.6652 33.6593,5.1782 C35.6733,8.7252 36.5093,15.3602 35.1443,22.4812 C34.9933,23.2752 35.6913,24.1192 36.4993,24.1172 L55.3963,24.1172 C56.4293,24.6482 57.0943,25.5612 57.2253,26.6992 C57.3513,27.8032 56.9033,29.1002 55.7833,30.3162 L46.1203,30.3162 C45.3923,30.3162 44.7213,30.9652 44.7213,31.6922 C44.7213,32.4202 45.3923,33.0802 46.1203,33.0692 L55.6113,33.0692 C56.0243,34.5912 55.7063,36.6152 54.3413,38.5792 L46.1203,38.5792 C45.3923,38.5792 44.7213,39.2292 44.7213,39.9562 C44.7213,40.6852 45.3923,41.3452 46.1203,41.3342 L52.8563,41.3342 C53.2703,42.8562 52.9523,44.8802 51.5863,46.8442 L46.1203,46.8442 C45.3923,46.8442 44.7213,47.4932 44.7213,48.2212 C44.7213,48.9482 45.3923,49.6082 46.1203,49.5982 L49.9293,49.5982 C49.5043,51.0712 48.7283,52.2022 46.9383,53.7312 C34.1363,53.6872 28.2013,53.8882 25.2233,53.5792 C23.7043,53.4222 22.9913,53.1992 22.1883,52.7192 C21.4643,52.2862 20.5793,51.5232 19.2833,50.4812 L19.2833,29.0022 C25.6833,20.8622 27.4023,14.0192 27.7193,5.5442 C28.1223,3.6982 29.0713,2.8762 30.1083,2.7682 L30.1083,2.7682 Z M24.9643,5.4372 C24.6653,13.3332 23.6433,18.0132 18.7453,25.0642 C18.1333,24.0892 17.0613,23.4282 15.8393,23.4282 L3.4433,23.4282 C1.5593,23.4282 0.0003,24.9882 0.0003,26.8722 L0.0003,51.6642 C0.0003,53.5482 1.5593,55.1082 3.4433,55.1082 L15.8393,55.1082 C17.0273,55.1082 18.0813,54.4882 18.7023,53.5582 C19.4183,54.1352 20.0813,54.6532 20.7683,55.0652 C21.9033,55.7442 23.1873,56.1522 24.9433,56.3342 C28.4543,56.6982 34.2173,56.4292 47.5193,56.4852 C47.8313,56.4792 48.1403,56.3632 48.3793,56.1622 C51.0563,53.9792 52.2193,51.8882 52.7483,49.5332 C53.0093,49.4532 53.2453,49.2942 53.4153,49.0822 C55.4173,46.5802 56.1423,43.6932 55.6753,41.2052 C55.8683,41.1162 56.0383,40.9832 56.1703,40.8172 C58.5083,38.0742 58.9813,34.5622 58.1513,31.9072 C59.5793,30.2182 60.1693,28.2362 59.9583,26.3982 C59.6213,24.0712 57.9323,21.7332 55.7833,21.3622 L38.0493,21.3622 C39.1103,14.3872 38.4073,7.9762 36.0483,3.8222 C34.7753,1.5802 32.9173,0.3252 31.0773,0.0562 C27.8473,-0.3708 25.2413,1.6552 24.9643,5.4362 L24.9643,5.4372 Z" id="Fill-1" fill="#24AAE2" mask="url(#mask-2)"></path>
                </g>
            </g>
        </g>
    </g>
</svg>