<?xml version="1.0" encoding="UTF-8"?>
<svg width="32px" height="32px" viewBox="0 0 32 32" version="1.1" xmlns="http://www.w3.org/2000/svg" xmlns:xlink="http://www.w3.org/1999/xlink">
    <!-- Generator: sketchtool 61 (101010) - https://sketch.com -->
    <title>8332E274-EC28-45B2-8DE6-F5FF69E4F793</title>
    <desc>Created with sketchtool.</desc>
    <defs>
        <polygon id="path-1" points="0.193689758 0 6.53331024 0 6.53331024 6.33921024 0.193689758 6.33921024"></polygon>
        <polygon id="path-3" points="0.807413217 0.9616 21.3506 0.9616 21.3506 26 0.807413217 26"></polygon>
    </defs>
    <g id="Page-1" stroke="none" stroke-width="1" fill="none" fill-rule="evenodd">
        <g id="ABOUT-UNWRA-Copy" transform="translate(-357.000000, -2058.000000)">
            <g id="Group-4" transform="translate(246.000000, 1896.000000)">
                <g id="icon_refugees_family" transform="translate(111.000000, 162.000000)">
                    <g id="Group-3" transform="translate(16.000000, 0.000000)">
                        <mask id="mask-2" fill="white">
                            <use xlink:href="#path-1"></use>
                        </mask>
                        <g id="Clip-2"></g>
                        <path d="M0.277,2.4509 C0.674,0.7459 2.378,-0.3141 4.082,0.0829 C5.787,0.4799 6.847,2.1839 6.45,3.8879 C6.053,5.5929 4.35,6.6529 2.645,6.2559 C0.94,5.8589 -0.12,4.1559 0.277,2.4509" id="Fill-1" fill="#24AAE2" mask="url(#mask-2)"></path>
                    </g>
                    <path d="M25.0348,16.8376 C25.0688,17.0736 25.1008,17.3166 25.1318,17.5676 C25.3678,17.4936 25.6438,17.4406 25.9578,17.4076 C25.6078,17.2886 25.2928,17.0926 25.0348,16.8376" id="Fill-4" fill="#24AAE2"></path>
                    <path d="M7.7311,22.2522 L7.7311,23.7142 C7.8991,23.7632 8.0901,23.8072 8.2971,23.8462 C8.2001,22.3802 7.9751,21.3652 7.7311,20.6692 L7.7311,22.2522 Z" id="Fill-6" fill="#24AAE2"></path>
                    <path d="M6.1554,16.6999 C5.8324,16.8429 5.4754,16.9229 5.1004,16.9229 C4.7694,16.9229 4.4544,16.8589 4.1624,16.7469 C4.1394,16.8269 4.1154,16.9079 4.0924,16.9899 L6.0634,16.9899 C6.0934,16.8929 6.1244,16.7949 6.1554,16.6999" id="Fill-8" fill="#24AAE2"></path>
                    <g id="Group-12" transform="translate(5.000000, 6.000000)">
                        <mask id="mask-4" fill="white">
                            <use xlink:href="#path-3"></use>
                        </mask>
                        <g id="Clip-11"></g>
                        <path d="M1.3576,5.9816 C1.7016,6.1686 1.9966,6.4326 2.2256,6.7476 C2.2286,6.7506 2.2306,6.7536 2.2326,6.7566 C2.4956,6.6676 2.7256,6.4796 2.8576,6.2096 C3.2706,5.3696 3.7956,4.7696 4.3996,4.3226 C3.9686,4.8406 3.2956,5.8616 3.0656,6.3286 C2.9196,6.6296 2.6736,6.8566 2.3776,6.9796 C2.6016,7.3666 2.7316,7.8136 2.7316,8.2916 C2.7316,8.9786 2.4646,9.6026 2.0316,10.0716 C1.9956,10.3806 1.9646,10.6886 1.9396,10.9946 C1.9476,10.9946 1.9566,10.9936 1.9656,10.9936 C2.0166,10.9936 2.0666,10.9976 2.1156,11.0036 C2.4386,11.0356 3.2516,11.3496 3.9326,12.3016 C4.8106,13.5156 5.3266,15.4246 5.4686,17.9736 C5.4836,18.2606 5.3866,18.5376 5.1946,18.7526 C5.0026,18.9676 4.7376,19.0946 4.4496,19.1096 C4.4296,19.1116 4.4106,19.1116 4.3896,19.1116 C3.9606,19.1116 3.5876,18.8596 3.4146,18.4936 L3.4146,24.7786 C3.4146,25.4536 3.9616,25.9996 4.6356,25.9996 C5.3096,25.9996 5.8576,25.4536 5.8576,24.7786 L5.8576,18.0766 C6.2216,18.0856 6.5906,18.0856 6.9566,18.0766 L6.9566,24.7786 C6.9566,25.4536 7.5026,25.9996 8.1776,25.9996 C8.8516,25.9996 9.3986,25.4536 9.3986,24.7786 L9.3986,17.8666 C9.7426,17.8076 10.0436,17.7346 10.2836,17.6506 C10.3846,17.6156 10.4746,17.5776 10.5536,17.5376 C10.7706,17.4266 10.8946,17.2986 10.8946,17.1526 C10.8946,17.1526 11.2876,12.5106 10.5536,8.5456 C10.4766,8.1296 10.3866,7.7226 10.2836,7.3276 C10.1466,6.8066 9.9856,6.3086 9.7956,5.8486 C9.9226,5.9296 10.0536,6.0176 10.1876,6.1116 C10.2196,6.1346 10.2516,6.1546 10.2836,6.1776 C10.2886,6.1816 10.2926,6.1846 10.2976,6.1876 C10.2926,6.1746 10.2886,6.1626 10.2836,6.1496 C10.2806,6.1416 10.2766,6.1326 10.2736,6.1236 C10.2766,6.1266 10.2796,6.1276 10.2836,6.1306 L10.2836,3.8976 C9.6416,3.5436 8.9696,3.2836 8.2336,3.1256 C8.3956,3.1176 8.5546,3.1126 8.7106,3.1136 C9.3056,3.1136 9.8476,3.1616 10.2836,3.2186 C10.3786,3.2316 10.4686,3.2446 10.5536,3.2576 L10.5536,4.0526 L10.5536,6.3246 L10.5536,7.2826 C11.6176,11.3396 11.2026,16.7126 11.1646,17.1646 C11.1596,17.4386 10.9606,17.6596 10.5536,17.8356 L10.5536,24.2586 C10.5536,25.2206 11.3336,26.0006 12.2956,26.0006 C13.2566,26.0006 14.0366,25.2206 14.0366,24.2586 L14.0366,13.0956 L14.6906,13.0956 L14.6906,24.2576 C14.6906,25.2206 15.4696,25.9996 16.4316,25.9996 C17.3936,25.9996 18.1736,25.2206 18.1736,24.2576 L18.1736,18.7476 C18.0186,18.8586 17.8286,18.9256 17.6236,18.9256 C17.5886,18.9256 17.5526,18.9226 17.5166,18.9196 C16.9986,18.8596 16.6256,18.3916 16.6846,17.8746 C16.9136,15.8676 17.4136,14.2866 18.1736,13.1626 L18.1736,12.0066 L18.1736,9.3386 L18.1736,4.7836 C18.2496,4.9046 18.3276,5.0346 18.4066,5.1786 C18.7796,5.8626 19.1706,6.8246 19.5106,8.1506 C19.8346,7.4026 20.5236,6.8516 21.3506,6.7166 C20.9426,5.3846 20.4726,4.3806 19.9936,3.6186 C19.1086,2.1936 18.1586,1.6436 17.6696,1.4536 C17.5006,1.3456 17.3006,1.2826 17.0856,1.2826 L11.7196,1.2826 C11.5796,1.2506 11.3486,1.2016 11.0486,1.1506 C10.5646,1.0696 9.8956,0.9846 9.1166,0.9616 C8.6216,1.9836 7.5866,2.6556 6.4086,2.6556 C6.1786,2.6556 5.9476,2.6286 5.7226,2.5766 C5.1906,2.4526 4.7256,2.1946 4.3536,1.8466 C3.0066,2.4826 1.7306,3.5816 0.9166,5.2646 C0.8376,5.4236 0.8046,5.5936 0.807413217,5.7606 C0.9116,5.7896 1.0136,5.8226 1.1106,5.8636 C1.1956,5.8986 1.2776,5.9376 1.3576,5.9816" id="Fill-10" fill="#24AAE2" mask="url(#mask-4)"></path>
                    </g>
                    <path d="M13.8141,6.9558 C13.9311,6.7418 14.0241,6.5098 14.0821,6.2608 C14.4261,4.7828 13.5071,3.3068 12.0291,2.9618 C10.5521,2.6188 9.0751,3.5378 8.7311,5.0148 C8.4901,6.0488 8.8681,7.0798 9.6221,7.7258 C9.9461,8.0028 10.3391,8.2098 10.7831,8.3138 C12.0121,8.5998 13.2371,8.0108 13.8141,6.9558" id="Fill-13" fill="#24AAE2"></path>
                    <path d="M5.1003,16.6525 C5.5303,16.6525 5.9323,16.5355 6.2793,16.3355 C6.4203,16.2535 6.5513,16.1575 6.6723,16.0495 C6.7073,16.0185 6.7423,15.9885 6.7753,15.9555 C6.8983,15.8315 7.0053,15.6935 7.0993,15.5445 C7.3273,15.1805 7.4613,14.7525 7.4613,14.2915 C7.4613,13.8395 7.3313,13.4175 7.1113,13.0585 C7.0583,12.9735 7.0023,12.8905 6.9393,12.8125 C6.9393,12.8125 6.9383,12.8115 6.9383,12.8105 C6.7373,12.5615 6.4873,12.3555 6.2033,12.2045 C6.1223,12.1615 6.0393,12.1255 5.9543,12.0915 C5.9213,12.0795 5.8893,12.0675 5.8563,12.0565 C5.6193,11.9755 5.3653,11.9305 5.1003,11.9305 C3.7963,11.9305 2.7393,12.9875 2.7393,14.2915 C2.7393,15.1945 3.2473,15.9795 3.9933,16.3765 C4.0723,16.4185 4.1563,16.4555 4.2413,16.4885 C4.5073,16.5935 4.7963,16.6525 5.1003,16.6525" id="Fill-15" fill="#24AAE2"></path>
                    <path d="M0.7653,24.841 C0.7803,24.842 0.7953,24.842 0.8103,24.842 C1.2373,24.842 1.5943,24.508 1.6183,24.077 C1.7603,21.466 2.3043,20.133 2.7393,19.492 L2.7393,22.252 L2.7393,24.681 L2.7393,30.887 C2.7393,31.483 3.2223,31.966 3.8183,31.966 C4.4143,31.966 4.8973,31.483 4.8973,30.887 L4.8973,25.355 L5.3023,25.355 L5.3023,30.887 C5.3023,31.483 5.7863,31.966 6.3823,31.966 C6.9783,31.966 7.4613,31.483 7.4613,30.887 L7.4613,24.681 L7.4613,23.913 L7.4613,23.626 L7.4613,22.252 L7.4613,19.495 C7.4963,19.548 7.5323,19.603 7.5693,19.664 C7.9813,20.357 8.4513,21.681 8.5823,24.077 C8.6063,24.508 8.9633,24.842 9.3903,24.842 C9.4053,24.842 9.4193,24.842 9.4343,24.841 C9.8813,24.817 10.2233,24.435 10.1993,23.988 C10.0363,21.068 9.4083,19.421 8.7133,18.459 C8.0223,17.493 7.2473,17.288 7.0773,17.272 C7.0223,17.264 6.9703,17.264 6.9173,17.267 C6.9033,17.267 6.8883,17.267 6.8733,17.269 C6.8453,17.265 6.8163,17.26 6.7863,17.26 L6.6493,17.26 L6.2643,17.26 L5.9813,17.26 L4.0183,17.26 L3.7393,17.26 L3.4133,17.26 C3.3843,17.26 3.3553,17.265 3.3263,17.269 C3.2603,17.262 3.1923,17.262 3.1233,17.272 C2.9523,17.288 2.1773,17.493 1.4863,18.459 C0.7913,19.421 0.1633,21.068 0.0013,23.988 C-0.0237,24.435 0.3183,24.817 0.7653,24.841" id="Fill-17" fill="#24AAE2"></path>
                    <path d="M24.9577,16.3273 C25.3467,16.8963 25.9997,17.2703 26.7407,17.2703 C26.9207,17.2703 27.0947,17.2453 27.2617,17.2033 C27.3517,17.1813 27.4377,17.1543 27.5227,17.1213 C28.3287,16.8073 28.8997,16.0273 28.8997,15.1113 C28.8997,13.9193 27.9337,12.9523 26.7407,12.9523 C26.7277,12.9523 26.7147,12.9543 26.7017,12.9543 C26.6087,12.9563 26.5187,12.9643 26.4287,12.9773 C25.5367,13.1073 24.8217,13.7803 24.6327,14.6513 C24.6007,14.7993 24.5827,14.9533 24.5827,15.1113 C24.5827,15.5623 24.7207,15.9813 24.9577,16.3273" id="Fill-19" fill="#24AAE2"></path>
                    <path d="M23.4435,23.0363 C23.6525,21.8873 23.9535,21.0743 24.2575,20.5013 C23.9505,22.2673 23.6035,24.6253 23.6035,26.2433 C23.6035,26.5053 24.0745,26.7363 24.6835,26.9073 L24.6835,31.1223 C24.6835,31.6073 25.0755,31.9993 25.5605,31.9993 C26.0445,31.9993 26.4375,31.6073 26.4375,31.1223 L26.4375,27.1983 C26.5445,27.2043 26.6465,27.2083 26.7405,27.2083 C26.8355,27.2083 26.9365,27.2043 27.0445,27.1983 L27.0445,31.1223 C27.0445,31.6073 27.4365,31.9993 27.9215,31.9993 C28.4055,31.9993 28.7975,31.6073 28.7975,31.1223 L28.7975,26.9073 C29.4065,26.7363 29.8775,26.5043 29.8775,26.2433 C29.8775,24.6243 29.5295,22.2663 29.2235,20.5003 C29.6105,21.2283 29.9925,22.3493 30.1875,24.0573 C30.2275,24.4013 30.5195,24.6553 30.8575,24.6553 C30.8825,24.6553 30.9085,24.6543 30.9345,24.6513 C31.3045,24.6093 31.5705,24.2743 31.5285,23.9053 C31.2315,21.3013 30.5085,19.7903 29.7885,18.9183 C29.1425,18.1313 28.5105,17.8923 28.3055,17.8363 C28.1325,17.7793 27.8985,17.7243 27.5895,17.6873 C27.5045,17.6773 27.4135,17.6673 27.3155,17.6603 C27.1435,17.6473 26.9535,17.6403 26.7405,17.6403 C25.9725,17.6403 25.4835,17.7343 25.1775,17.8363 C25.1735,17.8373 25.1685,17.8393 25.1645,17.8403 C25.1055,17.8563 25.0155,17.8873 24.9035,17.9383 C24.6065,18.0743 24.1525,18.3553 23.6915,18.9183 C23.6085,19.0183 23.5255,19.1293 23.4435,19.2473 C23.3525,19.3773 23.2615,19.5193 23.1735,19.6733 C22.6465,20.5893 22.1765,21.9323 21.9515,23.9053 C21.9095,24.2753 22.1755,24.6093 22.5455,24.6513 C22.5715,24.6543 22.5975,24.6563 22.6225,24.6563 C22.8475,24.6563 23.0495,24.5423 23.1725,24.3673 C23.2355,24.2773 23.2795,24.1733 23.2925,24.0573 C23.3355,23.6903 23.3865,23.3513 23.4435,23.0363" id="Fill-21" fill="#24AAE2"></path>
                </g>
            </g>
        </g>
    </g>
</svg>