<?xml version="1.0" encoding="UTF-8"?>
<svg width="19px" height="33px" viewBox="0 0 19 33" version="1.1" xmlns="http://www.w3.org/2000/svg" xmlns:xlink="http://www.w3.org/1999/xlink">
    <!-- Generator: sketchtool 61 (101010) - https://sketch.com -->
    <title>6E7437C9-4244-4410-91BE-1E5FA5229CF7</title>
    <desc>Created with sketchtool.</desc>
    <defs>
        <polygon id="path-1" points="0.100781784 0.0459548033 17.9184831 0.0459548033 17.9184831 22.6844745 0.100781784 22.6844745"></polygon>
    </defs>
    <g id="Page-1" stroke="none" stroke-width="1" fill="none" fill-rule="evenodd">
        <g id="ABOUT-UNWRA-Copy" transform="translate(-1054.000000, -1579.000000)">
            <g id="Group-4" transform="translate(730.000000, 1549.000000)">
                <g id="icon_girl_small_clear" transform="translate(324.000000, 30.000000)">
                    <g id="Group-9" transform="translate(0.583333, 10.000000)">
                        <mask id="mask-2" fill="white">
                            <use xlink:href="#path-1"></use>
                        </mask>
                        <g id="Clip-8"></g>
                        <path d="M17.8973757,9.91624936 C17.6056662,8.04767064 17.1206696,6.23546638 16.3309196,4.51193447 C15.8014551,3.35684511 15.1391797,2.28690468 14.1881595,1.41486213 C13.206901,0.516981277 12.0578503,0.03956 10.7113622,0.0459548033 C10.1445446,0.0495429787 9.57713412,0.0489557447 9.00972365,0.0483685106 C8.44290608,0.0489557447 7.87549561,0.0495429787 7.30808514,0.0459548033 C5.96159696,0.03956 4.81195338,0.516394043 3.83128784,1.41486213 C2.87967466,2.28690468 2.21799223,3.35684511 1.6885277,4.51193447 C0.898184797,6.23546638 0.413188176,8.04767064 0.122071622,9.91624936 C-0.00362432432,10.7201728 0.435125676,11.3696536 1.23021182,11.5070664 C1.92568986,11.6274494 2.59982331,11.0954153 2.71247534,10.3331855 C2.76109358,10.00316 2.8180125,9.67665787 2.88441791,9.35250468 C3.11090777,8.23264936 3.44174899,7.13980681 3.87516284,6.07691319 C4.06845,5.60360255 4.30324054,5.14849617 4.5184652,4.68399404 C4.54514595,4.69280255 4.57241959,4.70278553 4.59910034,4.71100681 C3.74472365,8.31956 3.47791622,10.9462579 3.35222027,13.2288366 C3.31842466,13.8430834 3.29530135,14.4326664 3.27277095,15.0105047 L4.73131824,15.0105047 C4.81076757,15.77156 4.89377432,18.2584962 4.90859696,18.8774409 C4.93764932,20.152326 5.41197365,21.2316621 6.22128953,21.9081557 C6.24974899,21.9322323 6.27880135,21.9563089 6.30844662,21.9786238 C6.41279797,22.0602494 6.52367128,22.1354153 6.63810203,22.2035345 C6.71992297,22.2522749 6.80470845,22.2974919 6.89186554,22.3380111 C7.03831318,22.4084791 7.19128277,22.468377 7.35136723,22.515943 C7.39464932,22.5288621 7.43852432,22.5417813 7.48299223,22.5529387 C7.96917466,22.6780196 8.49152432,22.6874153 9.00972365,22.6838919 C9.52792297,22.6874153 10.0502726,22.6786068 10.5364551,22.5529387 C10.5803301,22.5417813 10.6242051,22.5288621 10.6680801,22.515943 C10.8281645,22.4677898 10.981727,22.4078919 11.1275818,22.3380111 C11.2147389,22.2974919 11.2989314,22.2522749 11.3813453,22.2035345 C11.4963689,22.1354153 11.6066493,22.0602494 11.7110007,21.9786238 C11.7406459,21.9563089 11.7696983,21.9322323 11.7981578,21.9081557 C12.6074736,21.2310749 13.081798,20.152326 13.1108503,18.8774409 C13.1250801,18.2584962 13.2086797,15.7709728 13.2881291,15.0105047 L14.7466764,15.0105047 C14.7247389,14.4326664 14.7010226,13.8430834 14.667227,13.2288366 C14.542124,10.9462579 14.2753166,8.32014723 13.420347,4.71100681 C13.4470277,4.7021983 13.4743014,4.69221532 13.5009821,4.68399404 C13.7167997,5.14790894 13.9515902,5.60360255 14.1442845,6.07691319 C14.5776983,7.13980681 14.9085395,8.23264936 15.1350294,9.35250468 C15.2014348,9.67724511 15.2589466,10.00316 15.306972,10.3331855 C15.4190311,11.0954153 16.0931645,11.6274494 16.7892355,11.5070664 C17.5843216,11.3702409 18.0230716,10.7201728 17.8973757,9.91624936" id="Fill-7" fill="#2AABE2" mask="url(#mask-2)"></path>
                    </g>
                    <path d="M14.5716357,4.45539083 C14.5009182,3.21330788 13.9807251,1.97013634 12.9727012,1.10633895 C11.8753814,0.166340147 10.1823567,-0.0279734434 8.72425787,0.00305141559 C8.52648861,0.00740578176 8.33830816,0.0182916972 8.16031582,0.0335319788 C5.57253499,0.252338879 3.83336409,1.9358457 3.61162279,4.27033027 C3.51753257,5.26367005 3.66675847,6.23142793 3.93164942,7.18721131 C4.08866622,7.75327891 4.2948257,8.30737201 4.47461594,8.85711074 C4.8989209,8.5784313 5.28726781,8.32478947 5.67441613,8.06842616 C5.80086859,7.98460462 5.89615742,7.98242743 6.03819171,8.07604631 C7.90021928,9.30343327 10.244684,9.30833193 12.1127046,8.08856511 C12.27092,7.98514891 12.3823899,7.98406032 12.5256228,8.07985638 C12.9031823,8.3340425 13.2837383,8.58441856 13.6660922,8.83860468 C13.663695,8.84187046 13.681674,8.8233644 13.6900642,8.80268116 C14.2570028,7.40003096 14.657935,5.96907737 14.5716357,4.45539083" id="Fill-10" fill="#2AABE2"></path>
                </g>
            </g>
        </g>
    </g>
</svg>