<?xml version="1.0" encoding="UTF-8"?>
<svg width="29px" height="32px" viewBox="0 0 29 32" version="1.1" xmlns="http://www.w3.org/2000/svg" xmlns:xlink="http://www.w3.org/1999/xlink">
    <!-- Generator: sketchtool 61 (101010) - https://sketch.com -->
    <title>13D56784-E8A5-447D-BAC2-45744D4D652D</title>
    <desc>Created with sketchtool.</desc>
    <defs>
        <polygon id="path-1" points="0 0.2005 28.3488 0.2005 28.3488 15.9995 0 15.9995"></polygon>
    </defs>
    <g id="Page-1" stroke="none" stroke-width="1" fill="none" fill-rule="evenodd">
        <g id="ABOUT-UNWRA-Copy" transform="translate(-569.000000, -2058.000000)">
            <g id="Group-4" transform="translate(246.000000, 1896.000000)">
                <g id="icon_patient" transform="translate(323.000000, 162.000000)">
                    <g id="Group-3" transform="translate(0.000000, 16.000000)">
                        <mask id="mask-2" fill="white">
                            <use xlink:href="#path-1"></use>
                        </mask>
                        <g id="Clip-2"></g>
                        <path d="M28.3418,12.6855 L28.3348,12.6565 C28.3278,12.6215 28.3208,12.5785 28.3058,12.5425 L27.5538,9.2775 C26.9168,6.5075 25.1278,4.1445 22.6438,2.7705 L18.0478,0.2285 C18.0478,0.2225 17.9898,0.2075 17.8898,0.2005 L17.8898,1.1885 C17.8898,1.6825 17.5678,2.1545 17.0168,2.4485 L14.1958,3.9875 L11.3328,2.4485 C10.7738,2.1475 10.4518,1.6755 10.4518,1.1815 L10.4518,0.2005 C10.3518,0.2075 10.2948,0.2225 10.2948,0.2285 L5.6978,2.7705 C3.2148,4.1445 1.4248,6.5075 0.7878,9.2775 L-0.0002,12.6855 L0.0138,12.6855 C0.0138,12.7135 0.0078,12.7425 0.0078,12.7715 C0.0078,14.5535 6.3498,15.9995 14.1748,15.9995 C21.9988,15.9995 28.3488,14.5535 28.3488,12.7715 C28.3418,12.7425 28.3418,12.7135 28.3418,12.6855" id="Fill-1" fill="#24AAE2" mask="url(#mask-2)"></path>
                    </g>
                    <path d="M8.2114,9.7144 C8.2754,9.7144 8.3334,9.7074 8.3904,9.7004 L8.3904,10.1304 C8.3904,11.0104 8.6554,11.8694 9.1564,12.5924 L10.4444,14.4614 L10.5954,14.6824 C10.9314,15.1764 11.3684,15.5854 11.8764,15.9004 C12.0124,15.9854 12.1484,16.0574 12.2914,16.1294 C12.8854,16.4154 13.5304,16.5584 14.1674,16.5584 C14.8114,16.5584 15.4564,16.4154 16.0434,16.1294 C16.1864,16.0644 16.3224,15.9854 16.4584,15.9004 L16.7014,15.7494 C17.0524,15.5344 17.3454,15.2484 17.5824,14.9114 L17.8974,14.4614 L19.1854,12.5924 C19.6874,11.8694 19.9514,11.0104 19.9514,10.1304 L19.9514,9.9224 L19.9444,9.9224 C19.6444,9.9074 11.3254,9.5004 8.2254,5.8414 C7.4524,5.8414 6.8294,6.7084 6.8294,7.7744 C6.8084,8.8484 7.4384,9.7144 8.2114,9.7144" id="Fill-4" fill="#24AAE2"></path>
                    <path d="M19.9873,5.8486 C20.0303,5.8486 20.0733,5.8416 20.1233,5.8416 C20.0733,5.8416 20.0303,5.8416 19.9873,5.8486" id="Fill-6" fill="#24AAE2"></path>
                    <path d="M19.8657,5.856 L19.8657,5.706 C19.8657,2.556 17.3097,0 14.1597,0 C12.2557,0 10.5737,0.931 9.5357,2.362 C9.5427,2.362 15.3267,6.056 19.8657,5.856" id="Fill-8" fill="#24AAE2"></path>
                </g>
            </g>
        </g>
    </g>
</svg>