<?xml version="1.0" encoding="UTF-8"?>
<svg width="27px" height="32px" viewBox="0 0 27 32" version="1.1" xmlns="http://www.w3.org/2000/svg" xmlns:xlink="http://www.w3.org/1999/xlink">
    <!-- Generator: sketchtool 61 (101010) - https://sketch.com -->
    <title>BDA5414D-B1D0-4216-9ED0-8DB3C1E0C7C3</title>
    <desc>Created with sketchtool.</desc>
    <defs>
        <polygon id="path-1" points="0 0.353 26.0579 0.353 26.0579 18 0 18"></polygon>
        <polygon id="path-3" points="0.7899 0 15.2659 0 15.2659 14.3226002 0.7899 14.3226002"></polygon>
    </defs>
    <g id="Page-1" stroke="none" stroke-width="1" fill="none" fill-rule="evenodd">
        <g id="ABOUT-UNWRA-Copy" transform="translate(-566.000000, -1926.000000)">
            <g id="Group-4" transform="translate(246.000000, 1896.000000)">
                <g id="icon_doctor" transform="translate(320.000000, 30.000000)">
                    <g id="Group-3" transform="translate(0.000000, 14.000000)">
                        <mask id="mask-2" fill="white">
                            <use xlink:href="#path-1"></use>
                        </mask>
                        <g id="Clip-2"></g>
                        <path d="M19.2239,0.353 C19.4839,0.418 19.7399,0.496 19.9899,0.583 C20.0249,0.678 20.0559,0.772 20.0839,0.864 C20.4399,2.013 20.2989,2.901 20.1299,3.425 C20.0729,3.608 20.0099,3.747 19.9649,3.836 L19.4869,3.836 C19.3419,3.836 19.2259,3.954 19.2259,4.097 L19.2259,5.005 C19.2259,5.144 19.3339,5.257 19.4709,5.265 L19.4709,5.78 C19.2029,5.9 18.9429,6.096 18.6919,6.369 C17.8039,7.33 17.0099,9.297 16.5009,12.266 L16.4999,12.266 C16.4759,12.408 16.5719,12.543 16.7129,12.568 C16.7299,12.571 16.7459,12.572 16.7619,12.571 L17.6859,12.571 C17.8299,12.571 17.9479,12.455 17.9479,12.31 L17.9479,12.309 C17.9469,12.166 17.8289,12.049 17.6859,12.049 L17.0689,12.049 C17.5599,9.356 18.2819,7.582 19.0749,6.721 C19.3789,6.392 19.6869,6.207 19.9889,6.165 L20.2419,6.165 C20.5429,6.207 20.8519,6.392 21.1569,6.722 C21.9509,7.582 22.6709,9.357 23.1619,12.049 L22.4029,12.049 C22.2669,12.049 22.1559,12.153 22.1429,12.286 C22.1419,12.293 22.1419,12.302 22.1419,12.31 C22.1419,12.455 22.2589,12.571 22.4029,12.571 L23.4729,12.571 C23.6179,12.571 23.7349,12.455 23.7349,12.31 C23.7349,12.29 23.7319,12.27 23.7279,12.25 C23.2179,9.292 22.4259,7.33 21.5399,6.37 C21.2889,6.097 21.0289,5.901 20.7609,5.781 L20.7609,5.266 C20.8999,5.26 21.0109,5.145 21.0109,5.005 L21.0109,4.097 C21.0109,3.954 20.8939,3.836 20.7489,3.836 L20.5329,3.836 C20.7479,3.294 21.0159,2.232 20.6169,0.828 C23.8129,2.217 26.0579,5.38 26.0579,9.037 L26.0579,18 L-0.0001,18 L-0.0001,9.037 C-0.0001,5.589 1.9979,2.58 4.9049,1.082 L4.9049,4.644 C4.5579,4.699 4.2469,4.862 4.0099,5.097 C3.7119,5.391 3.5279,5.796 3.5279,6.244 C3.5279,6.693 3.7109,7.099 4.0079,7.393 C4.3049,7.687 4.7139,7.869 5.1649,7.869 C5.6189,7.869 6.0289,7.688 6.3259,7.394 C6.6219,7.1 6.8059,6.694 6.8059,6.244 C6.8059,5.796 6.6209,5.39 6.3239,5.096 C6.0849,4.862 5.7749,4.699 5.4269,4.644 L5.4269,0.834 C5.8779,0.637 6.3479,0.475 6.8339,0.353 C8.1019,2.424 10.4029,3.811 13.0309,3.811 C15.6579,3.811 17.9559,2.423 19.2239,0.353 L19.2239,0.353 Z" id="Fill-1" fill="#24AAE2" mask="url(#mask-2)"></path>
                    </g>
                    <g id="Group-6" transform="translate(5.000000, 0.000000)">
                        <mask id="mask-4" fill="white">
                            <use xlink:href="#path-3"></use>
                        </mask>
                        <g id="Clip-5"></g>
                        <path d="M15.2659,7.1636 C15.2659,3.2056 12.0269,-0.0004 8.0309,-0.0004 C4.0339,-0.0004 0.7899,3.2056 0.7899,7.1636 C0.7899,11.1156 4.0329,14.3226002 8.0309,14.3226002 C12.0269,14.3236 15.2659,11.1156 15.2659,7.1636" id="Fill-4" fill="#24AAE2" mask="url(#mask-4)"></path>
                    </g>
                </g>
            </g>
        </g>
    </g>
</svg>