<?xml version="1.0" encoding="UTF-8"?>
<svg width="38px" height="34px" viewBox="0 0 38 34" version="1.1" xmlns="http://www.w3.org/2000/svg" xmlns:xlink="http://www.w3.org/1999/xlink">
    <!-- Generator: sketchtool 61 (101010) - https://sketch.com -->
    <title>7C7E8EA4-98A9-4DDA-8174-7D070F2B6C9D</title>
    <desc>Created with sketchtool.</desc>
    <defs>
        <polygon id="path-1" points="0.291235306 0.190055556 10.7528686 0.190055556 10.7528686 10.63535 0.291235306 10.63535"></polygon>
        <polygon id="path-3" points="0 0.0490731915 17.8865314 0.0490731915 17.8865314 22.9998437 0 22.9998437"></polygon>
        <polygon id="path-5" points="0.100781784 0.0459548033 17.9184831 0.0459548033 17.9184831 22.6844745 0.100781784 22.6844745"></polygon>
    </defs>
    <g id="Page-1" stroke="none" stroke-width="1" fill="none" fill-rule="evenodd">
        <g id="ABOUT-UNWRA-Copy" transform="translate(-838.000000, -1578.000000)">
            <g id="Group-4" transform="translate(730.000000, 1549.000000)">
                <g id="icon_enfants_small_clear" transform="translate(108.000000, 29.000000)">
                    <g id="Group-3" transform="translate(4.583333, 0.000000)">
                        <mask id="mask-2" fill="white">
                            <use xlink:href="#path-1"></use>
                        </mask>
                        <g id="Clip-2"></g>
                        <path d="M5.5242,10.63535 C2.64342222,10.6347389 0.2992,8.30212778 0.291235306,5.42807222 C0.283311111,2.58701667 2.61408889,0.226294444 5.41053333,0.190238889 C8.42942222,0.151738889 10.7504222,2.54546111 10.7528686,5.42685 C10.7553111,8.30090556 8.40314444,10.63535 5.5242,10.63535" id="Fill-1" fill="#2AABE2" mask="url(#mask-2)"></path>
                    </g>
                    <g id="Group-6" transform="translate(0.583333, 11.000000)">
                        <mask id="mask-4" fill="white">
                            <use xlink:href="#path-3"></use>
                        </mask>
                        <g id="Clip-5"></g>
                        <path d="M17.86878,9.98331149 C17.54538,7.88688596 16.98498,5.85975404 16.00098,3.96181362 C15.36558,2.73566894 14.56518,1.63401787 13.37478,0.851822128 C12.62418,0.358545532 11.80218,0.0989880851 10.91478,0.05612 C10.84158,0.0525965957 10.76778,0.0496604255 10.69398,0.0490731915 C10.56618,0.0572944681 10.43718,0.0872434043 10.30218,0.147141277 C9.44418,0.528843404 8.57358,0.528843404 7.70838,0.13598383 C7.58838,0.0813710638 7.44318,0.0490731915 7.30878,0.0490731915 L7.23078,0.0490731915 C6.24378,0.0525965957 5.33478,0.311566809 4.51158,0.852409362 C3.32118,1.63460511 2.52078,2.73625617 1.88538,3.96240085 C0.90138,5.86034128 0.34098,7.88747319 0.01758,9.98389872 C-0.09942,10.7408434 0.37158,11.3803413 1.15998,11.5095328 C1.83138,11.6175838 2.51478,11.0990562 2.63838,10.4014221 C2.65038,10.3327157 2.66298,10.2640094 2.67438,10.195303 C2.69298,10.0937115 2.71038,9.99212 2.72958,9.89052851 C2.80338,9.48181362 2.88258,9.07427319 2.98158,8.67143064 C3.33018,7.26030723 3.79278,5.88852851 4.54038,4.62421362 C4.55898,4.59367745 4.57758,4.56372851 4.59798,4.53436681 C4.63278,4.48092851 4.66998,4.42866468 4.70478,4.37522638 C4.72218,4.3857966 4.73958,4.39460511 4.75638,4.40458809 L4.75638,4.43806043 L4.75638,5.03997532 C4.75638,5.68945617 4.75578,6.33776255 4.75758,6.9872434 L4.75758,10.7496519 L4.75878,10.7496519 C4.75698,12.5142902 4.75518,14.2783413 4.75518,16.0429796 C4.80738,17.0911923 4.75218,18.1435157 4.77678,19.1940774 C4.81518,20.8442051 5.60838,22.1666562 6.91638,22.7133711 C7.06518,22.7750306 7.21998,22.8272945 7.38198,22.8684009 C8.02458,23.0334136 8.72958,22.9970051 9.40638,22.9952434 C10.00278,22.9934817 10.54038,22.9006987 11.00958,22.7239413 C12.19938,22.2782306 12.95178,21.300486 13.12458,19.9351668 C13.13058,16.8727413 13.12758,13.8114902 13.12518,10.7490647 L13.12638,10.7490647 L13.12638,6.98665617 C13.12698,6.85687745 13.12698,6.72651149 13.12698,6.59614553 C13.12818,6.14984766 13.12758,5.70413702 13.12758,5.25666468 L13.12758,4.40400085 C13.14498,4.39401787 13.16238,4.38520936 13.17918,4.37463915 C13.23438,4.45861362 13.29318,4.53847745 13.34418,4.62362638 C14.09178,5.88852851 14.55438,7.25972 14.90298,8.6708434 C15.02298,9.15766043 15.11358,9.65211149 15.20118,10.1459753 C15.21618,10.2317115 15.23118,10.3150987 15.24618,10.4008349 C15.36978,11.0978817 16.05378,11.6169966 16.72458,11.5089455 C17.51538,11.379754 17.98578,10.7402562 17.86878,9.98331149" id="Fill-4" fill="#2AABE2" mask="url(#mask-4)"></path>
                    </g>
                    <g id="Group-9" transform="translate(19.583333, 11.000000)">
                        <mask id="mask-6" fill="white">
                            <use xlink:href="#path-5"></use>
                        </mask>
                        <g id="Clip-8"></g>
                        <path d="M17.8973757,9.91624936 C17.6056662,8.04767064 17.1206696,6.23546638 16.3309196,4.51193447 C15.8014551,3.35684511 15.1391797,2.28690468 14.1881595,1.41486213 C13.206901,0.516981277 12.0578503,0.03956 10.7113622,0.0459548033 C10.1445446,0.0495429787 9.57713412,0.0489557447 9.00972365,0.0483685106 C8.44290608,0.0489557447 7.87549561,0.0495429787 7.30808514,0.0459548033 C5.96159696,0.03956 4.81195338,0.516394043 3.83128784,1.41486213 C2.87967466,2.28690468 2.21799223,3.35684511 1.6885277,4.51193447 C0.898184797,6.23546638 0.413188176,8.04767064 0.122071622,9.91624936 C-0.00362432432,10.7201728 0.435125676,11.3696536 1.23021182,11.5070664 C1.92568986,11.6274494 2.59982331,11.0954153 2.71247534,10.3331855 C2.76109358,10.00316 2.8180125,9.67665787 2.88441791,9.35250468 C3.11090777,8.23264936 3.44174899,7.13980681 3.87516284,6.07691319 C4.06845,5.60360255 4.30324054,5.14849617 4.5184652,4.68399404 C4.54514595,4.69280255 4.57241959,4.70278553 4.59910034,4.71100681 C3.74472365,8.31956 3.47791622,10.9462579 3.35222027,13.2288366 C3.31842466,13.8430834 3.29530135,14.4326664 3.27277095,15.0105047 L4.73131824,15.0105047 C4.81076757,15.77156 4.89377432,18.2584962 4.90859696,18.8774409 C4.93764932,20.152326 5.41197365,21.2316621 6.22128953,21.9081557 C6.24974899,21.9322323 6.27880135,21.9563089 6.30844662,21.9786238 C6.41279797,22.0602494 6.52367128,22.1354153 6.63810203,22.2035345 C6.71992297,22.2522749 6.80470845,22.2974919 6.89186554,22.3380111 C7.03831318,22.4084791 7.19128277,22.468377 7.35136723,22.515943 C7.39464932,22.5288621 7.43852432,22.5417813 7.48299223,22.5529387 C7.96917466,22.6780196 8.49152432,22.6874153 9.00972365,22.6838919 C9.52792297,22.6874153 10.0502726,22.6786068 10.5364551,22.5529387 C10.5803301,22.5417813 10.6242051,22.5288621 10.6680801,22.515943 C10.8281645,22.4677898 10.981727,22.4078919 11.1275818,22.3380111 C11.2147389,22.2974919 11.2989314,22.2522749 11.3813453,22.2035345 C11.4963689,22.1354153 11.6066493,22.0602494 11.7110007,21.9786238 C11.7406459,21.9563089 11.7696983,21.9322323 11.7981578,21.9081557 C12.6074736,21.2310749 13.081798,20.152326 13.1108503,18.8774409 C13.1250801,18.2584962 13.2086797,15.7709728 13.2881291,15.0105047 L14.7466764,15.0105047 C14.7247389,14.4326664 14.7010226,13.8430834 14.667227,13.2288366 C14.542124,10.9462579 14.2753166,8.32014723 13.420347,4.71100681 C13.4470277,4.7021983 13.4743014,4.69221532 13.5009821,4.68399404 C13.7167997,5.14790894 13.9515902,5.60360255 14.1442845,6.07691319 C14.5776983,7.13980681 14.9085395,8.23264936 15.1350294,9.35250468 C15.2014348,9.67724511 15.2589466,10.00316 15.306972,10.3331855 C15.4190311,11.0954153 16.0931645,11.6274494 16.7892355,11.5070664 C17.5843216,11.3702409 18.0230716,10.7201728 17.8973757,9.91624936" id="Fill-7" fill="#2AABE2" mask="url(#mask-6)"></path>
                    </g>
                    <path d="M33.5716357,5.45539083 C33.5009182,4.21330788 32.9807251,2.97013634 31.9727012,2.10633895 C30.8753814,1.16634015 29.1823567,0.972026557 27.7242579,1.00305142 C27.5264886,1.00740578 27.3383082,1.0182917 27.1603158,1.03353198 C24.572535,1.25233888 22.8333641,2.9358457 22.6116228,5.27033027 C22.5175326,6.26367005 22.6667585,7.23142793 22.9316494,8.18721131 C23.0886662,8.75327891 23.2948257,9.30737201 23.4746159,9.85711074 C23.8989209,9.5784313 24.2872678,9.32478947 24.6744161,9.06842616 C24.8008686,8.98460462 24.8961574,8.98242743 25.0381917,9.07604631 C26.9002193,10.3034333 29.244684,10.3083319 31.1127046,9.08856511 C31.27092,8.98514891 31.3823899,8.98406032 31.5256228,9.07985638 C31.9031823,9.3340425 32.2837383,9.58441856 32.6660922,9.83860468 C32.663695,9.84187046 32.681674,9.8233644 32.6900642,9.80268116 C33.2570028,8.40003096 33.657935,6.96907737 33.5716357,5.45539083" id="Fill-10" fill="#2AABE2"></path>
                </g>
            </g>
        </g>
    </g>
</svg>