<?xml version="1.0" encoding="UTF-8"?>
<svg width="37px" height="34px" viewBox="0 0 37 34" version="1.1" xmlns="http://www.w3.org/2000/svg" xmlns:xlink="http://www.w3.org/1999/xlink">
    <!-- Generator: sketchtool 61 (101010) - https://sketch.com -->
    <title>1354C840-3012-4DF2-8BE3-AE28CDFB7004</title>
    <desc>Created with sketchtool.</desc>
    <defs>
        <polygon id="path-1" points="0 0.0001 36.5889 0.0001 36.5889 34 0 34"></polygon>
    </defs>
    <g id="Page-1" stroke="none" stroke-width="1" fill="none" fill-rule="evenodd">
        <g id="ABOUT-UNWRA-Copy" transform="translate(-838.000000, -1710.000000)">
            <g id="Group-4" transform="translate(730.000000, 1549.000000)">
                <g id="icon_teacher" transform="translate(108.000000, 161.000000)">
                    <mask id="mask-2" fill="white">
                        <use xlink:href="#path-1"></use>
                    </mask>
                    <g id="Clip-2"></g>
                    <path d="M24.4879,6.6521 C24.4169,6.4401 24.1339,6.3691 23.9219,6.4401 L17.4819,8.7041 C16.8449,8.2801 15.9949,8.3511 15.4999,8.9171 L13.4479,11.3231 L11.6779,9.7661 L11.6779,10.1201 L11.6779,13.5171 L12.7399,14.3661 C13.3059,14.8611 14.2259,14.7911 14.7219,14.2241 L17.1279,11.3941 L19.1099,10.1911 L24.2759,7.2181 C24.4879,7.0771 24.5589,6.8641 24.4879,6.6521 M7.7159,7.2891 L6.5119,7.2891 C5.5219,7.2891 4.7429,7.7141 4.1769,8.4221 L0.4969,11.8891 C-0.1401,12.3841 -0.1401,13.3041 0.3559,13.8711 L3.3989,17.2671 C3.9649,17.8341 4.8139,17.9041 5.3799,17.3381 C6.0169,16.8431 6.0169,15.9231 5.5219,15.3571 L3.3989,13.0211 L6.4419,10.3321 L4.6729,12.7381 L6.3709,14.5781 C7.2909,15.6401 7.2199,17.2671 6.1589,18.1881 C5.4509,18.8241 4.4599,19.0371 3.6109,18.6831 L3.6109,32.2711 C3.6109,33.2611 4.3889,33.9691 5.3799,33.9691 C6.2999,33.9691 7.0789,33.2611 7.0789,32.2711 L7.0789,22.1511 L8.2109,22.1511 L8.2109,32.2711 C8.2109,32.7661 8.0699,33.2611 7.8569,33.6151 C8.1399,33.8981 8.4939,33.9691 8.8479,33.9691 C9.7679,33.9691 10.5469,33.2611 10.5469,32.2711 L10.5469,10.1201 C10.5469,8.5631 9.2729,7.2891 7.7159,7.2891 M7.0789,6.6521 C8.9189,6.6521 10.4049,5.0951 10.4049,3.3261 C10.4049,1.4861 8.9189,0.0001 7.0789,0.0001 C5.2379,0.0001 3.7529,1.4861 3.7529,3.3261 C3.7529,5.0951 5.3089,6.6521 7.0789,6.6521 M35.5279,0.2831 L14.9339,0.2831 C14.3679,0.2831 13.8719,0.7781 13.8719,1.3441 L13.8719,9.0581 L14.6509,8.1381 C15.0049,7.7141 15.4999,7.4311 16.0659,7.3601 L16.0659,2.4771 L34.3949,2.4771 L34.3949,20.9471 L16.0659,20.9471 L16.0659,14.3661 L15.5709,14.9321 C15.1459,15.4271 14.5089,15.7811 13.8719,15.8521 L13.8719,22.0801 C13.8719,22.6461 14.3679,23.1411 14.9339,23.1411 L20.8789,23.1411 L17.9059,32.6241 C17.7649,33.2611 18.1189,33.8271 18.7559,33.9691 C19.3209,34.1111 19.9589,33.7571 20.0999,33.1201 L23.2139,23.1411 L27.3189,23.1411 L30.4319,33.1201 C30.5739,33.7571 31.2109,34.1111 31.7769,33.9691 C32.4139,33.8271 32.8389,33.2611 32.6969,32.6241 L29.6539,23.1411 L35.5279,23.1411 C36.0939,23.1411 36.5889,22.6461 36.5889,22.0801 L36.5889,1.3441 C36.5889,0.7781 36.0939,0.2831 35.5279,0.2831" id="Fill-1" fill="#24AAE2" mask="url(#mask-2)"></path>
                </g>
            </g>
        </g>
    </g>
</svg>