<?xml version="1.0" encoding="UTF-8"?>
<svg width="25px" height="32px" viewBox="0 0 25 32" version="1.1" xmlns="http://www.w3.org/2000/svg" xmlns:xlink="http://www.w3.org/1999/xlink">
    <!-- Generator: sketchtool 62 (101010) - https://sketch.com -->
    <title>E8D8E6B3-1A7D-4796-AA66-D6836B483217</title>
    <desc>Created with sketchtool.</desc>
    <defs>
        <polygon id="path-1" points="0 0 24.968 0 24.968 31.9997701 0 31.9997701"></polygon>
    </defs>
    <g id="Page-1" stroke="none" stroke-width="1" fill="none" fill-rule="evenodd">
        <g id="THE-DIFFERENCE-YOU-MAKE" transform="translate(-1051.000000, -2282.000000)">
            <g id="Group-4" transform="translate(730.000000, 2252.000000)">
                <g id="icon_shake_hand" transform="translate(321.000000, 30.000000)">
                    <mask id="mask-2" fill="white">
                        <use xlink:href="#path-1"></use>
                    </mask>
                    <g id="Clip-2"></g>
                    <path d="M24.9393,29.9477 L23.4733,21.0827 C23.4753,21.0827 23.4733,10.4327 23.4733,10.4327 C23.4733,8.6067 21.8873,7.1267 20.0623,7.1267 C18.2353,7.1267 16.6813,8.6067 16.6813,10.4327 L16.6823,12.5167 L13.3333,12.5167 C14.2433,13.3017 14.1223,14.6157 13.3333,15.2957 L16.6823,15.2957 L16.6823,16.2177 L18.4433,14.8287 L18.2133,10.6197 C18.1593,9.6147 19.0083,8.7487 20.0143,8.6937 C20.9823,8.6937 21.8093,9.4527 21.8613,10.4207 L22.1423,15.5767 C22.1753,16.1697 21.9163,16.7427 21.4493,17.1107 L17.9293,19.8867 C17.6083,20.1397 17.0913,20.3247 16.6833,20.2757 L16.6833,20.9267 L15.1893,29.9477 C15.0163,30.8917 15.6413,31.7987 16.5853,31.9707 C17.5303,32.1447 18.4363,31.5197 18.6093,30.5747 L20.0643,21.7937 L21.5183,30.5747 C21.6913,31.5197 22.5983,32.1447 23.5423,31.9707 C24.4863,31.7987 25.1123,30.8917 24.9393,29.9477 L24.9393,29.9477 Z M15.7073,19.3127 C16.2423,19.9897 17.1333,19.9567 17.6583,19.5437 L21.1793,16.7667 C21.5343,16.4877 21.7313,16.0517 21.7053,15.6007 L21.4243,10.4447 C21.3843,9.7047 20.7333,9.1317 20.0013,9.1317 C19.2343,9.1727 18.6093,9.8297 18.6503,10.5957 L18.8923,15.0317 L15.9383,17.3617 C15.3353,17.8367 15.2323,18.7097 15.7073,19.3127 L15.7073,19.3127 Z M8.3093,21.0827 C8.3113,21.0827 8.3123,15.8277 8.3123,15.8277 L6.8743,15.8277 C6.2083,15.8277 5.7193,15.5947 5.3363,15.0497 L2.8023,11.3547 C2.1523,10.4297 2.3353,9.4397 3.1733,8.8047 C3.9733,8.1987 5.2003,8.2387 5.8503,9.1637 L7.9373,12.1907 L8.1433,12.1907 L8.1443,10.4327 C8.1443,8.6057 6.6643,7.1257 4.8383,7.1257 C3.0123,7.1257 1.5203,8.6057 1.5203,10.4327 L1.5223,20.9267 L0.0283,29.9477 C-0.1447,30.8917 0.4803,31.7977 1.4253,31.9707 C2.3693,32.1437 3.2753,31.5187 3.4493,30.5747 L4.9033,21.7937 L6.3573,30.5747 C6.5313,31.5187 7.4373,32.1437 8.3813,31.9707 C9.3263,31.7977 9.9513,30.8917 9.7783,29.9477 L8.3093,21.0827 Z M12.0353,12.5167 L7.5923,12.5167 L5.4273,9.4397 C4.9863,8.8127 4.1203,8.6617 3.4923,9.1037 C2.8653,9.5447 2.7143,10.4117 3.1553,11.0387 L5.7363,14.7057 C5.9963,15.0747 6.4193,15.2947 6.8723,15.2947 L12.0363,15.2947 C12.8033,15.2947 13.4243,14.6737 13.4243,13.9057 C13.4243,13.1387 12.8023,12.5167 12.0353,12.5167 L12.0353,12.5167 Z M20.0723,6.4627 C21.8573,6.4627 23.3043,5.0157 23.3043,3.2317 C23.3043,1.4467 21.8573,-0.0003 20.0723,-0.0003 C18.2883,-0.0003 16.8413,1.4467 16.8413,3.2317 C16.8413,5.0167 18.2883,6.4627 20.0723,6.4627 L20.0723,6.4627 Z M1.6363,3.2317 C1.6363,1.4467 3.0833,-0.0003 4.8683,-0.0003 C6.6523,-0.0003 8.0993,1.4467 8.0993,3.2317 C8.0993,5.0167 6.6523,6.4627 4.8683,6.4627 C3.0833,6.4627 1.6363,5.0167 1.6363,3.2317 L1.6363,3.2317 Z" id="Fill-1" fill="#24AAE2" mask="url(#mask-2)"></path>
                </g>
            </g>
        </g>
    </g>
</svg>