<?xml version="1.0" encoding="UTF-8"?>
<svg width="31px" height="32px" viewBox="0 0 31 32" version="1.1" xmlns="http://www.w3.org/2000/svg" xmlns:xlink="http://www.w3.org/1999/xlink">
    <!-- Generator: sketchtool 62 (101010) - https://sketch.com -->
    <title>F795A314-CCB3-4413-B73A-27FD5D5B9DD2</title>
    <desc>Created with sketchtool.</desc>
    <defs>
        <polygon id="path-1" points="0 0.0003 31.032 0.0003 31.032 32 0 32"></polygon>
    </defs>
    <g id="UNWRA---Desktop" stroke="none" stroke-width="1" fill="none" fill-rule="evenodd">
        <g id="THE-DIFFERENCE-YOU-MAKE" transform="translate(-1048.000000, -2415.000000)">
            <g id="Group-4" transform="translate(730.000000, 2252.000000)">
                <g id="icon_staff" transform="translate(318.000000, 163.000000)">
                    <mask id="mask-2" fill="white">
                        <use xlink:href="#path-1"></use>
                    </mask>
                    <g id="Clip-2"></g>
                    <path d="M17.8452,13.6963 L16.9972,13.6963 C16.8962,13.7073 16.8002,13.7493 16.7212,13.8153 L16.0792,14.3773 C15.7662,14.6433 15.3072,14.6433 14.9942,14.3773 L14.3522,13.8153 C14.2742,13.7493 14.1782,13.7083 14.0762,13.6963 L13.2022,13.6963 C12.0592,13.6963 11.1322,14.6233 11.1322,15.7673 C11.1322,15.8443 11.1362,15.9213 11.1452,15.9983 L11.7452,20.5253 C11.8212,21.1863 12.2632,21.7473 12.8882,21.9763 L13.9032,31.2873 C13.9492,31.6943 14.2932,32.0013 14.7022,32.0003024 L16.3072,32.0003024 C16.7152,31.9993 17.0582,31.6933 17.1032,31.2873 L18.1152,21.9953 C18.7602,21.7793 19.2222,21.2083 19.3002,20.5313 L19.9032,15.9983 C20.0292,14.8623 19.2102,13.8383 18.0732,13.7123 C17.9972,13.7033 17.9212,13.6993 17.8452,13.6993 L17.8452,13.6963 Z M15.5242,13.0543 C16.8752,13.0543 17.9702,11.9593 17.9702,10.6083 C17.9702,9.2573 16.8752,8.1613 15.5242,8.1613 C14.1732,8.1613 13.0772,9.2573 13.0772,10.6083 C13.0772,11.9593 14.1722,13.0553 15.5242,13.0573 L15.5242,13.0543 Z M15.5242,4.8933 C16.8752,4.8933 17.9702,3.7973 17.9702,2.4463 C17.9702,1.0953 16.8752,0.0003 15.5242,0.0003 C14.1732,0.0003 13.0772,1.0953 13.0772,2.4463 C13.0772,3.7973 14.1732,4.8933 15.5242,4.8933 L15.5242,4.8933 Z M23.3292,6.5273 C23.3292,5.1753 22.2342,4.0803 20.8832,4.0803 C19.5312,4.0803 18.4362,5.1753 18.4362,6.5273 C18.4362,7.8783 19.5312,8.9733 20.8832,8.9733 C22.2342,8.9733 23.3292,7.8783 23.3292,6.5273 L23.3292,6.5273 Z M12.6152,6.5273 C12.6152,5.1753 11.5202,4.0803 10.1692,4.0803 C8.8182,4.0803 7.7222,5.1753 7.7222,6.5273 C7.7222,7.8783 8.8182,8.9733 10.1692,8.9733 C11.5202,8.9733 12.6152,7.8783 12.6152,6.5273 L12.6152,6.5273 Z M29.5002,15.2403 C29.3132,14.4433 28.6572,13.8403 27.8462,13.7223 C27.6992,13.7013 27.5512,13.7443 27.4382,13.8413 L26.7962,14.3993 C26.4842,14.6663 26.0242,14.6663 25.7112,14.3993 L25.0692,13.8413 C24.9562,13.7443 24.8082,13.7013 24.6612,13.7223 C23.8512,13.8413 23.1972,14.4433 23.0112,15.2403 L21.4382,21.8323 C21.3542,22.2923 21.6602,22.7343 22.1202,22.8173 C22.1352,22.8203 22.1492,22.8223 22.1632,22.8243 C22.2712,22.8363 22.3812,22.8263 22.4852,22.7953 L21.7492,25.8583 C21.6942,26.1533 21.8882,26.4363 22.1832,26.4913 C22.2152,26.4973 22.2472,26.5003 22.2792,26.5003 L24.4522,26.5003 L24.8802,31.2713 C24.9262,31.6773 25.2702,31.9853 25.6792,31.9843024 L26.7742,31.9843024 C27.1832,31.9853 27.5282,31.6773 27.5742,31.2713 L28.0002,26.5003 L30.1742,26.5003 C30.4732,26.4983 30.7152,26.2543 30.7132,25.9543 C30.7132,25.9223 30.7102,25.8893 30.7032,25.8583 L29.9712,22.7953 C30.0752,22.8263 30.1852,22.8373 30.2932,22.8243 C30.7572,22.7643 31.0852,22.3393 31.0252,21.8753 C31.0232,21.8613 31.0212,21.8463 31.0182,21.8323 L29.5002,15.2403 Z M28.6872,10.6083 C28.6872,9.2573 27.5922,8.1613 26.2412,8.1613 C24.8902,8.1613 23.7942,9.2573 23.7942,10.6083 C23.7942,11.9593 24.8902,13.0543 26.2412,13.0543 C27.5922,13.0543 28.6872,11.9593 28.6872,10.6083 L28.6872,10.6083 Z M8.0692,15.2403 C7.8822,14.4433 7.2262,13.8403 6.4152,13.7223 C6.2692,13.7013 6.1202,13.7443 6.0082,13.8413 L5.3662,14.3993 C5.0532,14.6663 4.5932,14.6663 4.2812,14.3993 L3.6382,13.8413 C3.5262,13.7443 3.3772,13.7013 3.2312,13.7223 C2.4212,13.8413 1.7662,14.4433 1.5802,15.2403 L0.0132,21.8323 C-0.0698,22.2923 0.2362,22.7343 0.6962,22.8173 C0.7102,22.8203 0.7252,22.8223 0.7392,22.8243 C0.8472,22.8363 0.9562,22.8263 1.0602,22.7953 L0.3352,25.8583 C0.2802,26.1533 0.4742,26.4363 0.7682,26.4913 C0.8002,26.4973 0.8322,26.5003 0.8652,26.5003 L3.0382,26.5003 L3.4652,31.2713 C3.5112,31.6763 3.8532,31.9833 4.2612,31.9843 L5.3562,31.9843 C5.7642,31.9833 6.1072,31.6763 6.1522,31.2713 L6.5792,26.5003 L8.7532,26.5003 C9.0532,26.4983 9.2942,26.2543 9.2922,25.9543 C9.2912,25.9223 9.2882,25.8893 9.2822,25.8583 L8.5512,22.7953 C8.6552,22.8263 8.7642,22.8363 8.8712,22.8243 C9.3362,22.7643 9.6642,22.3393 9.6042,21.8753 C9.6022,21.8613 9.6002,21.8463 9.5972,21.8323 L8.0692,15.2403 Z M4.8102,13.0573 C3.4592,13.0573 2.3642,11.9623 2.3642,10.6113 C2.3642,9.2593 3.4592,8.1643 4.8102,8.1643 C6.1612,8.1643 7.2572,9.2593 7.2572,10.6113 C7.2572,11.9623 6.1612,13.0573 4.8102,13.0573 L4.8102,13.0573 Z" id="Fill-1" fill="#24AAE2" mask="url(#mask-2)"></path>
                </g>
            </g>
        </g>
    </g>
</svg>