<?xml version="1.0" encoding="UTF-8"?>
<svg width="39px" height="32px" viewBox="0 0 39 32" version="1.1" xmlns="http://www.w3.org/2000/svg" xmlns:xlink="http://www.w3.org/1999/xlink">
    <!-- Generator: sketchtool 62 (101010) - https://sketch.com -->
    <title>79182941-2B27-467C-941B-CE0BAC1919D7</title>
    <desc>Created with sketchtool.</desc>
    <g id="UNWRA---Desktop" stroke="none" stroke-width="1" fill="none" fill-rule="evenodd">
        <g id="THE-DIFFERENCE-YOU-MAKE" transform="translate(-564.000000, -2770.000000)" fill="#24AAE2">
            <g id="Group-4" transform="translate(246.000000, 2608.000000)">
                <g id="icon_house-1" transform="translate(318.000000, 162.000000)">
                    <path d="M18.184,19.518 L20.314,19.518 L20.314,17.388 L18.184,17.388 L18.184,19.518 Z M18.184,12.876 L20.314,12.876 L20.314,10.746 L18.184,10.746 L18.184,12.876 Z M13.077,19.518 L15.208,19.518 L15.208,17.388 L13.077,17.388 L13.077,19.518 Z M13.077,12.876 L15.208,12.876 L15.208,10.746 L13.077,10.746 L13.077,12.876 Z M13.077,6.235 L15.208,6.235 L15.208,4.105 L13.077,4.105 L13.077,6.235 Z M23.291,19.518 L25.421,19.518 L25.421,17.388 L23.291,17.388 L23.291,19.518 Z M23.291,12.876 L25.421,12.876 L25.421,10.746 L23.291,10.746 L23.291,12.876 Z M18.183,6.234 L20.314,6.234 L20.314,4.104 L18.183,4.104 L18.183,6.234 Z M23.291,6.234 L25.421,6.234 L25.421,4.104 L23.291,4.104 L23.291,6.234 Z M29.125,3.9 L29.125,0.602 C29.125,0.269 28.856,0 28.523,0 L10.138,0 C9.806,0 9.537,0.269 9.537,0.602 L9.537,6.129 L9.537,7.332 L9.537,26 L9.537,27.203 L9.537,31.68 C9.537,31.798 9.57,31.907 9.629,32 L16.825,32 L16.825,25.192 L21.838,25.192 L21.838,32 L29.033,32 C29.091,31.907 29.126,31.798 29.126,31.68 L29.126,27.203 L29.126,26 L29.126,5.103 L29.126,3.9 L29.125,3.9 Z" id="Fill-1"></path>
                    <path d="M32.145,22.974 L34.275,22.974 L34.275,20.844 L32.145,20.844 L32.145,22.974 Z M32.145,16.616 L34.275,16.616 L34.275,14.486 L32.145,14.486 L32.145,16.616 Z M32.145,10.258 L34.275,10.258 L34.275,8.128 L32.145,8.128 L32.145,10.258 Z M38.498,26.601 L38.498,4.502 C38.498,4.17 38.228,3.9 37.896,3.9 L29.726,3.9 L29.726,27.203 L37.896,27.203 C38.228,27.203 38.498,26.933 38.498,26.601 L38.498,26.601 Z" id="Fill-3"></path>
                    <path d="M4.304,17.731 L6.435,17.731 L6.435,15.601 L4.304,15.601 L4.304,17.731 Z M4.304,24.089 L6.435,24.089 L6.435,21.959 L4.304,21.959 L4.304,24.089 Z M8.935,6.129 L0.601,6.129 C0.269,6.129 0,6.398 0,6.73 L0,26.601 C0,26.933 0.269,27.203 0.601,27.203 L8.935,27.203 L8.935,6.129 Z M4.304,11.372 L6.435,11.372 L6.435,9.242 L4.304,9.242 L4.304,11.372 Z" id="Fill-4"></path>
                </g>
            </g>
        </g>
    </g>
</svg>