<?xml version="1.0" encoding="UTF-8"?>
<svg width="45px" height="30px" viewBox="0 0 45 30" version="1.1" xmlns="http://www.w3.org/2000/svg" xmlns:xlink="http://www.w3.org/1999/xlink">
    <!-- Generator: sketchtool 62 (101010) - https://sketch.com -->
    <title>DDEBF30B-0401-40E7-A4E8-2F63B18F1556</title>
    <desc>Created with sketchtool.</desc>
    <defs>
        <polygon id="path-1" points="8.82352941e-05 0 44.3620588 0 44.3620588 29.9997353 8.82352941e-05 29.9997353"></polygon>
    </defs>
    <g id="UNWRA---Desktop" stroke="none" stroke-width="1" fill="none" fill-rule="evenodd">
        <g id="THE-DIFFERENCE-YOU-MAKE" transform="translate(-1041.000000, -1712.000000)">
            <g id="Group-4" transform="translate(730.000000, 1549.000000)">
                <g id="icon_money_small" transform="translate(311.000000, 163.000000)">
                    <mask id="mask-2" fill="white">
                        <use xlink:href="#path-1"></use>
                    </mask>
                    <g id="Clip-2"></g>
                    <path d="M44.3524412,21.8662059 C44.3471471,24.1029706 37.1206765,25.9241471 28.2036176,25.9241471 C26.4715588,25.9241471 24.8021471,25.8632647 23.2518529,25.7326765 C22.4727353,26.8762059 21.5039118,27.8917941 20.4256765,28.7415 C23.3665588,29.1200294 26.2289118,29.1976765 28.2036176,29.1976765 C32.2377353,29.1976765 39.9733235,28.8526765 44.3524412,26.4526765 L44.3524412,21.8662059 Z M44.3524412,16.6867941 C44.3471471,18.9182647 37.1206765,20.7535588 28.2036176,20.7535588 C27.2374412,20.7535588 26.3012647,20.7323824 25.3862647,20.6812059 C25.1762647,21.8247353 24.8003824,22.9047353 24.3097941,23.9176765 C25.7806765,23.9970882 27.1253824,24.0182647 28.2036176,24.0182647 C32.2377353,24.0182647 39.9733235,23.6776765 44.3524412,21.2732647 L44.3524412,16.6867941 Z M44.3524412,11.5259118 C44.3471471,13.7573824 37.1206765,15.5926765 28.2036176,15.5926765 C27.2559706,15.5926765 26.3374412,15.5803235 25.4409706,15.5291471 C25.5900882,16.3320882 25.6686176,17.1456176 25.6686176,17.9909118 C25.6686176,18.2706176 25.6739118,18.5317941 25.6412647,18.8115 C26.6074412,18.8494412 27.4703824,18.8573824 28.2036176,18.8573824 C32.2377353,18.8573824 39.9733235,18.5167941 44.3524412,16.1123824 L44.3524412,11.5259118 Z M10.8053824,10.1397353 L10.8053824,12.0094412 C8.70008824,12.4012059 7.47714706,13.7644412 7.47714706,15.5194412 C7.47714706,17.4288529 8.91891176,18.4162059 11.0242059,19.1220882 C12.5039118,19.6117941 13.1303824,20.0891471 13.1303824,20.8356176 C13.1303824,21.6059118 12.3645,22.0576765 11.2253824,22.0576765 C9.94508824,22.0576765 8.78214706,21.6447353 7.95097059,21.1912059 L7.35891176,23.4985588 C8.10979412,23.9141471 9.39273529,24.2856176 10.7145,24.3465 L10.7145,26.2162059 L12.6653824,26.2162059 L12.6653824,24.1823824 C14.9295,23.8091471 16.1489118,22.3179706 16.1489118,20.5620882 C16.1436176,18.7744412 15.2189118,17.6917941 12.8753824,16.8606176 C11.1803824,16.2482647 10.4956765,15.8176765 10.4956765,15.1920882 C10.4956765,14.6406176 10.9077353,14.0697353 12.1915588,14.0697353 C13.6103824,14.0697353 14.5324412,14.5206176 15.0274412,14.7535588 L15.6106765,12.5282647 C14.9197941,12.2159118 14.0409706,11.9141471 12.7386176,11.8726765 L12.7386176,10.1397353 L10.8053824,10.1397353 Z M12.0177353,7.59591176 C17.7468529,7.59591176 22.4039118,12.2573824 22.4039118,17.9909118 C22.4039118,23.7191471 17.7468529,28.3770882 12.0177353,28.3770882 C6.2895,28.3770882 1.63155882,23.7191471 1.63155882,17.9909118 C1.63155882,12.2573824 6.2895,7.59591176 12.0177353,7.59591176 L12.0177353,7.59591176 Z M44.3621471,6.37385294 C44.3524412,8.61061765 37.1206765,10.4317941 28.2036176,10.4317941 C26.4715588,10.4317941 24.7977353,10.3665 23.2342059,10.2403235 C23.9533235,11.2673824 24.5462647,12.4038529 24.9574412,13.6320882 C26.1803824,13.6832647 27.2886176,13.6965 28.2036176,13.6965 C32.2377353,13.6965 39.9821471,13.3559118 44.3621471,10.9515 L44.3621471,6.37385294 Z M12.0177353,5.97238235 C5.39302941,5.97238235 8.82352941e-05,11.3609118 8.82352941e-05,17.9909118 C8.82352941e-05,24.6156176 5.38861765,29.9997353 12.0177353,29.9997353 C18.6477353,29.9997353 24.0450882,24.6156176 24.0450882,17.9909118 C24.0450882,11.3609118 18.6477353,5.97238235 12.0177353,5.97238235 L12.0177353,5.97238235 Z M28.1577353,-0.000264705882 C19.2406765,-0.000264705882 12.0177353,1.81208824 12.0177353,4.04885294 C12.0177353,4.14679412 12.0265588,4.24208824 12.0636176,4.34002941 C15.4580294,4.35414706 18.5780294,5.61414706 20.9639118,7.68679412 C23.1345,7.96738235 25.5759706,8.11561765 28.1577353,8.11561765 C37.0747941,8.11561765 44.3065588,6.28473529 44.3065588,4.04885294 C44.3065588,1.81208824 37.0703824,-0.000264705882 28.1577353,-0.000264705882 L28.1577353,-0.000264705882 Z" id="Fill-1" fill="#24AAE2" mask="url(#mask-2)"></path>
                </g>
            </g>
        </g>
    </g>
</svg>