<?xml version="1.0" encoding="UTF-8"?>
<svg width="60px" height="33px" viewBox="0 0 60 33" version="1.1" xmlns="http://www.w3.org/2000/svg" xmlns:xlink="http://www.w3.org/1999/xlink">
    <!-- Generator: Sketch 55 (78076) - https://sketchapp.com -->
    <title>icon_start</title>
    <desc>Created with Sketch.</desc>
    <defs>
        <polygon id="path-1" points="0 0.590606061 7.75872727 0.590606061 7.75872727 8.86878788 0 8.86878788"></polygon>
        <polygon id="path-3" points="0.161335693 0.083030303 51.5987879 0.083030303 51.5987879 31.5151515 0.161335693 31.5151515"></polygon>
    </defs>
    <g id="Site-Web---Desktop" stroke="none" stroke-width="1" fill="none" fill-rule="evenodd">
        <g id="FUNDRAISING-TIPS" transform="translate(-419.000000, -529.000000)">
            <g id="Group" transform="translate(419.000000, 444.000000)">
                <g id="icon_start" transform="translate(0.000000, 85.000000)">
                    <path d="M52.3790909,14.539697 C55.0990909,14.9306061 57.619697,13.0360606 58.0075758,10.3172727 C58.3990909,7.60818182 56.5051515,5.08636364 53.7760606,4.69727273 C51.0536364,4.31848485 48.5384848,6.21121212 48.1493939,8.92212121 C47.7706061,11.6390909 49.6627273,14.1621212 52.3790909,14.539697" id="Fill-1" fill="#0072BC"></path>
                    <g id="Group-5" transform="translate(0.000000, 22.947455)">
                        <mask id="mask-2" fill="white">
                            <use xlink:href="#path-1"></use>
                        </mask>
                        <g id="Clip-4"></g>
                        <polygon id="Fill-3" fill="#0072BC" mask="url(#mask-2)" points="7.75872727 8.86878788 -6.06060606e-05 0.590606061 -6.06060606e-05 8.86878788"></polygon>
                    </g>
                    <g id="Group-8" transform="translate(7.878788, 0.523212)">
                        <mask id="mask-4" fill="white">
                            <use xlink:href="#path-3"></use>
                        </mask>
                        <g id="Clip-7"></g>
                        <path d="M18.9175758,30.2448485 L30.4533333,20.3478788 C31.3345455,19.5642424 31.6781818,18.5557576 31.0606061,17.3569697 L27.3412121,9.88363636 C27.6890909,9.97272727 28.0424242,10.0775758 28.3969697,10.2133333 C30.9963636,11.2109091 33.4921212,13.1424242 34.1575758,13.7466667 L34.1672727,13.749697 L34.1666667,28.2193939 C34.1666667,29.0575758 34.5848485,29.7969697 35.2224242,30.2454545 L18.9175758,30.2448485 Z M38.0684848,30.2460606 C38.7060606,29.7975758 39.1260606,29.0581818 39.1260606,28.22 C39.1260606,28.22 39.129697,11.2230303 39.1290909,11.2145455 C39.1551515,10.1387879 38.9612121,8.8830303 38.3181818,7.51272727 C37.7187879,6.22787879 36.38,4.08666667 32.0739394,1.93515152 C26.3763636,-0.914545455 20.9945455,0.286060606 19.7418182,0.616363636 C18.0757576,1.00727273 15.0818182,2.73636364 15.0818182,6.06181818 L15.0624242,18.8981818 L1.41878788,26.650303 C0.225454545,27.3278788 -0.191515152,28.8436364 0.486060606,30.0363636 C0.943636364,30.8418182 1.7830303,31.2927273 2.64787879,31.2927273 C3.06363636,31.2927273 3.48484848,31.1884848 3.87151515,30.9684848 L19.48,22.1 C20.1618182,21.7121212 20.62,21.0266667 20.7175758,20.2490909 L21.5193939,13.8369697 L24.6266667,17.4072727 L15.4242424,26.7084848 C15.3872727,26.7454545 13.88,28.2975758 15.3048485,30.0721212 C15.3569697,30.1363636 15.4115152,30.1884848 15.4654545,30.2448485 L9.73757576,30.2448485 L9.73757576,31.5151515 L51.5987879,31.5151515 L51.5987879,30.2448485 L38.0684848,30.2460606 Z" id="Fill-6" fill="#0072BC" mask="url(#mask-4)"></path>
                    </g>
                </g>
            </g>
        </g>
    </g>
</svg>