<?xml version="1.0" encoding="UTF-8"?>
<svg width="31px" height="30px" viewBox="0 0 31 30" version="1.1" xmlns="http://www.w3.org/2000/svg" xmlns:xlink="http://www.w3.org/1999/xlink">
    <!-- Generator: Sketch 55 (78076) - https://sketchapp.com -->
    <title>Instagram-color</title>
    <desc>Created with Sketch.</desc>
    <g id="Emails" stroke="none" stroke-width="1" fill="none" fill-rule="evenodd">
        <g id="Email-1---Create-an-individual-fundraising-page" transform="translate(-585.000000, -662.000000)" fill="#0072BC">
            <g id="RS" transform="translate(467.000000, 662.000000)">
                <path d="M133.820174,0 C137.903668,0 138.415709,0.0172673522 140.019456,0.0902665722 C141.619859,0.163087164 142.712878,0.416679071 143.669276,0.787510346 C144.658024,1.17078602 145.496544,1.68368592 146.332498,2.51757995 C147.168392,3.35153352 147.682521,4.18804742 148.066776,5.17443003 C148.438437,6.12854055 148.692637,7.21894407 148.765632,8.81551918 C148.838806,10.4154287 148.856115,10.9262446 148.856115,15.0000298 C148.856115,19.0737554 148.838806,19.5845713 148.765632,21.1844808 C148.692637,22.7810559 148.438437,23.8714594 148.066776,24.82557 C147.682521,25.8119526 147.168392,26.6484665 146.332498,27.48242 C145.496544,28.3163141 144.658024,28.829214 143.669276,29.2125492 C142.712878,29.5833209 141.619859,29.8369128 140.019456,29.9097334 C138.415709,29.9827326 137.903668,30 133.820174,30 C129.736619,30 129.224578,29.9827326 127.620832,29.9097334 C126.020428,29.8369128 124.92741,29.5833209 123.971011,29.2125492 C122.982263,28.829214 122.143743,28.3163141 121.30779,27.48242 C120.471896,26.6484665 119.957766,25.8119526 119.573572,24.82557 C119.201851,23.8714594 118.947651,22.7810559 118.874656,21.1844808 C118.801481,19.5845713 118.784173,19.0737554 118.784173,15.0000298 C118.784173,10.9262446 118.801481,10.4154287 118.874656,8.81551918 C118.947651,7.21894407 119.201851,6.12854055 119.573572,5.17443003 C119.957766,4.18804742 120.471896,3.35153352 121.30779,2.51757995 C122.143743,1.68368592 122.982263,1.17078602 123.971011,0.787510346 C124.92741,0.416679071 126.020428,0.163087164 127.620832,0.0902665722 C129.224578,0.0172673522 129.736619,0 133.820174,0 Z M133.820174,2.70269787 C129.805377,2.70269787 129.329804,2.71800032 127.744321,2.79016595 C126.278329,2.85685365 125.482186,3.10121646 124.952358,3.3066384 C124.250518,3.57874806 123.749638,3.90379108 123.223512,4.42871858 C122.697325,4.95358655 122.371503,5.453268 122.098741,6.15342936 C121.892826,6.68198896 121.647877,7.47622762 121.58103,8.93871281 C121.508691,10.5204023 121.493352,10.9948377 121.493352,15.0000298 C121.493352,19.0051623 121.508691,19.4795977 121.58103,21.0612872 C121.647877,22.5237724 121.892826,23.318011 122.098741,23.8465706 C122.371503,24.546732 122.697385,25.0464135 123.223512,25.5712814 C123.749638,26.0962089 124.250518,26.4212519 124.952358,26.6933616 C125.482186,26.8987835 126.278329,27.1431463 127.744321,27.2098341 C129.329625,27.2819997 129.805078,27.2973021 133.820174,27.2973021 C137.835209,27.2973021 138.310723,27.2819997 139.895967,27.2098341 C141.361959,27.1431463 142.158102,26.8987835 142.687929,26.6933616 C143.38977,26.4212519 143.890649,26.0962089 144.416776,25.5712814 C144.942962,25.0464135 145.268785,24.546732 145.541547,23.8465706 C145.747462,23.318011 145.99241,22.5237724 146.059258,21.0612872 C146.131597,19.4795977 146.146936,19.0051623 146.146936,15.0000298 C146.146936,10.9948377 146.131597,10.5204023 146.059258,8.93871281 C145.99241,7.47622762 145.747462,6.68198896 145.541547,6.15342936 C145.268785,5.453268 144.942962,4.95358655 144.416776,4.42871858 C143.890649,3.90379108 143.38977,3.57874806 142.687929,3.3066384 C142.158102,3.10121646 141.361959,2.85685365 139.895967,2.79016595 C138.310484,2.71800032 137.834911,2.70269787 133.820174,2.70269787 Z M133.820174,7.29730213 C138.084456,7.29730213 141.541313,10.7458901 141.541313,15.0000298 C141.541313,19.2541099 138.084456,22.7026979 133.820174,22.7026979 C129.555832,22.7026979 126.098974,19.2541099 126.098974,15.0000298 C126.098974,10.7458901 129.555832,7.29730213 133.820174,7.29730213 Z M133.820174,20 C136.588203,20 138.832134,17.7614366 138.832134,15.0000298 C138.832134,12.2385634 136.588203,10 133.820174,10 C131.052085,10 128.808153,12.2385634 128.808153,15.0000298 C128.808153,17.7614366 131.052085,20 133.820174,20 Z M143.650714,6.99297993 C143.650714,7.98710307 142.842873,8.79295254 141.846365,8.79295254 C140.849918,8.79295254 140.042076,7.98710307 140.042076,6.99297993 C140.042076,5.99885678 140.849918,5.19294778 141.846365,5.19294778 C142.842873,5.19294778 143.650714,5.99885678 143.650714,6.99297993 Z" id="Instagram"></path>
            </g>
        </g>
    </g>
</svg>