<?xml version="1.0" encoding="UTF-8"?>
<svg width="162px" height="40px" viewBox="0 0 162 40" version="1.1" xmlns="http://www.w3.org/2000/svg" xmlns:xlink="http://www.w3.org/1999/xlink">
    <!-- Generator: Sketch 55 (78076) - https://sketchapp.com -->
    <title>logo_unhcr_white</title>
    <desc>Created with Sketch.</desc>
    <defs>
        <polygon id="path-1" points="0.705362262 0.506428571 11.9924097 0.506428571 11.9924097 26.7566078 0.705362262 26.7566078"></polygon>
        <polygon id="path-3" points="0.650370254 0.506428571 11.9476809 0.506428571 11.9476809 26.7566078 0.650370254 26.7566078"></polygon>
        <polygon id="path-5" points="0 0.315642857 5.29005308 0.315642857 5.29005308 8.05778571 0 8.05778571"></polygon>
        <polygon id="path-7" points="0.451785714 0.120357143 5.68214286 0.120357143 5.68214286 7.00392857 0.451785714 7.00392857"></polygon>
    </defs>
    <g id="Emails" stroke="none" stroke-width="1" fill="none" fill-rule="evenodd">
        <g id="Email-1---Create-an-individual-fundraising-page" transform="translate(-143.000000, -53.000000)">
            <g id="logo_unhcr_white" transform="translate(143.000000, 53.000000)">
                <path d="M23.5922857,26.9520714 C24.0494286,26.9520714 23.9901429,26.6927857 23.9901429,26.2077857 L23.9901429,23.8485 C23.9901429,23.3620714 23.9458571,23.2077857 24.223,23.2077857 C25.1922857,23.2077857 25.4572857,23.1177857 25.4572857,22.2549286 L25.4572857,13.4913571 C25.4572857,11.1042143 23.7722857,11.4999286 23.2987143,10.6277857 C22.623,9.4485 24.5594286,9.4485 23.8551429,6.89421429 C23.6765714,6.31421429 23.223,5.95707143 22.3487143,5.95707143 C21.473,5.95707143 21.018,6.31421429 20.8408571,6.89421429 C20.1387143,9.4485 22.0772857,9.4485 21.4015714,10.6277857 C20.9244286,11.4999286 19.2422857,11.1042143 19.2422857,13.4913571 L19.2422857,22.2549286 C19.2422857,23.1177857 19.503,23.2077857 20.4765714,23.2077857 C20.7487143,23.2077857 20.7065714,23.3620714 20.7065714,23.8485 L20.7065714,26.2077857 C20.7065714,26.6927857 20.648,26.9520714 21.1072857,26.9520714 L23.5922857,26.9520714" id="Fill-1" fill="#FFFFFF"></path>
                <g id="Group-5" transform="translate(10.000000, 0.208143)">
                    <mask id="mask-2" fill="white">
                        <use xlink:href="#path-1"></use>
                    </mask>
                    <g id="Clip-4"></g>
                    <path d="M5.92071429,7.7355 C5.05857143,8.65264286 3.69714286,10.7940714 4.58642857,12.5719286 C6.39357143,13.2676429 6.255,6.8455 8.50857143,6.9555 C9.62142857,7.9855 8.175,11.0162143 7.72785714,12.3483571 C7.17214286,13.9933571 6.72857143,17.4383571 5.67142857,19.1047857 C4.78428571,20.4969286 5.44928571,24.8626429 5.17,26.3640714 C4.42214286,27.1140714 2.39,26.5840714 1.52857143,26.4440714 C1.52857143,24.7219286 1.30357143,23.3605 1.02857143,20.6069286 C1.00142857,20.0519286 0.416428571,11.5440714 0.889285714,10.5147857 C1.86285714,8.37264286 7.17214286,4.28764286 7.89857143,3.50764286 C8.53428571,2.81335714 10.7864286,0.506214286 11.6492857,0.506214286 C12.2585714,0.924071429 11.8985714,1.89621429 11.7614286,2.2855 C10.8992857,4.42692857 7.17214286,6.53907143 5.92071429,7.7355" id="Fill-3" fill="#FFFFFF" mask="url(#mask-2)"></path>
                </g>
                <g id="Group-8" transform="translate(22.142857, 0.208143)">
                    <mask id="mask-4" fill="white">
                        <use xlink:href="#path-3"></use>
                    </mask>
                    <g id="Clip-7"></g>
                    <path d="M6.734,7.7355 C7.56614286,8.65264286 8.93114286,10.7940714 8.06685714,12.5719286 C6.23257143,13.2676429 6.37328571,6.8455 4.11828571,6.9555 C3.03685714,7.9855 4.48042857,11.0162143 4.92614286,12.3483571 C5.48257143,13.9933571 5.92828571,17.4383571 6.98114286,19.1047857 C7.84614286,20.4969286 7.20328571,24.8626429 7.454,26.3640714 C8.23471429,27.1140714 10.2347143,26.5840714 11.1247143,26.4440714 C11.1247143,24.7219286 11.3204286,23.3605 11.5975714,20.6069286 C11.6525714,20.0519286 12.2368571,11.5440714 11.7647143,10.5147857 C10.7925714,8.37264286 5.48257143,4.28764286 4.75971429,3.50764286 C4.094,2.81335714 1.86685714,0.506214286 1.004,0.506214286 C0.368285714,0.924071429 0.756142857,1.89621429 0.894714286,2.2855 C1.75757143,4.42692857 5.48257143,6.53907143 6.734,7.7355" id="Fill-6" fill="#FFFFFF" mask="url(#mask-4)"></path>
                </g>
                <path d="M8.19814286,5.06 C7.72528571,5.50714286 6.66385714,5.81214286 5.941,6.78357143 C5.66314286,6.25714286 6.386,4.97714286 7.25028571,4.225 C7.88957143,3.69285714 9.14528571,2.83071429 9.50385714,2.74857143 C9.78385714,3.38857143 8.78242857,4.365 8.19814286,5.06" id="Fill-9" fill="#FFFFFF"></path>
                <path d="M6.72042857,8.5435 C5.91471429,9.29207143 5.05185714,9.60064286 3.93471429,10.9670714 C3.46185714,9.32135714 3.574,7.87278571 3.79471429,6.89707143 C4.18685714,5.61778571 4.82614286,4.19492857 5.91471429,3.75064286 C5.69114286,4.47564286 5.32614286,5.47707143 5.244,6.8435 C4.77257143,8.71064286 4.49114286,8.76564286 4.604,9.01635714 C4.71328571,9.01635714 5.32614286,8.04064286 6.07971429,7.28921429 C6.97257143,6.39921429 8.084,6.20207143 8.80828571,5.67421429 C8.69971429,6.03492857 8.05971429,7.17635714 6.72042857,8.5435" id="Fill-11" fill="#FFFFFF"></path>
                <path d="M2.79535714,16.2597143 C1.70821429,14.309 1.59607143,12.8882857 1.51107143,11.2425714 C1.56821429,10.1025714 2.12535714,7.45685714 2.96035714,7.06757143 C2.70964286,9.46114286 3.35321429,9.684 3.09964286,11.6618571 C3.09964286,11.7725714 2.81964286,13.8354286 2.81964286,13.9461429 C3.15464286,13.8911429 2.84964286,12.0504286 6.66321429,9.40542857 C5.83178571,10.854 6.21821429,11.2997143 4.71321429,13.2232857 C2.96035714,14.9504286 2.70964286,16.6468571 2.79535714,16.2597143" id="Fill-13" fill="#FFFFFF"></path>
                <g id="Group-17" transform="translate(0.000000, 12.351000)">
                    <mask id="mask-6" fill="white">
                        <use xlink:href="#path-5"></use>
                    </mask>
                    <g id="Clip-16"></g>
                    <path d="M4.32678571,5.7485 C3.51678571,6.91778571 3.65607143,7.50207143 3.46178571,8.05778571 C1.53678571,6.94492857 -0.633214286,2.51707143 0.1725,0.315642857 C0.676071429,1.98564286 1.37107143,2.34778571 1.87321429,3.74135714 C2.7375,5.83064286 2.60035714,6.46992857 3.15464286,6.94492857 C3.0425,5.8585 3.40464286,4.57635714 3.77035714,3.62921429 C4.29964286,2.82135714 4.71321429,1.76278571 5.10678571,1.39992857 C5.52321429,2.93492857 5.21607143,4.18707143 4.32678571,5.7485" id="Fill-15" fill="#FFFFFF" mask="url(#mask-6)"></path>
                </g>
                <path d="M6.05392857,21.8872143 C6.05392857,23.5857857 5.74535714,24.3393571 5.60678571,25.5915 C2.29107143,24.5057857 0.563214286,20.7172143 0.563214286,18.8515 C1.56821429,21.1343571 3.04321429,21.1057857 4.96892857,24.3393571 C5.13464286,23.1115 4.63178571,24.0307857 4.5775,21.7207857 C4.63178571,19.2965 5.13464286,19.2107857 5.21607143,17.7086429 C5.83178571,18.3757857 6.05392857,21.0522143 6.05392857,21.8872143" id="Fill-18" fill="#FFFFFF"></path>
                <path d="M8.80885714,26.7044286 C9.06171429,27.958 9.171,29.4358571 9.36814286,30.523 C7.47528571,29.8265714 6.99814286,30.3551429 4.74457143,28.9337143 C3.71171429,28.3758571 1.87385714,26.038 1.98885714,24.3637143 C4.21528571,26.8444286 4.60457143,26.5672857 5.69171429,27.4844286 C6.69385714,28.2937143 7.50028571,29.4915714 8.22814286,29.3258571 C8.281,28.6565714 6.58314286,27.2065714 6.80457143,23.0294286 C7.25028571,23.5008571 8.47528571,25.3951429 8.80885714,26.7044286" id="Fill-20" fill="#FFFFFF"></path>
                <path d="M12.5707143,29.8266429 C13.155,30.6609286 13.0178571,31.0230714 14.5228571,32.7495 C14.1571429,32.9166429 12.0157143,33.4745 10.5907143,33.5316429 C9.64785714,33.5316429 6.30357143,32.6395 5.19071429,30.3552143 C7.11142857,31.3852143 7.14071429,31.1352143 9.70142857,31.6923571 C11.5414286,32.1102143 12.85,32.6945 13.3521429,32.6395 C13.2407143,32.3895 11.8221429,31.8030714 10.8457143,30.5780714 C9.86857143,29.2687857 10.0921429,27.7923571 9.22642857,26.7045 C9.81357143,26.5373571 12.0971429,29.2137857 12.5707143,29.8266429" id="Fill-22" fill="#FFFFFF"></path>
                <path d="M36.4431429,5.06 C36.8888571,5.50714286 37.976,5.81214286 38.6724286,6.78357143 C38.9781429,6.25714286 38.2288571,4.97714286 37.3631429,4.225 C36.7545714,3.69285714 35.4974286,2.83071429 35.1045714,2.74857143 C34.8274286,3.38857143 35.8295714,4.365 36.4431429,5.06" id="Fill-24" fill="#FFFFFF"></path>
                <path d="M37.9205714,8.5435 C38.7005714,9.29207143 39.5655714,9.60064286 40.6762857,10.9670714 C41.152,9.32135714 41.0391429,7.87278571 40.8205714,6.89707143 C40.4584286,5.61778571 39.7877143,4.19492857 38.7005714,3.75064286 C38.9534286,4.47564286 39.2862857,5.47707143 39.3698571,6.8435 C39.8427143,8.71064286 40.122,8.76564286 40.0105714,9.01635714 C39.8998571,9.01635714 39.2862857,8.04064286 38.532,7.28921429 C37.6712857,6.39921429 36.5534286,6.20207143 35.8041429,5.67421429 C35.9162857,6.03492857 36.5841429,7.17635714 37.9205714,8.5435" id="Fill-26" fill="#FFFFFF"></path>
                <path d="M41.8215714,16.2597143 C42.9358571,14.309 43.0158571,12.8882857 43.1037143,11.2425714 C43.0451429,10.1025714 42.488,7.45685714 41.6815714,7.06757143 C41.9037143,9.46114286 41.263,9.684 41.5415714,11.6618571 C41.5415714,11.7725714 41.7937143,13.8354286 41.7937143,13.9461429 C41.4865714,13.8911429 41.7637143,12.0504286 37.9758571,9.40542857 C38.7851429,10.854 38.393,11.2997143 39.8994286,13.2232857 C41.6815714,14.9504286 41.9037143,16.6468571 41.8215714,16.2597143" id="Fill-28" fill="#FFFFFF"></path>
                <path d="M40.3141429,18.0995 C41.0977143,19.2687857 40.957,19.8530714 41.152,20.4087857 C43.0755714,19.2959286 45.2741429,14.8680714 44.4384286,12.6666429 C43.9648571,14.3366429 43.2412857,14.6987857 42.7684286,16.0923571 C41.877,18.1816429 42.0141429,18.8209286 41.4862857,19.2959286 C41.5962857,18.2095 41.207,16.9273571 40.8448571,15.9802143 C40.3441429,15.1723571 39.8998571,14.1137857 39.507,13.7509286 C39.1177143,15.2859286 39.3948571,16.5380714 40.3141429,18.0995" id="Fill-30" fill="#FFFFFF"></path>
                <path d="M38.5615714,21.8872143 C38.5615714,23.5857857 38.893,24.3393571 39.0351429,25.5915 C42.3244286,24.5057857 44.078,20.7172143 44.078,18.8515 C43.0451429,21.1343571 41.5965714,21.1057857 39.6487143,24.3393571 C39.4808571,23.1115 39.9801429,24.0307857 40.0372857,21.7207857 C39.9801429,19.2965 39.4808571,19.2107857 39.3951429,17.7086429 C38.7858571,18.3757857 38.5615714,21.0522143 38.5615714,21.8872143" id="Fill-32" fill="#FFFFFF"></path>
                <path d="M35.8045714,26.7044286 C35.5524286,27.958 35.4695714,29.4358571 35.2752857,30.523 C37.1417143,29.8265714 37.6152857,30.3551429 39.8695714,28.9337143 C40.901,28.3758571 42.7688571,26.038 42.6567143,24.3637143 C40.4274286,26.8444286 40.011,26.5672857 38.9538571,27.4844286 C37.9488571,28.2937143 37.1131429,29.4915714 36.3874286,29.3258571 C36.3324286,28.6565714 38.031,27.2065714 37.8374286,23.0294286 C37.3631429,23.5008571 36.1367143,25.3951429 35.8045714,26.7044286" id="Fill-34" fill="#FFFFFF"></path>
                <path d="M32.0416429,29.8266429 C31.4830714,30.6609286 31.6216429,31.0230714 30.0923571,32.7495 C30.4809286,32.9166429 32.5995,33.4745 34.0487857,33.5316429 C34.9673571,33.5316429 38.3109286,32.6395 39.4223571,30.3552143 C37.5045,31.3852143 37.4730714,31.1352143 34.9123571,31.6923571 C33.0723571,32.1102143 31.7916429,32.6945 31.2645,32.6395 C31.3737857,32.3895 32.8202143,31.8030714 33.7716429,30.5780714 C34.7445,29.2687857 34.5223571,27.7923571 35.4123571,26.7045 C34.8023571,26.5373571 32.5180714,29.2137857 32.0416429,29.8266429" id="Fill-36" fill="#FFFFFF"></path>
                <path d="M17.5575,37.681 L16.9996429,37.4017143 C16.9996429,37.4017143 20.5417857,33.0838571 26.6110714,33.4195714 C32.6839286,33.7538571 32.2667857,35.176 35.5239286,34.951 C35.8867857,34.9238571 35.2467857,35.3988571 35.2467857,35.3988571 C35.2467857,35.3988571 32.0703571,36.621 28.1425,35.2852857 C24.2417857,33.9481429 21.7060714,33.1395714 17.5575,37.681" id="Fill-38" fill="#FFFFFF"></path>
                <path d="M27.1657857,37.681 L27.7272143,37.4017143 C27.7272143,37.4017143 24.2157857,33.0838571 18.1436429,33.4195714 C12.0429286,33.7538571 12.4607857,35.176 9.20221429,34.951 C8.83935714,34.9238571 9.47935714,35.3988571 9.47935714,35.3988571 C9.47935714,35.3988571 12.6529286,36.621 16.5829286,35.2852857 C20.5086429,33.9481429 23.0457857,33.1395714 27.1657857,37.681" id="Fill-40" fill="#FFFFFF"></path>
                <path d="M70.2182857,18.8957857 C70.2182857,24.7157857 67.0747143,27.5086429 60.6675714,27.5086429 C54.2575714,27.5086429 51.0832857,24.7157857 51.0832857,18.8957857 L51.0832857,6.02292857 L57.5497143,6.02292857 L57.5497143,17.4557857 C57.5497143,19.6000714 57.5497143,22.2772143 60.6954286,22.2772143 C63.7525714,22.2772143 63.7525714,19.6000714 63.7525714,17.4557857 L63.7525714,6.02292857 L70.2182857,6.02292857 L70.2182857,18.8957857" id="Fill-42" fill="#FFFFFF"></path>
                <polygon id="Fill-44" fill="#FFFFFF" points="74.0987143 6.02257143 80.7108571 6.02257143 86.8251429 17.249 86.883 17.249 86.883 6.02257143 92.9965714 6.02257143 92.9965714 27.0061429 86.7072857 27.0061429 80.2708571 15.5454286 80.2115714 15.5454286 80.2115714 27.0061429 74.0987143 27.0061429"></polygon>
                <polygon id="Fill-46" fill="#FFFFFF" points="96.9656429 6.02257143 103.432071 6.02257143 103.432071 13.3111429 109.487786 13.3111429 109.487786 6.02257143 115.9535 6.02257143 115.9535 27.0061429 109.487786 27.0061429 109.487786 18.6897143 103.432071 18.6897143 103.432071 27.0061429 96.9656429 27.0061429"></polygon>
                <path d="M132.502,13.841 C132.384143,13.076 131.796286,10.7552857 129.119857,10.7552857 C126.092,10.7552857 125.124143,13.6924286 125.124143,16.5145714 C125.124143,19.3352857 126.092,22.2767143 129.119857,22.2767143 C131.297,22.2767143 132.149143,20.7474286 132.532,18.7788571 L138.879857,18.7788571 C138.879857,23.0102857 135.439857,27.5081429 129.297714,27.5081429 C122.508429,27.5081429 118.656286,22.7167143 118.656286,16.5145714 C118.656286,9.901 122.832,5.52314286 129.297714,5.52314286 C135.057,5.551 138.233429,8.57957143 138.790571,13.841 L132.502,13.841" id="Fill-48" fill="#FFFFFF"></path>
                <path d="M141.582,27.0071429 L148.049143,27.0071429 L148.049143,19.69 L151.490571,19.69 C154.045571,19.69 154.221286,21.7771429 154.398429,23.7764286 C154.484857,24.8635714 154.602714,25.9507143 154.928429,27.0071429 L161.394857,27.0071429 C160.804857,26.0378571 160.777714,23.54 160.687714,22.5121429 C160.452714,19.895 159.366286,17.9557143 157.602,17.2792857 C159.748429,16.485 160.747714,14.1935714 160.747714,12.0185714 C160.747714,8.04857143 157.570571,6.02285714 153.898429,6.02285714 L141.582,6.02285714 L141.582,27.0071429 L141.582,27.0071429 Z M148.049143,11.0178571 L151.077,11.0178571 C153.547,11.0178571 154.281286,11.7821429 154.281286,13.1064286 C154.281286,14.9842857 152.634143,15.1921429 151.429857,15.1921429 L148.049143,15.1921429 L148.049143,11.0178571 Z" id="Fill-50" fill="#FFFFFF"></path>
                <polygon id="Fill-52" fill="#FFFFFF" points="53.1877143 31.8313571 51.0798571 31.8313571 51.0798571 30.5313571 56.8412857 30.5313571 56.8412857 31.8313571 54.7334286 31.8313571 54.7334286 37.5627857 53.1877143 37.5627857"></polygon>
                <path d="M57.3234286,30.5311429 L58.7227143,30.5311429 L58.7227143,33.1804286 L58.7505714,33.1804286 C59.107,32.609 59.717,32.3332857 60.2391429,32.3332857 C61.7255714,32.3332857 62.1005714,33.1704286 62.1005714,34.4311429 L62.1005714,37.5632857 L60.7005714,37.5632857 L60.7005714,34.6861429 C60.7005714,33.8497143 60.4562857,33.4354286 59.8062857,33.4354286 C59.0477143,33.4354286 58.7227143,33.8597143 58.7227143,34.8932857 L58.7227143,37.5632857 L57.3234286,37.5632857 L57.3234286,30.5311429" id="Fill-54" fill="#FFFFFF"></path>
                <path d="M66.3734286,34.4702143 C66.2455714,33.7609286 65.9398571,33.3873571 65.2605714,33.3873571 C64.3748571,33.3873571 64.1177143,34.0773571 64.0991429,34.4702143 L66.3734286,34.4702143 L66.3734286,34.4702143 Z M64.0991429,35.3559286 C64.1384286,36.2430714 64.5712857,36.6459286 65.3491429,36.6459286 C65.912,36.6459286 66.3634286,36.3023571 66.452,35.9859286 L67.6834286,35.9859286 C67.2891429,37.1887857 66.452,37.7009286 65.2998571,37.7009286 C63.6962857,37.7009286 62.6998571,36.5980714 62.6998571,35.0216429 C62.6998571,33.4952143 63.7548571,32.3337857 65.2998571,32.3337857 C67.0334286,32.3337857 67.8705714,33.7902143 67.7734286,35.3559286 L64.0991429,35.3559286 Z" id="Fill-56" fill="#FFFFFF"></path>
                <path d="M76.8536429,34.9047857 C76.8536429,36.8047857 75.7307857,37.7290714 73.8500714,37.7290714 C71.9593571,37.7290714 70.8557857,36.8147857 70.8557857,34.9047857 L70.8557857,30.5312143 L72.4022143,30.5312143 L72.4022143,34.9047857 C72.4022143,35.6719286 72.5993571,36.4305 73.8500714,36.4305 C74.9529286,36.4305 75.3072143,35.9476429 75.3072143,34.9047857 L75.3072143,30.5312143 L76.8536429,30.5312143 L76.8536429,34.9047857" id="Fill-58" fill="#FFFFFF"></path>
                <polygon id="Fill-60" fill="#FFFFFF" points="77.8877857 30.5311429 79.4242143 30.5311429 82.3592143 35.2482857 82.3785 35.2482857 82.3785 30.5311429 83.8263571 30.5311429 83.8263571 37.5632857 82.2799286 37.5632857 79.3549286 32.8561429 79.3349286 32.8561429 79.3349286 37.5632857 77.8877857 37.5632857"></polygon>
                <path d="M87.1951429,37.5631429 L88.7415714,37.5631429 L88.7415714,34.8138571 L90.2872857,34.8138571 C91.0651429,34.8138571 91.3515714,35.1395714 91.4594286,35.8781429 C91.538,36.4402857 91.5187143,37.1202857 91.7051429,37.5631429 L93.2515714,37.5631429 C92.9765714,37.1674286 92.9851429,36.3402857 92.9558571,35.8988571 C92.9072857,35.1895714 92.6915714,34.4517143 91.9322857,34.2538571 L91.9322857,34.2345714 C92.7101429,33.9188571 93.0444286,33.2974286 93.0444286,32.471 C93.0444286,31.4088571 92.248,30.531 90.9865714,30.531 L87.1951429,30.531 L87.1951429,37.5631429 L87.1951429,37.5631429 Z M88.7415714,31.7331429 L90.4351429,31.7331429 C91.1237143,31.7331429 91.498,32.0295714 91.498,32.7074286 C91.498,33.4167143 91.1237143,33.7117143 90.4351429,33.7117143 L88.7415714,33.7117143 L88.7415714,31.7331429 Z" id="Fill-62" fill="#FFFFFF"></path>
                <path d="M98.8057143,35.3560714 C98.905,33.7903571 98.0671429,32.3339286 96.3342857,32.3339286 C94.7878571,32.3339286 93.7335714,33.4953571 93.7335714,35.0217857 C93.7335714,36.5975 94.7292857,37.7017857 96.3342857,37.7017857 C97.4871429,37.7017857 98.3228571,37.1882143 98.7178571,35.9860714 L97.4871429,35.9860714 C97.3971429,36.3025 96.9442857,36.6460714 96.3842857,36.6460714 C95.6064286,36.6460714 95.1721429,36.2432143 95.1321429,35.3560714 L98.8057143,35.3560714 L98.8057143,35.3560714 Z M95.1321429,34.4703571 C95.1528571,34.0775 95.4078571,33.3875 96.295,33.3875 C96.9742857,33.3875 97.28,33.7610714 97.4085714,34.4703571 L95.1321429,34.4703571 Z" id="Fill-64" fill="#FFFFFF"></path>
                <path d="M99.7278571,33.4057143 L98.89,33.4057143 L98.89,32.4707143 L99.7278571,32.4707143 L99.7278571,32.0778571 C99.7278571,31.1814286 100.288571,30.5314286 101.430714,30.5314286 C101.677143,30.5314286 101.933571,30.5614286 102.168571,30.5707143 L102.168571,31.615 C102.002857,31.595 101.835,31.5842857 101.656429,31.5842857 C101.283571,31.5842857 101.125714,31.7421429 101.125714,32.1664286 L101.125714,32.4707143 L102.090714,32.4707143 L102.090714,33.4057143 L101.125714,33.4057143 L101.125714,37.5628571 L99.7278571,37.5628571 L99.7278571,33.4057143" id="Fill-66" fill="#FFFFFF"></path>
                <path d="M107.301143,37.5631429 L105.971143,37.5631429 L105.971143,36.8538571 L105.941143,36.8538571 C105.586143,37.4245714 104.976143,37.701 104.385429,37.701 C102.899,37.701 102.524714,36.8631429 102.524714,35.6031429 L102.524714,32.471 L103.922571,32.471 L103.922571,35.346 C103.922571,36.1838571 104.168286,36.5974286 104.819,36.5974286 C105.576857,36.5974286 105.901857,36.1745714 105.901857,35.1395714 L105.901857,32.471 L107.301143,32.471 L107.301143,37.5631429" id="Fill-68" fill="#FFFFFF"></path>
                <path d="M113.041214,32.471 L111.711929,32.471 L111.711929,33.151 L111.692643,33.151 C111.358357,32.5595714 110.846929,32.3338571 110.174786,32.3338571 C108.747643,32.3338571 107.989786,33.5345714 107.989786,34.8538571 C107.989786,36.2524286 108.639071,37.4152857 110.166929,37.4152857 C110.776214,37.4152857 111.388357,37.1581429 111.692643,36.6274286 L111.711929,36.6274286 L111.711929,37.2974286 C111.721929,38.026 111.366929,38.5574286 110.589786,38.5574286 C110.097643,38.5574286 109.674071,38.3788571 109.544786,37.8581429 L108.156929,37.8581429 C108.2255,39.0195714 109.396929,39.4938571 110.403357,39.4938571 C112.746214,39.4938571 113.041214,38.0745714 113.041214,37.2374286 L113.041214,32.471 M110.5205,36.361 C109.663357,36.361 109.389071,35.5638571 109.389071,34.8352857 C109.389071,34.0774286 109.731929,33.3874286 110.5205,33.3874286 C111.426214,33.3874286 111.711929,34.1252857 111.711929,34.9524286 C111.711929,35.6817143 111.319071,36.361 110.5205,36.361" id="Fill-70" fill="#FFFFFF"></path>
                <path d="M118.813429,35.3560714 C118.911286,33.7903571 118.074143,32.3339286 116.340571,32.3339286 C114.794857,32.3339286 113.739857,33.4953571 113.739857,35.0217857 C113.739857,36.5975 114.736286,37.7017857 116.340571,37.7017857 C117.493429,37.7017857 118.330571,37.1882143 118.724143,35.9860714 L117.493429,35.9860714 C117.403429,36.3025 116.951286,36.6460714 116.389143,36.6460714 C115.612,36.6460714 115.178429,36.2432143 115.139143,35.3560714 L118.813429,35.3560714 L118.813429,35.3560714 Z M115.139143,34.4703571 C115.158429,34.0775 115.414857,33.3875 116.301286,33.3875 C116.981286,33.3875 117.286286,33.7610714 117.414143,34.4703571 L115.139143,34.4703571 Z" id="Fill-72" fill="#FFFFFF"></path>
                <path d="M124.287714,35.3560714 C124.387,33.7903571 123.549143,32.3339286 121.816286,32.3339286 C120.269857,32.3339286 119.216286,33.4953571 119.216286,35.0217857 C119.216286,36.5975 120.210571,37.7017857 121.816286,37.7017857 C122.968429,37.7017857 123.804857,37.1882143 124.200571,35.9860714 L122.968429,35.9860714 C122.879857,36.3025 122.427,36.6460714 121.864857,36.6460714 C121.087714,36.6460714 120.654143,36.2432143 120.614857,35.3560714 L124.287714,35.3560714 L124.287714,35.3560714 Z M120.614857,34.4703571 C120.635571,34.0775 120.889857,33.3875 121.777,33.3875 C122.457,33.3875 122.762714,33.7610714 122.889143,34.4703571 L120.614857,34.4703571 Z" id="Fill-74" fill="#FFFFFF"></path>
                <path d="M127.251643,37.5631429 L128.816643,37.5631429 L129.370214,35.9974286 L131.998786,35.9974286 L132.530929,37.5631429 L134.137357,37.5631429 L131.505929,30.531 L129.920929,30.531 L127.251643,37.5631429 Z M130.688786,32.2638571 L130.708786,32.2638571 L131.5945,34.8445714 L129.773071,34.8445714 L130.688786,32.2638571 Z" id="Fill-76" fill="#FFFFFF"></path>
                <path d="M139.277286,32.471 L137.948714,32.471 L137.948714,33.151 L137.927286,33.151 C137.593,32.5595714 137.080857,32.3338571 136.410857,32.3338571 C134.982286,32.3338571 134.224429,33.5345714 134.224429,34.8538571 C134.224429,36.2524286 134.875143,37.4152857 136.400857,37.4152857 C137.010857,37.4152857 137.623714,37.1581429 137.927286,36.6274286 L137.948714,36.6274286 L137.948714,37.2974286 C137.956571,38.026 137.602286,38.5574286 136.824429,38.5574286 C136.333,38.5574286 135.908714,38.3788571 135.780143,37.8581429 L134.390857,37.8581429 C134.461571,39.0195714 135.633714,39.4938571 136.638,39.4938571 C138.980857,39.4938571 139.277286,38.0745714 139.277286,37.2374286 L139.277286,32.471 M136.755857,36.361 C135.899429,36.361 135.623,35.5638571 135.623,34.8352857 C135.623,34.0774286 135.967286,33.3874286 136.755857,33.3874286 C137.661571,33.3874286 137.948714,34.1252857 137.948714,34.9524286 C137.948714,35.6817143 137.553,36.361 136.755857,36.361" id="Fill-78" fill="#FFFFFF"></path>
                <path d="M145.048071,35.3560714 C145.145929,33.7903571 144.310214,32.3339286 142.575929,32.3339286 C141.028786,32.3339286 139.975929,33.4953571 139.975929,35.0217857 C139.975929,36.5975 140.9695,37.7017857 142.575929,37.7017857 C143.728071,37.7017857 144.565214,37.1882143 144.958786,35.9860714 L143.728071,35.9860714 C143.638786,36.3025 143.186643,36.6460714 142.6245,36.6460714 C141.848071,36.6460714 141.413071,36.2432143 141.373786,35.3560714 L145.048071,35.3560714 L145.048071,35.3560714 Z M141.373786,34.4703571 C141.393071,34.0775 141.650214,33.3875 142.535929,33.3875 C143.215929,33.3875 143.521643,33.7610714 143.6495,34.4703571 L141.373786,34.4703571 Z" id="Fill-80" fill="#FFFFFF"></path>
                <path d="M145.658429,32.471 L146.987,32.471 L146.987,33.1802857 L147.017714,33.1802857 C147.372,32.6088571 147.983429,32.3338571 148.572714,32.3338571 C150.059143,32.3338571 150.434857,33.1702857 150.434857,34.431 L150.434857,37.5631429 L149.035571,37.5631429 L149.035571,34.6867143 C149.035571,33.8495714 148.790571,33.436 148.140571,33.436 C147.381286,33.436 147.056286,33.8595714 147.056286,34.8938571 L147.056286,37.5631429 L145.658429,37.5631429 L145.658429,32.471" id="Fill-82" fill="#FFFFFF"></path>
                <path d="M154.747429,34.2644286 C154.659571,33.6922857 154.294571,33.3872857 153.713857,33.3872857 C152.818143,33.3872857 152.522429,34.293 152.522429,35.0415714 C152.522429,35.7701429 152.808143,36.6465714 153.683857,36.6465714 C154.333857,36.6465714 154.708143,36.2337143 154.796714,35.6122857 L156.146714,35.6122857 C155.969571,36.9615714 155.033143,37.7015714 153.694571,37.7015714 C152.158143,37.7015714 151.123857,36.6172857 151.123857,35.0908571 C151.123857,33.5058571 152.068857,32.3344286 153.723857,32.3344286 C154.925286,32.3344286 156.028857,32.9644286 156.116714,34.2644286 L154.747429,34.2644286" id="Fill-84" fill="#FFFFFF"></path>
                <g id="Group-88" transform="translate(155.714286, 32.351000)">
                    <mask id="mask-8" fill="white">
                        <use xlink:href="#path-7"></use>
                    </mask>
                    <g id="Clip-87"></g>
                    <path d="M3.55464286,5.85107143 C3.24821429,6.66892857 2.76607143,7.00392857 1.80107143,7.00392857 C1.51535714,7.00392857 1.22964286,6.98464286 0.943928571,6.95535714 L0.943928571,5.80321429 C1.21035714,5.8225 1.48535714,5.86321429 1.76107143,5.85107143 C2.2425,5.80321429 2.4025,5.30035714 2.2425,4.89607143 L0.451785714,0.120357143 L1.94964286,0.120357143 L3.10107143,3.60607143 L3.12178571,3.60607143 L4.23321429,0.120357143 L5.6825,0.120357143 L3.55464286,5.85107143" id="Fill-86" fill="#FFFFFF" mask="url(#mask-8)"></path>
                </g>
            </g>
        </g>
    </g>
</svg>