<?xml version="1.0" encoding="UTF-8"?>
<svg width="161px" height="40px" viewBox="0 0 161 40" version="1.1" xmlns="http://www.w3.org/2000/svg" xmlns:xlink="http://www.w3.org/1999/xlink">
    <!-- Generator: Sketch 55 (78076) - https://sketchapp.com -->
    <title>logo_unhcr_mobile</title>
    <desc>Created with Sketch.</desc>
    <defs>
        <polygon id="path-1" points="0.703489619 0.506428571 11.9605715 0.506428571 11.9605715 26.7566078 0.703489619 26.7566078"></polygon>
        <polygon id="path-3" points="0.648643608 0.506428571 11.9159614 0.506428571 11.9159614 26.7566078 0.648643608 26.7566078"></polygon>
        <polygon id="path-5" points="0 0.315642857 5.27600869 0.315642857 5.27600869 8.05778571 0 8.05778571"></polygon>
        <polygon id="path-7" points="0.450586283 0.120357143 5.66705752 0.120357143 5.66705752 7.00392857 0.450586283 7.00392857"></polygon>
    </defs>
    <g id="Site-Web---Mobile" stroke="none" stroke-width="1" fill="none" fill-rule="evenodd">
        <g id="HOME" transform="translate(-107.000000, -87.000000)">
            <g id="logo_unhcr_mobile" transform="translate(107.000000, 87.000000)">
                <path d="M23.5296513,26.9520714 C23.9855805,26.9520714 23.9264522,26.6927857 23.9264522,26.2077857 L23.9264522,23.8485 C23.9264522,23.3620714 23.8822841,23.2077857 24.1586912,23.2077857 C25.1254035,23.2077857 25.3897,23.1177857 25.3897,22.2549286 L25.3897,13.4913571 C25.3897,11.1042143 23.7091735,11.4999286 23.2368593,10.6277857 C22.5629389,9.4485 24.4942265,9.4485 23.7918106,6.89421429 C23.6137133,6.31421429 23.161346,5.95707143 22.2893814,5.95707143 C21.415992,5.95707143 20.9622,6.31421429 20.7855274,6.89421429 C20.0852487,9.4485 22.0186735,9.4485 21.3447531,10.6277857 C20.868877,11.4999286 19.1912,11.1042143 19.1912,13.4913571 L19.1912,22.2549286 C19.1912,23.1177857 19.4512221,23.2077857 20.4222088,23.2077857 C20.6936292,23.2077857 20.6515982,23.3620714 20.6515982,23.8485 L20.6515982,26.2077857 C20.6515982,26.6927857 20.5931823,26.9520714 21.0512487,26.9520714 L23.5296513,26.9520714" id="Fill-1" fill="#0072BC"></path>
                <g id="Group-5" transform="translate(9.973451, 0.208143)">
                    <mask id="mask-2" fill="white">
                        <use xlink:href="#path-1"></use>
                    </mask>
                    <g id="Clip-4"></g>
                    <path d="M5.90499558,7.7355 C5.04514159,8.65264286 3.68732743,10.7940714 4.57425221,12.5719286 C6.37659735,13.2676429 6.23839381,6.8455 8.4859823,6.9555 C9.59588496,7.9855 8.15329646,11.0162143 7.70734071,12.3483571 C7.15310177,13.9933571 6.71070796,17.4383571 5.65637168,19.1047857 C4.77158407,20.4969286 5.43481858,24.8626429 5.15627434,26.3640714 C4.41040265,27.1140714 2.38365487,26.5840714 1.52451327,26.4440714 C1.52451327,24.7219286 1.30011062,23.3605 1.02584071,20.6069286 C0.998769912,20.0519286 0.415323009,11.5440714 0.886924779,10.5147857 C1.8579115,8.37264286 7.15310177,4.28764286 7.87760177,3.50764286 C8.51162832,2.81335714 10.757792,0.506214286 11.6183584,0.506214286 C12.2260265,0.924071429 11.8669823,1.89621429 11.7302035,2.2855 C10.8703496,4.42692857 7.15310177,6.53907143 5.90499558,7.7355" id="Fill-3" fill="#0072BC" mask="url(#mask-2)"></path>
                </g>
                <g id="Group-8" transform="translate(22.084071, 0.208143)">
                    <mask id="mask-4" fill="white">
                        <use xlink:href="#path-3"></use>
                    </mask>
                    <g id="Clip-7"></g>
                    <path d="M6.71612212,7.7355 C7.54605575,8.65264286 8.90743186,10.7940714 8.04544071,12.5719286 C6.21602478,13.2676429 6.35636549,6.8455 4.10735221,6.9555 C3.02879469,7.9855 4.46853363,11.0162143 4.9130646,12.3483571 C5.46801593,13.9933571 5.9125469,17.4383571 6.96260885,19.1047857 C7.82531239,20.4969286 7.18416195,24.8626429 7.43421062,26.3640714 C8.21285221,27.1140714 10.2075425,26.5840714 11.0951796,26.4440714 C11.0951796,24.7219286 11.2903743,23.3605 11.5667814,20.6069286 C11.6216354,20.0519286 12.2043699,11.5440714 11.7334805,10.5147857 C10.7639186,8.37264286 5.46801593,4.28764286 4.74707788,3.50764286 C4.08313097,2.81335714 1.86190088,0.506214286 1.00133451,0.506214286 C0.367307965,0.924071429 0.754135398,1.89621429 0.892338938,2.2855 C1.75290531,4.42692857 5.46801593,6.53907143 6.71612212,7.7355" id="Fill-6" fill="#0072BC" mask="url(#mask-4)"></path>
                </g>
                <path d="M8.17637788,5.06 C7.70477611,5.50714286 6.64616549,5.81214286 5.92522743,6.78357143 C5.64810796,6.25714286 6.36904602,4.97714286 7.23103717,4.225 C7.86862566,3.69285714 9.12100619,2.83071429 9.47862566,2.74857143 C9.7578823,3.38857143 8.75911239,4.365 8.17637788,5.06" id="Fill-9" fill="#0072BC"></path>
                <path d="M6.70258673,8.5435 C5.8990115,9.29207143 5.03844513,9.60064286 3.92426814,10.9670714 C3.45266637,9.32135714 3.5645115,7.87278571 3.78463982,6.89707143 C4.17574159,5.61778571 4.81333009,4.19492857 5.8990115,3.75064286 C5.67603363,4.47564286 5.31200265,5.47707143 5.23007788,6.8435 C4.75990088,8.71064286 4.47921947,8.76564286 4.59177699,9.01635714 C4.70077257,9.01635714 5.31200265,8.04064286 6.06357345,7.28921429 C6.95406018,6.39921429 8.06253805,6.20207143 8.78490088,5.67421429 C8.6766177,6.03492857 8.03831681,7.17635714 6.70258673,8.5435" id="Fill-11" fill="#0072BC"></path>
                <path d="M2.78793584,16.2597143 C1.7036792,14.309 1.59183407,12.8882857 1.50705973,11.2425714 C1.56405088,10.1025714 2.1197146,7.45685714 2.95249779,7.06757143 C2.70244912,9.46114286 3.34431195,9.684 3.09141372,11.6618571 C3.09141372,11.7725714 2.81215708,13.8354286 2.81215708,13.9461429 C3.1462677,13.8911429 2.84207743,12.0504286 6.64552434,9.40542857 C5.8163031,10.854 6.20170575,11.2997143 4.70070133,13.2232857 C2.95249779,14.9504286 2.70244912,16.6468571 2.78793584,16.2597143" id="Fill-13" fill="#0072BC"></path>
                <g id="Group-17" transform="translate(0.000000, 12.351000)">
                    <mask id="mask-6" fill="white">
                        <use xlink:href="#path-5"></use>
                    </mask>
                    <g id="Clip-16"></g>
                    <path d="M4.31529867,5.7485 C3.50744912,6.91778571 3.64636504,7.50207143 3.45259513,8.05778571 C1.53270575,6.94492857 -0.631533186,2.51707143 0.172042035,0.315642857 C0.674276549,1.98564286 1.36743142,2.34778571 1.86824115,3.74135714 C2.7302323,5.83064286 2.59345354,6.46992857 3.1462677,6.94492857 C3.03442257,5.8585 3.39560398,4.57635714 3.76034735,3.62921429 C4.28822788,2.82135714 4.70070133,1.76278571 5.09322788,1.39992857 C5.50855088,2.93492857 5.20222345,4.18707143 4.31529867,5.7485" id="Fill-15" fill="#0072BC" mask="url(#mask-6)"></path>
                </g>
                <path d="M6.03785619,21.8872143 C6.03785619,23.5857857 5.73010398,24.3393571 5.59190044,25.5915 C2.28498894,24.5057857 0.561719027,20.7172143 0.561719027,18.8515 C1.56405088,21.1343571 3.03513496,21.1057857 4.95573673,24.3393571 C5.12101106,23.1115 4.61948894,24.0307857 4.56534735,21.7207857 C4.61948894,19.2965 5.12101106,19.2107857 5.20222345,17.7086429 C5.8163031,18.3757857 6.03785619,21.0522143 6.03785619,21.8872143" id="Fill-18" fill="#0072BC"></path>
                <path d="M8.7854708,26.7044286 C9.03765664,27.958 9.14665221,29.4358571 9.34327168,30.523 C7.45543982,29.8265714 6.97956372,30.3551429 4.73197522,28.9337143 C3.70186018,28.3758571 1.8688823,26.038 1.98357699,24.3637143 C4.20409469,26.8444286 4.5923469,26.5672857 5.67660354,27.4844286 C6.67608584,28.2937143 7.48037345,29.4915714 8.20629823,29.3258571 C8.25901504,28.6565714 6.56566549,27.2065714 6.78650619,23.0294286 C7.23103717,23.5008571 8.45278496,25.3951429 8.7854708,26.7044286" id="Fill-20" fill="#0072BC"></path>
                <path d="M12.5373407,29.8266429 C13.1200752,30.6609286 12.9832965,31.0230714 14.4843009,32.7495 C14.1195575,32.9166429 11.9838142,33.4745 10.5625973,33.5316429 C9.62224336,33.5316429 6.28683628,32.6395 5.17693363,30.3552143 C7.09254867,31.3852143 7.12175664,31.1352143 9.67567257,31.6923571 C11.5107876,32.1102143 12.815885,32.6945 13.3166947,32.6395 C13.2055619,32.3895 11.7907566,31.8030714 10.8169204,30.5780714 C9.84237168,29.2687857 10.0653496,27.7923571 9.20193363,26.7045 C9.7875177,26.5373571 12.0650265,29.2137857 12.5373407,29.8266429" id="Fill-22" fill="#0072BC"></path>
                <path d="M36.3463912,5.06 C36.7909221,5.50714286 37.8751788,5.81214286 38.5697584,6.78357143 C38.8746611,6.25714286 38.1273646,4.97714286 37.2639487,4.225 C36.6569929,3.69285714 35.4031876,2.83071429 35.0113735,2.74857143 C34.7349664,3.38857143 35.7344487,4.365 36.3463912,5.06" id="Fill-24" fill="#0072BC"></path>
                <path d="M37.8198973,8.5435 C38.5978265,9.29207143 39.4605301,9.60064286 40.5682956,10.9670714 C41.0427469,9.32135714 40.9301894,7.87278571 40.7121982,6.89707143 C40.3510168,5.61778571 39.6820832,4.19492857 38.5978265,3.75064286 C38.8500124,4.47564286 39.1819858,5.47707143 39.2653354,6.8435 C39.7369372,8.71064286 40.0154814,8.76564286 39.9043487,9.01635714 C39.7939283,9.01635714 39.1819858,8.04064286 38.4297027,7.28921429 C37.5712735,6.39921429 36.4563841,6.20207143 35.7090876,5.67421429 C35.8209327,6.03492857 36.4870168,7.17635714 37.8198973,8.5435" id="Fill-26" fill="#0072BC"></path>
                <path d="M41.7105407,16.2597143 C42.8218681,14.309 42.9016558,12.8882857 42.9892796,11.2425714 C42.9308637,10.1025714 42.3752,7.45685714 41.5709124,7.06757143 C41.7924655,9.46114286 41.1534522,9.684 41.4312841,11.6618571 C41.4312841,11.7725714 41.6827575,13.8354286 41.6827575,13.9461429 C41.3764301,13.8911429 41.6528372,12.0504286 37.8750363,9.40542857 C38.6821735,10.854 38.2910717,11.2997143 39.7935009,13.2232857 C41.5709124,14.9504286 41.7924655,16.6468571 41.7105407,16.2597143" id="Fill-28" fill="#0072BC"></path>
                <path d="M40.2071142,18.0995 C40.9886053,19.2687857 40.8482646,19.8530714 41.0427469,20.4087857 C42.9612115,19.2959286 45.153946,14.8680714 44.3204504,12.6666429 C43.8481363,14.3366429 43.1264858,14.6987857 42.6548841,16.0923571 C41.7658221,18.1816429 41.9026009,18.8209286 41.3761451,19.2959286 C41.4858531,18.2095 41.0976009,16.9273571 40.7364195,15.9802143 C40.2370345,15.1723571 39.7939283,14.1137857 39.4021142,13.7509286 C39.0138619,15.2859286 39.290269,16.5380714 40.2071142,18.0995" id="Fill-30" fill="#0072BC"></path>
                <path d="M38.4591956,21.8872143 C38.4591956,23.5857857 38.7897442,24.3393571 38.9315097,25.5915 C42.2120628,24.5057857 43.9609788,20.7172143 43.9609788,18.8515 C42.9308637,21.1343571 41.4861381,21.1057857 39.5434522,24.3393571 C39.3760407,23.1115 39.8740009,24.0307857 39.930992,21.7207857 C39.8740009,19.2965 39.3760407,19.2107857 39.290554,17.7086429 C38.6828858,18.3757857 38.4591956,21.0522143 38.4591956,21.8872143" id="Fill-32" fill="#0072BC"></path>
                <path d="M35.709515,26.7044286 C35.4580416,27.958 35.3754044,29.4358571 35.1816345,30.523 C37.043108,29.8265714 37.5154221,30.3551429 39.763723,28.9337143 C40.7924133,28.3758571 42.6553115,26.038 42.5434664,24.3637143 C40.3200991,26.8444286 39.9047761,26.5672857 38.8504398,27.4844286 C37.848108,28.2937143 37.0146124,29.4915714 36.2908248,29.3258571 C36.2359708,28.6565714 37.9300327,27.2065714 37.7369752,23.0294286 C37.2639487,23.5008571 36.0407761,25.3951429 35.709515,26.7044286" id="Fill-34" fill="#0072BC"></path>
                <path d="M31.9565765,29.8266429 C31.3994881,30.6609286 31.5376916,31.0230714 30.0124659,32.7495 C30.4000058,32.9166429 32.5129527,33.4745 33.9583907,33.5316429 C34.8745235,33.5316429 38.2092181,32.6395 39.317696,30.3552143 C37.4049305,31.3852143 37.3735854,31.1352143 34.8196695,31.6923571 C32.9845544,32.1102143 31.7072403,32.6945 31.1814969,32.6395 C31.2904925,32.3895 32.733081,31.8030714 33.6819836,30.5780714 C34.652258,29.2687857 34.4307049,27.7923571 35.318342,26.7045 C34.7099615,26.5373571 32.4317403,29.2137857 31.9565765,29.8266429" id="Fill-36" fill="#0072BC"></path>
                <path d="M17.5108872,37.681 L16.9545111,37.4017143 C16.9545111,37.4017143 20.48725,33.0838571 26.5404226,33.4195714 C32.5971571,33.7538571 32.1811217,35.176 35.4296173,34.951 C35.7915111,34.9238571 35.1532102,35.3988571 35.1532102,35.3988571 C35.1532102,35.3988571 31.9852146,36.621 28.0677854,35.2852857 C24.177427,33.9481429 21.6484447,33.1395714 17.5108872,37.681" id="Fill-38" fill="#0072BC"></path>
                <path d="M27.0936642,37.681 L27.6536022,37.4017143 C27.6536022,37.4017143 24.151496,33.0838571 18.0954739,33.4195714 C12.0109562,33.7538571 12.427704,35.176 9.17778363,34.951 C8.81588982,34.9238571 9.45419071,35.3988571 9.45419071,35.3988571 C9.45419071,35.3988571 12.6193367,36.621 16.5389031,35.2852857 C20.4541951,33.9481429 22.9846022,33.1395714 27.0936642,37.681" id="Fill-40" fill="#0072BC"></path>
                <path d="M70.0318655,18.8957857 C70.0318655,24.7157857 66.8966398,27.5086429 60.5065071,27.5086429 C54.1135248,27.5086429 50.9476664,24.7157857 50.9476664,18.8957857 L50.9476664,6.02292857 L57.3969274,6.02292857 L57.3969274,17.4557857 C57.3969274,19.6000714 57.3969274,22.2772143 60.5342903,22.2772143 C63.5833168,22.2772143 63.5833168,19.6000714 63.5833168,17.4557857 L63.5833168,6.02292857 L70.0318655,6.02292857 L70.0318655,18.8957857" id="Fill-42" fill="#0072BC"></path>
                <polygon id="Fill-44" fill="#0072BC" points="73.901992 6.02257143 80.4965805 6.02257143 86.5946336 17.249 86.6523372 17.249 86.6523372 6.02257143 92.7496779 6.02257143 92.7496779 27.0061429 86.4770894 27.0061429 80.0577487 15.5454286 79.9986204 15.5454286 79.9986204 27.0061429 73.901992 27.0061429"></polygon>
                <polygon id="Fill-46" fill="#0072BC" points="96.7082119 6.02257143 103.157473 6.02257143 103.157473 13.3111429 109.19711 13.3111429 109.19711 6.02257143 115.645659 6.02257143 115.645659 27.0061429 109.19711 27.0061429 109.19711 18.6897143 103.157473 18.6897143 103.157473 27.0061429 96.7082119 27.0061429"></polygon>
                <path d="M132.150225,13.841 C132.032681,13.076 131.446384,10.7552857 128.777061,10.7552857 C125.757242,10.7552857 124.791955,13.6924286 124.791955,16.5145714 C124.791955,19.3352857 125.757242,22.2767143 128.777061,22.2767143 C130.948424,22.2767143 131.798304,20.7474286 132.180145,18.7788571 L138.51115,18.7788571 C138.51115,23.0102857 135.080282,27.5081429 128.954446,27.5081429 C122.183185,27.5081429 118.341269,22.7167143 118.341269,16.5145714 C118.341269,9.901 122.505897,5.52314286 128.954446,5.52314286 C134.698442,5.551 137.866437,8.57957143 138.422101,13.841 L132.150225,13.841" id="Fill-48" fill="#0072BC"></path>
                <path d="M141.206119,27.0071429 L147.656092,27.0071429 L147.656092,19.69 L151.088384,19.69 C153.636601,19.69 153.811849,21.7771429 153.988521,23.7764286 C154.07472,24.8635714 154.192265,25.9507143 154.517114,27.0071429 L160.966375,27.0071429 C160.377942,26.0378571 160.350871,23.54 160.26111,22.5121429 C160.026734,19.895 158.943189,17.9557143 157.183588,17.2792857 C159.324318,16.485 160.32095,14.1935714 160.32095,12.0185714 C160.32095,8.04857143 157.152242,6.02285714 153.489849,6.02285714 L141.206119,6.02285714 L141.206119,27.0071429 L141.206119,27.0071429 Z M147.656092,11.0178571 L150.675911,11.0178571 C153.139353,11.0178571 153.871689,11.7821429 153.871689,13.1064286 C153.871689,14.9842857 152.228919,15.1921429 151.027831,15.1921429 L147.656092,15.1921429 L147.656092,11.0178571 Z" id="Fill-50" fill="#0072BC"></path>
                <polygon id="Fill-52" fill="#0072BC" points="53.046508 31.8313571 50.9442469 31.8313571 50.9442469 30.5313571 56.6903796 30.5313571 56.6903796 31.8313571 54.5881186 31.8313571 54.5881186 37.5627857 53.046508 37.5627857"></polygon>
                <path d="M57.1712425,30.5311429 L58.5668133,30.5311429 L58.5668133,33.1804286 L58.5945965,33.1804286 C58.9500788,32.609 59.5584593,32.3332857 60.0792159,32.3332857 C61.5616982,32.3332857 61.9357027,33.1704286 61.9357027,34.4311429 L61.9357027,37.5632857 L60.5394195,37.5632857 L60.5394195,34.6861429 C60.5394195,33.8497143 60.2957823,33.4354286 59.647508,33.4354286 C58.8909504,33.4354286 58.5668133,33.8597143 58.5668133,34.8932857 L58.5668133,37.5632857 L57.1712425,37.5632857 L57.1712425,30.5311429" id="Fill-54" fill="#0072BC"></path>
                <path d="M66.1972159,34.4702143 C66.0696982,33.7609286 65.7647956,33.3873571 65.0873133,33.3873571 C64.2039504,33.3873571 63.9474903,34.0773571 63.9289681,34.4702143 L66.1972159,34.4702143 L66.1972159,34.4702143 Z M63.9289681,35.3559286 C63.9681496,36.2430714 64.3998575,36.6459286 65.1756496,36.6459286 C65.7370124,36.6459286 66.1872425,36.3023571 66.2755788,35.9859286 L67.5037381,35.9859286 C67.1104991,37.1887857 66.2755788,37.7009286 65.1264947,37.7009286 C63.5271805,37.7009286 62.5333973,36.5980714 62.5333973,35.0216429 C62.5333973,33.4952143 63.5855965,32.3337857 65.1264947,32.3337857 C66.8554637,32.3337857 67.6903841,33.7902143 67.5934991,35.3559286 L63.9289681,35.3559286 Z" id="Fill-56" fill="#0072BC"></path>
                <path d="M76.6496066,34.9047857 C76.6496066,36.8047857 75.5297305,37.7290714 73.6540093,37.7290714 C71.7683146,37.7290714 70.667673,36.8147857 70.667673,34.9047857 L70.667673,30.5312143 L72.209996,30.5312143 L72.209996,34.9047857 C72.209996,35.6719286 72.4066155,36.4305 73.6540093,36.4305 C74.7539385,36.4305 75.1072836,35.9476429 75.1072836,34.9047857 L75.1072836,30.5312143 L76.6496066,30.5312143 L76.6496066,34.9047857" id="Fill-58" fill="#0072BC"></path>
                <polygon id="Fill-60" fill="#0072BC" points="77.681004 30.5311429 79.2133535 30.5311429 82.1405615 35.2482857 82.159796 35.2482857 82.159796 30.5311429 83.6038093 30.5311429 83.6038093 37.5632857 82.0614863 37.5632857 79.1442518 32.8561429 79.1243049 32.8561429 79.1243049 37.5632857 77.681004 37.5632857"></polygon>
                <path d="M86.9636513,37.5631429 L88.5059743,37.5631429 L88.5059743,34.8138571 L90.047585,34.8138571 C90.823377,34.8138571 91.1090451,35.1395714 91.2166159,35.8781429 C91.2949788,36.4402857 91.2757442,37.1202857 91.4616779,37.5631429 L93.0040009,37.5631429 C92.729731,37.1674286 92.7382796,36.3402857 92.7090717,35.8988571 C92.6606292,35.1895714 92.4454876,34.4517143 91.6882177,34.2538571 L91.6882177,34.2345714 C92.4640097,33.9188571 92.797408,33.2974286 92.797408,32.471 C92.797408,31.4088571 92.0030938,30.531 90.7450142,30.531 L86.9636513,30.531 L86.9636513,37.5631429 L86.9636513,37.5631429 Z M88.5059743,31.7331429 L90.1950496,31.7331429 C90.8817929,31.7331429 91.255085,32.0295714 91.255085,32.7074286 C91.255085,33.4167143 90.8817929,33.7117143 90.1950496,33.7117143 L88.5059743,33.7117143 L88.5059743,31.7331429 Z" id="Fill-62" fill="#0072BC"></path>
                <path d="M98.5433982,35.3560714 C98.6424204,33.7903571 97.8067876,32.3339286 96.078531,32.3339286 C94.536208,32.3339286 93.4847212,33.4953571 93.4847212,35.0217857 C93.4847212,36.5975 94.477792,37.7017857 96.078531,37.7017857 C97.2283274,37.7017857 98.061823,37.1882143 98.4557743,35.9860714 L97.2283274,35.9860714 C97.1385664,36.3025 96.6869115,36.6460714 96.1283982,36.6460714 C95.3526062,36.6460714 94.9194735,36.2432143 94.8795796,35.3560714 L98.5433982,35.3560714 L98.5433982,35.3560714 Z M94.8795796,34.4703571 C94.9002389,34.0775 95.1545619,33.3875 96.0393496,33.3875 C96.7168319,33.3875 97.0217345,33.7610714 97.1499646,34.4703571 L94.8795796,34.4703571 Z" id="Fill-64" fill="#0072BC"></path>
                <path d="M99.4630929,33.4057143 L98.6274602,33.4057143 L98.6274602,32.4707143 L99.4630929,32.4707143 L99.4630929,32.0778571 C99.4630929,31.1814286 100.022319,30.5314286 101.161429,30.5314286 C101.407204,30.5314286 101.662951,30.5614286 101.897327,30.5707143 L101.897327,31.615 C101.732053,31.595 101.564642,31.5842857 101.386544,31.5842857 C101.014677,31.5842857 100.857239,31.7421429 100.857239,32.1664286 L100.857239,32.4707143 L101.819677,32.4707143 L101.819677,33.4057143 L100.857239,33.4057143 L100.857239,37.5628571 L99.4630929,37.5628571 L99.4630929,33.4057143" id="Fill-66" fill="#0072BC"></path>
                <path d="M107.016273,37.5631429 L105.689804,37.5631429 L105.689804,36.8538571 L105.659883,36.8538571 C105.305826,37.4245714 104.697445,37.701 104.108299,37.701 C102.625817,37.701 102.252525,36.8631429 102.252525,35.6031429 L102.252525,32.471 L103.646671,32.471 L103.646671,35.346 C103.646671,36.1838571 103.891733,36.5974286 104.540719,36.5974286 C105.296565,36.5974286 105.620702,36.1745714 105.620702,35.1395714 L105.620702,32.471 L107.016273,32.471 L107.016273,37.5631429" id="Fill-68" fill="#0072BC"></path>
                <path d="M112.741105,32.471 L111.415348,32.471 L111.415348,33.151 L111.396114,33.151 C111.062715,32.5595714 110.552645,32.3338571 109.882286,32.3338571 C108.458932,32.3338571 107.703087,33.5345714 107.703087,34.8538571 C107.703087,36.2524286 108.350649,37.4152857 109.87445,37.4152857 C110.482118,37.4152857 111.092636,37.1581429 111.396114,36.6274286 L111.415348,36.6274286 L111.415348,37.2974286 C111.425322,38.026 111.071264,38.5574286 110.296185,38.5574286 C109.805348,38.5574286 109.382901,38.3788571 109.253959,37.8581429 L107.869786,37.8581429 C107.938176,39.0195714 109.106494,39.4938571 110.110251,39.4938571 C112.446888,39.4938571 112.741105,38.0745714 112.741105,37.2374286 L112.741105,32.471 M110.227083,36.361 C109.372215,36.361 109.098658,35.5638571 109.098658,34.8352857 C109.098658,34.0774286 109.440605,33.3874286 110.227083,33.3874286 C111.130392,33.3874286 111.415348,34.1252857 111.415348,34.9524286 C111.415348,35.6817143 111.023534,36.361 110.227083,36.361" id="Fill-70" fill="#0072BC"></path>
                <path d="M118.497995,35.3560714 C118.595592,33.7903571 117.760672,32.3339286 116.031703,32.3339286 C114.490092,32.3339286 113.437893,33.4953571 113.437893,35.0217857 C113.437893,36.5975 114.431676,37.7017857 116.031703,37.7017857 C117.181499,37.7017857 118.016419,37.1882143 118.408946,35.9860714 L117.181499,35.9860714 C117.091738,36.3025 116.640796,36.6460714 116.080145,36.6460714 C115.305065,36.6460714 114.872645,36.2432143 114.833464,35.3560714 L118.497995,35.3560714 L118.497995,35.3560714 Z M114.833464,34.4703571 C114.852698,34.0775 115.108446,33.3875 115.992521,33.3875 C116.670716,33.3875 116.974906,33.7610714 117.102424,34.4703571 L114.833464,34.4703571 Z" id="Fill-72" fill="#0072BC"></path>
                <path d="M123.957747,35.3560714 C124.056769,33.7903571 123.221136,32.3339286 121.49288,32.3339286 C119.950557,32.3339286 118.899782,33.4953571 118.899782,35.0217857 C118.899782,36.5975 119.891428,37.7017857 121.49288,37.7017857 C122.641964,37.7017857 123.476172,37.1882143 123.870835,35.9860714 L122.641964,35.9860714 C122.553627,36.3025 122.101973,36.6460714 121.541322,36.6460714 C120.766242,36.6460714 120.333822,36.2432143 120.294641,35.3560714 L123.957747,35.3560714 L123.957747,35.3560714 Z M120.294641,34.4703571 C120.3153,34.0775 120.568911,33.3875 121.453698,33.3875 C122.131893,33.3875 122.436796,33.7610714 122.562888,34.4703571 L120.294641,34.4703571 Z" id="Fill-74" fill="#0072BC"></path>
                <path d="M126.913807,37.5631429 L128.474652,37.5631429 L129.026754,35.9974286 L131.648346,35.9974286 L132.179077,37.5631429 L133.78124,37.5631429 L131.156798,30.531 L129.576006,30.531 L126.913807,37.5631429 Z M130.341824,32.2638571 L130.361771,32.2638571 L131.245134,34.8445714 L129.428541,34.8445714 L130.341824,32.2638571 Z" id="Fill-76" fill="#0072BC"></path>
                <path d="M138.907523,32.471 L137.582479,32.471 L137.582479,33.151 L137.561107,33.151 C137.227709,32.5595714 136.716926,32.3338571 136.048704,32.3338571 C134.623926,32.3338571 133.868081,33.5345714 133.868081,34.8538571 C133.868081,36.2524286 134.517067,37.4152857 136.038731,37.4152857 C136.647112,37.4152857 137.258342,37.1581429 137.561107,36.6274286 L137.582479,36.6274286 L137.582479,37.2974286 C137.590315,38.026 137.23697,38.5574286 136.461178,38.5574286 C135.971054,38.5574286 135.547895,38.3788571 135.419665,37.8581429 L134.034067,37.8581429 C134.104594,39.0195714 135.273625,39.4938571 136.275244,39.4938571 C138.611881,39.4938571 138.907523,38.0745714 138.907523,37.2374286 L138.907523,32.471 M136.392788,36.361 C135.538634,36.361 135.262939,35.5638571 135.262939,34.8352857 C135.262939,34.0774286 135.606311,33.3874286 136.392788,33.3874286 C137.296098,33.3874286 137.582479,34.1252857 137.582479,34.9524286 C137.582479,35.6817143 137.187815,36.361 136.392788,36.361" id="Fill-78" fill="#0072BC"></path>
                <path d="M144.662988,35.3560714 C144.760585,33.7903571 143.92709,32.3339286 142.197408,32.3339286 C140.654373,32.3339286 139.604311,33.4953571 139.604311,35.0217857 C139.604311,36.5975 140.595245,37.7017857 142.197408,37.7017857 C143.346492,37.7017857 144.181413,37.1882143 144.573939,35.9860714 L143.346492,35.9860714 C143.257444,36.3025 142.806501,36.6460714 142.245851,36.6460714 C141.471484,36.6460714 141.037638,36.2432143 140.998457,35.3560714 L144.662988,35.3560714 L144.662988,35.3560714 Z M140.998457,34.4703571 C141.017692,34.0775 141.274152,33.3875 142.157515,33.3875 C142.835709,33.3875 143.140612,33.7610714 143.26813,34.4703571 L140.998457,34.4703571 Z" id="Fill-80" fill="#0072BC"></path>
                <path d="M145.271725,32.471 L146.596769,32.471 L146.596769,33.1802857 L146.627402,33.1802857 C146.980747,32.6088571 147.590552,32.3338571 148.178273,32.3338571 C149.660756,32.3338571 150.035473,33.1702857 150.035473,34.431 L150.035473,37.5631429 L148.639902,37.5631429 L148.639902,34.6867143 C148.639902,33.8495714 148.395552,33.436 147.747278,33.436 C146.990008,33.436 146.665871,33.8595714 146.665871,34.8938571 L146.665871,37.5631429 L145.271725,37.5631429 L145.271725,32.471" id="Fill-82" fill="#0072BC"></path>
                <path d="M154.336595,34.2644286 C154.248971,33.6922857 153.88494,33.3872857 153.305767,33.3872857 C152.412431,33.3872857 152.117502,34.293 152.117502,35.0415714 C152.117502,35.7701429 152.402458,36.6465714 153.275847,36.6465714 C153.924121,36.6465714 154.297413,36.2337143 154.38575,35.6122857 L155.732165,35.6122857 C155.555493,36.9615714 154.62155,37.7015714 153.286533,37.7015714 C151.754183,37.7015714 150.722643,36.6172857 150.722643,35.0908571 C150.722643,33.5058571 151.665135,32.3344286 153.315741,32.3344286 C154.51398,32.3344286 155.614621,32.9644286 155.702245,34.2644286 L154.336595,34.2644286" id="Fill-84" fill="#0072BC"></path>
                <g id="Group-88" transform="translate(155.300885, 32.351000)">
                    <mask id="mask-8" fill="white">
                        <use xlink:href="#path-7"></use>
                    </mask>
                    <g id="Clip-87"></g>
                    <path d="M3.54520575,5.85107143 C3.23959071,6.66892857 2.75872788,7.00392857 1.79628982,7.00392857 C1.51133407,7.00392857 1.22637832,6.98464286 0.941422566,6.95535714 L0.941422566,5.80321429 C1.20714381,5.8225 1.48141372,5.86321429 1.75639602,5.85107143 C2.23654646,5.80321429 2.39612168,5.30035714 2.23654646,4.89607143 L0.450586283,0.120357143 L1.94446681,0.120357143 L3.0928385,3.60607143 L3.11349779,3.60607143 L4.22197566,0.120357143 L5.66741372,0.120357143 L3.54520575,5.85107143" id="Fill-86" fill="#0072BC" mask="url(#mask-8)"></path>
                </g>
            </g>
        </g>
    </g>
</svg>