<?xml version="1.0" encoding="UTF-8"?>
<svg width="243px" height="59px" viewBox="0 0 243 59" version="1.1" xmlns="http://www.w3.org/2000/svg" xmlns:xlink="http://www.w3.org/1999/xlink">
    <!-- Generator: Sketch 55 (78076) - https://sketchapp.com -->
    <title>logo_unhcr_en</title>
    <desc>Created with Sketch.</desc>
    <defs>
        <polygon id="path-1" points="1.05804339 0.759642857 17.9886146 0.759642857 17.9886146 40.1349117 1.05804339 40.1349117"></polygon>
        <polygon id="path-3" points="0.975555382 0.759642857 17.9215214 0.759642857 17.9215214 40.1349117 0.975555382 40.1349117"></polygon>
        <polygon id="path-5" points="0 0.473464286 7.93507962 0.473464286 7.93507962 12.0866786 0 12.0866786"></polygon>
        <polygon id="path-7" points="0.677678571 0.180535714 8.52321429 0.180535714 8.52321429 10.5058929 0.677678571 10.5058929"></polygon>
    </defs>
    <g id="Symbols" stroke="none" stroke-width="1" fill="none" fill-rule="evenodd">
        <g id="header" transform="translate(-150.000000, -24.000000)">
            <g id="logo_unhcr_en" transform="translate(150.000000, 23.000000)">
                <path d="M35.3884286,40.4281071 C36.0741429,40.4281071 35.9852143,40.0391786 35.9852143,39.3116786 L35.9852143,35.77275 C35.9852143,35.0431071 35.9187857,34.8116786 36.3345,34.8116786 C37.7884286,34.8116786 38.1859286,34.6766786 38.1859286,33.3823929 L38.1859286,20.2370357 C38.1859286,16.6563214 35.6584286,17.2498929 34.9480714,15.9416786 C33.9345,14.17275 36.8391429,14.17275 35.7827143,10.3413214 C35.5148571,9.47132143 34.8345,8.93560714 33.5230714,8.93560714 C32.2095,8.93560714 31.527,9.47132143 31.2612857,10.3413214 C30.2080714,14.17275 33.1159286,14.17275 32.1023571,15.9416786 C31.3866429,17.2498929 28.8634286,16.6563214 28.8634286,20.2370357 L28.8634286,33.3823929 C28.8634286,34.6766786 29.2545,34.8116786 30.7148571,34.8116786 C31.1230714,34.8116786 31.0598571,35.0431071 31.0598571,35.77275 L31.0598571,39.3116786 C31.0598571,40.0391786 30.972,40.4281071 31.6609286,40.4281071 L35.3884286,40.4281071" id="Fill-1" fill="#0072BC"></path>
                <g id="Group-5" transform="translate(15.000000, 0.312214)">
                    <mask id="mask-2" fill="white">
                        <use xlink:href="#path-1"></use>
                    </mask>
                    <g id="Clip-4"></g>
                    <path d="M8.88107143,11.60325 C7.58785714,12.9789643 5.54571429,16.1911071 6.87964286,18.8578929 C9.59035714,19.9014643 9.3825,10.26825 12.7628571,10.43325 C14.4321429,11.97825 12.2625,16.5243214 11.5917857,18.5225357 C10.7582143,20.9900357 10.0928571,26.1575357 8.50714286,28.6571786 C7.17642857,30.7453929 8.17392857,37.2939643 7.755,39.5461071 C6.63321429,40.6711071 3.585,39.8761071 2.29285714,39.6661071 C2.29285714,37.0828929 1.95535714,35.04075 1.54285714,30.9103929 C1.50214286,30.0778929 0.624642857,17.3161071 1.33392857,15.7721786 C2.79428571,12.5589643 10.7582143,6.43146429 11.8478571,5.26146429 C12.8014286,4.22003571 16.1796429,0.759321429 17.4739286,0.759321429 C18.3878571,1.38610714 17.8478571,2.84432143 17.6421429,3.42825 C16.3489286,6.64039286 10.7582143,9.80860714 8.88107143,11.60325" id="Fill-3" fill="#0072BC" mask="url(#mask-2)"></path>
                </g>
                <g id="Group-8" transform="translate(33.214286, 0.312214)">
                    <mask id="mask-4" fill="white">
                        <use xlink:href="#path-3"></use>
                    </mask>
                    <g id="Clip-7"></g>
                    <path d="M10.101,11.60325 C11.3492143,12.9789643 13.3967143,16.1911071 12.1002857,18.8578929 C9.34885714,19.9014643 9.55992857,10.26825 6.17742857,10.43325 C4.55528571,11.97825 6.72064286,16.5243214 7.38921429,18.5225357 C8.22385714,20.9900357 8.89242857,26.1575357 10.4717143,28.6571786 C11.7692143,30.7453929 10.8049286,37.2939643 11.181,39.5461071 C12.3520714,40.6711071 15.3520714,39.8761071 16.6870714,39.6661071 C16.6870714,37.0828929 16.9806429,35.04075 17.3963571,30.9103929 C17.4788571,30.0778929 18.3552857,17.3161071 17.6470714,15.7721786 C16.1888571,12.5589643 8.22385714,6.43146429 7.13957143,5.26146429 C6.141,4.22003571 2.80028571,0.759321429 1.506,0.759321429 C0.552428571,1.38610714 1.13421429,2.84432143 1.34207143,3.42825 C2.63635714,6.64039286 8.22385714,9.80860714 10.101,11.60325" id="Fill-6" fill="#0072BC" mask="url(#mask-4)"></path>
                </g>
                <path d="M12.2972143,7.59 C11.5879286,8.26071429 9.99578571,8.71821429 8.9115,10.1753571 C8.49471429,9.38571429 9.579,7.46571429 10.8754286,6.3375 C11.8343571,5.53928571 13.7179286,4.24607143 14.2557857,4.12285714 C14.6757857,5.08285714 13.1736429,6.5475 12.2972143,7.59" id="Fill-9" fill="#0072BC"></path>
                <path d="M10.0806429,12.81525 C8.87207143,13.9381071 7.57778571,14.4009643 5.90207143,16.4506071 C5.19278571,13.9820357 5.361,11.8091786 5.69207143,10.3456071 C6.28028571,8.42667857 7.23921429,6.29239286 8.87207143,5.62596429 C8.53671429,6.71346429 7.98921429,8.21560714 7.866,10.26525 C7.15885714,13.0659643 6.73671429,13.1484643 6.906,13.5245357 C7.06992857,13.5245357 7.98921429,12.0609643 9.11957143,10.9338214 C10.4588571,9.59882143 12.126,9.30310714 13.2124286,8.51132143 C13.0495714,9.05239286 12.0895714,10.7645357 10.0806429,12.81525" id="Fill-11" fill="#0072BC"></path>
                <path d="M4.19303571,24.3895714 C2.56232143,21.4635 2.39410714,19.3324286 2.26660714,16.8638571 C2.35232143,15.1538571 3.18803571,11.1852857 4.44053571,10.6013571 C4.06446429,14.1917143 5.02982143,14.526 4.64946429,17.4927857 C4.64946429,17.6588571 4.22946429,20.7531429 4.22946429,20.9192143 C4.73196429,20.8367143 4.27446429,18.0756429 9.99482143,14.1081429 C8.74767857,16.281 9.32732143,16.9495714 7.06982143,19.8349286 C4.44053571,22.4256429 4.06446429,24.9702857 4.19303571,24.3895714" id="Fill-13" fill="#0072BC"></path>
                <g id="Group-17" transform="translate(0.000000, 18.526500)">
                    <mask id="mask-6" fill="white">
                        <use xlink:href="#path-5"></use>
                    </mask>
                    <g id="Clip-16"></g>
                    <path d="M6.49017857,8.62275 C5.27517857,10.3766786 5.48410714,11.2531071 5.19267857,12.0866786 C2.30517857,10.4173929 -0.949821429,3.77560714 0.25875,0.473464286 C1.01410714,2.97846429 2.05660714,3.52167857 2.80982143,5.61203571 C4.10625,8.74596429 3.90053571,9.70489286 4.73196429,10.4173929 C4.56375,8.78775 5.10696429,6.86453571 5.65553571,5.44382143 C6.44946429,4.23203571 7.06982143,2.64417857 7.66017857,2.09989286 C8.28482143,4.40239286 7.82410714,6.28060714 6.49017857,8.62275" id="Fill-15" fill="#0072BC" mask="url(#mask-6)"></path>
                </g>
                <path d="M9.08089286,32.8308214 C9.08089286,35.3786786 8.61803571,36.5090357 8.41017857,38.38725 C3.43660714,36.7586786 0.844821429,31.0758214 0.844821429,28.27725 C2.35232143,31.7015357 4.56482143,31.6586786 7.45339286,36.5090357 C7.70196429,34.66725 6.94767857,36.0461786 6.86625,32.5811786 C6.94767857,28.94475 7.70196429,28.8161786 7.82410714,26.5629643 C8.74767857,27.5636786 9.08089286,31.5783214 9.08089286,32.8308214" id="Fill-18" fill="#0072BC"></path>
                <path d="M13.2132857,40.0566429 C13.5925714,41.937 13.7565,44.1537857 14.0522143,45.7845 C11.2129286,44.7398571 10.4972143,45.5327143 7.11685714,43.4005714 C5.56757143,42.5637857 2.81078571,39.057 2.98328571,36.5455714 C6.32292857,40.2666429 6.90685714,39.8509286 8.53757143,41.2266429 C10.0407857,42.4405714 11.2504286,44.2373571 12.3422143,43.9887857 C12.4215,42.9848571 9.87471429,40.8098571 10.2068571,34.5441429 C10.8754286,35.2512857 12.7129286,38.0927143 13.2132857,40.0566429" id="Fill-20" fill="#0072BC"></path>
                <path d="M18.8560714,44.7399643 C19.7325,45.9913929 19.5267857,46.5346071 21.7842857,49.12425 C21.2357143,49.3749643 18.0235714,50.21175 15.8860714,50.2974643 C14.4717857,50.2974643 9.45535714,48.95925 7.78607143,45.5328214 C10.6671429,47.0778214 10.7110714,46.7028214 14.5521429,47.5385357 C17.3121429,48.1653214 19.275,49.04175 20.0282143,48.95925 C19.8610714,48.58425 17.7332143,47.7046071 16.2685714,45.8671071 C14.8028571,43.9031786 15.1382143,41.6885357 13.8396429,40.05675 C14.7203571,39.8060357 18.1457143,43.8206786 18.8560714,44.7399643" id="Fill-22" fill="#0072BC"></path>
                <path d="M54.6647143,7.59 C55.3332857,8.26071429 56.964,8.71821429 58.0086429,10.1753571 C58.4672143,9.38571429 57.3432857,7.46571429 56.0447143,6.3375 C55.1318571,5.53928571 53.2461429,4.24607143 52.6568571,4.12285714 C52.2411429,5.08285714 53.7443571,6.5475 54.6647143,7.59" id="Fill-24" fill="#0072BC"></path>
                <path d="M56.8808571,12.81525 C58.0508571,13.9381071 59.3483571,14.4009643 61.0144286,16.4506071 C61.728,13.9820357 61.5587143,11.8091786 61.2308571,10.3456071 C60.6876429,8.42667857 59.6815714,6.29239286 58.0508571,5.62596429 C58.4301429,6.71346429 58.9294286,8.21560714 59.0547857,10.26525 C59.7640714,13.0659643 60.183,13.1484643 60.0158571,13.5245357 C59.8497857,13.5245357 58.9294286,12.0609643 57.798,10.9338214 C56.5069286,9.59882143 54.8301429,9.30310714 53.7062143,8.51132143 C53.8744286,9.05239286 54.8762143,10.7645357 56.8808571,12.81525" id="Fill-26" fill="#0072BC"></path>
                <path d="M62.7323571,24.3895714 C64.4037857,21.4635 64.5237857,19.3324286 64.6555714,16.8638571 C64.5677143,15.1538571 63.732,11.1852857 62.5223571,10.6013571 C62.8555714,14.1917143 61.8945,14.526 62.3123571,17.4927857 C62.3123571,17.6588571 62.6905714,20.7531429 62.6905714,20.9192143 C62.2298571,20.8367143 62.6455714,18.0756429 56.9637857,14.1081429 C58.1777143,16.281 57.5895,16.9495714 59.8491429,19.8349286 C62.5223571,22.4256429 62.8555714,24.9702857 62.7323571,24.3895714" id="Fill-28" fill="#0072BC"></path>
                <path d="M60.4712143,27.14925 C61.6465714,28.9031786 61.4355,29.7796071 61.728,30.6131786 C64.6133571,28.9438929 67.9112143,22.3021071 66.6576429,18.9999643 C65.9472857,21.5049643 64.8619286,22.0481786 64.1526429,24.1385357 C62.8155,27.2724643 63.0212143,28.2313929 62.2294286,28.9438929 C62.3944286,27.31425 61.8105,25.3910357 61.2672857,23.9703214 C60.5162143,22.7585357 59.8497857,21.1706786 59.2605,20.6263929 C58.6765714,22.9288929 59.0922857,24.8071071 60.4712143,27.14925" id="Fill-30" fill="#0072BC"></path>
                <path d="M57.8423571,32.8308214 C57.8423571,35.3786786 58.3395,36.5090357 58.5527143,38.38725 C63.4866429,36.7586786 66.117,31.0758214 66.117,28.27725 C64.5677143,31.7015357 62.3948571,31.6586786 59.4730714,36.5090357 C59.2212857,34.66725 59.9702143,36.0461786 60.0559286,32.5811786 C59.9702143,28.94475 59.2212857,28.8161786 59.0927143,26.5629643 C58.1787857,27.5636786 57.8423571,31.5783214 57.8423571,32.8308214" id="Fill-32" fill="#0072BC"></path>
                <path d="M53.7068571,40.0566429 C53.3286429,41.937 53.2043571,44.1537857 52.9129286,45.7845 C55.7125714,44.7398571 56.4229286,45.5327143 59.8043571,43.4005714 C61.3515,42.5637857 64.1532857,39.057 63.9850714,36.5455714 C60.6411429,40.2666429 60.0165,39.8509286 58.4307857,41.2266429 C56.9232857,42.4405714 55.6697143,44.2373571 54.5811429,43.9887857 C54.4986429,42.9848571 57.0465,40.8098571 56.7561429,34.5441429 C56.0447143,35.2512857 54.2050714,38.0927143 53.7068571,40.0566429" id="Fill-34" fill="#0072BC"></path>
                <path d="M48.0624643,44.7399643 C47.2246071,45.9913929 47.4324643,46.5346071 45.1385357,49.12425 C45.7213929,49.3749643 48.89925,50.21175 51.0731786,50.2974643 C52.4510357,50.2974643 57.4663929,48.95925 59.1335357,45.5328214 C56.25675,47.0778214 56.2096071,46.7028214 52.3685357,47.5385357 C49.6085357,48.1653214 47.6874643,49.04175 46.89675,48.95925 C47.0606786,48.58425 49.2303214,47.7046071 50.6574643,45.8671071 C52.11675,43.9031786 51.7835357,41.6885357 53.1185357,40.05675 C52.2035357,39.8060357 48.7771071,43.8206786 48.0624643,44.7399643" id="Fill-36" fill="#0072BC"></path>
                <path d="M26.33625,56.5215 L25.4994643,56.1025714 C25.4994643,56.1025714 30.8126786,49.6257857 39.9166071,50.1293571 C49.0258929,50.6307857 48.4001786,52.764 53.2858929,52.4265 C53.8301786,52.3857857 52.8701786,53.0982857 52.8701786,53.0982857 C52.8701786,53.0982857 48.1055357,54.9315 42.21375,52.9279286 C36.3626786,50.9222143 32.5591071,49.7093571 26.33625,56.5215" id="Fill-38" fill="#0072BC"></path>
                <path d="M40.7486786,56.5215 L41.5908214,56.1025714 C41.5908214,56.1025714 36.3236786,49.6257857 27.2154643,50.1293571 C18.0643929,50.6307857 18.6911786,52.764 13.8033214,52.4265 C13.2590357,52.3857857 14.2190357,53.0982857 14.2190357,53.0982857 C14.2190357,53.0982857 18.9793929,54.9315 24.8743929,52.9279286 C30.7629643,50.9222143 34.5686786,49.7093571 40.7486786,56.5215" id="Fill-40" fill="#0072BC"></path>
                <path d="M105.327429,28.3436786 C105.327429,37.0736786 100.612071,41.2629643 91.0013571,41.2629643 C81.3863571,41.2629643 76.6249286,37.0736786 76.6249286,28.3436786 L76.6249286,9.03439286 L86.3245714,9.03439286 L86.3245714,26.1836786 C86.3245714,29.4001071 86.3245714,33.4158214 91.0431429,33.4158214 C95.6288571,33.4158214 95.6288571,29.4001071 95.6288571,26.1836786 L95.6288571,9.03439286 L105.327429,9.03439286 L105.327429,28.3436786" id="Fill-42" fill="#0072BC"></path>
                <polygon id="Fill-44" fill="#0072BC" points="111.148071 9.03385714 121.066286 9.03385714 130.237714 25.8735 130.3245 25.8735 130.3245 9.03385714 139.494857 9.03385714 139.494857 40.5092143 130.060929 40.5092143 120.406286 23.3181429 120.317357 23.3181429 120.317357 40.5092143 111.148071 40.5092143"></polygon>
                <polygon id="Fill-46" fill="#0072BC" points="145.448464 9.03385714 155.148107 9.03385714 155.148107 19.9667143 164.231679 19.9667143 164.231679 9.03385714 173.93025 9.03385714 173.93025 40.5092143 164.231679 40.5092143 164.231679 28.0345714 155.148107 28.0345714 155.148107 40.5092143 145.448464 40.5092143"></polygon>
                <path d="M198.753,20.7615 C198.576214,19.614 197.694429,16.1329286 193.679786,16.1329286 C189.138,16.1329286 187.686214,20.5386429 187.686214,24.7718571 C187.686214,29.0029286 189.138,33.4150714 193.679786,33.4150714 C196.9455,33.4150714 198.223714,31.1211429 198.798,28.1682857 L208.319786,28.1682857 C208.319786,34.5154286 203.159786,41.2622143 193.946571,41.2622143 C183.762643,41.2622143 177.984429,34.0750714 177.984429,24.7718571 C177.984429,14.8515 184.248,8.28471429 193.946571,8.28471429 C202.5855,8.3265 207.350143,12.8693571 208.185857,20.7615 L198.753,20.7615" id="Fill-48" fill="#0072BC"></path>
                <path d="M212.373,40.5107143 L222.073714,40.5107143 L222.073714,29.535 L227.235857,29.535 C231.068357,29.535 231.331929,32.6657143 231.597643,35.6646429 C231.727286,37.2953571 231.904071,38.9260714 232.392643,40.5107143 L242.092286,40.5107143 C241.207286,39.0567857 241.166571,35.31 241.031571,33.7682143 C240.679071,29.8425 239.049429,26.9335714 236.403,25.9189286 C239.622643,24.7275 241.121571,21.2903571 241.121571,18.0278571 C241.121571,12.0728571 236.355857,9.03428571 230.847643,9.03428571 L212.373,9.03428571 L212.373,40.5107143 L212.373,40.5107143 Z M222.073714,16.5267857 L226.6155,16.5267857 C230.3205,16.5267857 231.421929,17.6732143 231.421929,19.6596429 C231.421929,22.4764286 228.951214,22.7882143 227.144786,22.7882143 L222.073714,22.7882143 L222.073714,16.5267857 Z" id="Fill-50" fill="#0072BC"></path>
                <polygon id="Fill-52" fill="#0072BC" points="79.7815714 47.7470357 76.6197857 47.7470357 76.6197857 45.7970357 85.2619286 45.7970357 85.2619286 47.7470357 82.1001429 47.7470357 82.1001429 56.3441786 79.7815714 56.3441786"></polygon>
                <path d="M85.9851429,45.7967143 L88.0840714,45.7967143 L88.0840714,49.7706429 L88.1258571,49.7706429 C88.6605,48.9135 89.5755,48.4999286 90.3587143,48.4999286 C92.5883571,48.4999286 93.1508571,49.7556429 93.1508571,51.6467143 L93.1508571,56.3449286 L91.0508571,56.3449286 L91.0508571,52.0292143 C91.0508571,50.7745714 90.6844286,50.1531429 89.7094286,50.1531429 C88.5715714,50.1531429 88.0840714,50.7895714 88.0840714,52.3399286 L88.0840714,56.3449286 L85.9851429,56.3449286 L85.9851429,45.7967143" id="Fill-54" fill="#0072BC"></path>
                <path d="M99.5601429,51.7053214 C99.3683571,50.6413929 98.9097857,50.0810357 97.8908571,50.0810357 C96.5622857,50.0810357 96.1765714,51.1160357 96.1487143,51.7053214 L99.5601429,51.7053214 L99.5601429,51.7053214 Z M96.1487143,53.0338929 C96.2076429,54.3646071 96.8569286,54.9688929 98.0237143,54.9688929 C98.868,54.9688929 99.5451429,54.4535357 99.678,53.9788929 L101.525143,53.9788929 C100.933714,55.7831786 99.678,56.5513929 97.9497857,56.5513929 C95.5444286,56.5513929 94.0497857,54.8971071 94.0497857,52.5324643 C94.0497857,50.2428214 95.6322857,48.5006786 97.9497857,48.5006786 C100.550143,48.5006786 101.805857,50.6853214 101.660143,53.0338929 L96.1487143,53.0338929 Z" id="Fill-56" fill="#0072BC"></path>
                <path d="M115.280464,52.3571786 C115.280464,55.2071786 113.596179,56.5936071 110.775107,56.5936071 C107.939036,56.5936071 106.283679,55.2221786 106.283679,52.3571786 L106.283679,45.7968214 L108.603321,45.7968214 L108.603321,52.3571786 C108.603321,53.5078929 108.899036,54.64575 110.775107,54.64575 C112.429393,54.64575 112.960821,53.9214643 112.960821,52.3571786 L112.960821,45.7968214 L115.280464,45.7968214 L115.280464,52.3571786" id="Fill-58" fill="#0072BC"></path>
                <polygon id="Fill-60" fill="#0072BC" points="116.831679 45.7967143 119.136321 45.7967143 123.538821 52.8724286 123.56775 52.8724286 123.56775 45.7967143 125.739536 45.7967143 125.739536 56.3449286 123.419893 56.3449286 119.032393 49.2842143 119.002393 49.2842143 119.002393 56.3449286 116.831679 56.3449286"></polygon>
                <path d="M130.792714,56.3447143 L133.112357,56.3447143 L133.112357,52.2207857 L135.430929,52.2207857 C136.597714,52.2207857 137.027357,52.7093571 137.189143,53.8172143 C137.307,54.6604286 137.278071,55.6804286 137.557714,56.3447143 L139.877357,56.3447143 C139.464857,55.7511429 139.477714,54.5104286 139.433786,53.8482857 C139.360929,52.7843571 139.037357,51.6775714 137.898429,51.3807857 L137.898429,51.3518571 C139.065214,50.8782857 139.566643,49.9461429 139.566643,48.7065 C139.566643,47.1132857 138.372,45.7965 136.479857,45.7965 L130.792714,45.7965 L130.792714,56.3447143 L130.792714,56.3447143 Z M133.112357,47.5997143 L135.652714,47.5997143 C136.685571,47.5997143 137.247,48.0443571 137.247,49.0611429 C137.247,50.1250714 136.685571,50.5675714 135.652714,50.5675714 L133.112357,50.5675714 L133.112357,47.5997143 Z" id="Fill-62" fill="#0072BC"></path>
                <path d="M148.208571,53.0341071 C148.3575,50.6855357 147.100714,48.5008929 144.501429,48.5008929 C142.181786,48.5008929 140.600357,50.2430357 140.600357,52.5326786 C140.600357,54.89625 142.093929,56.5526786 144.501429,56.5526786 C146.230714,56.5526786 147.484286,55.7823214 148.076786,53.9791071 L146.230714,53.9791071 C146.095714,54.45375 145.416429,54.9691071 144.576429,54.9691071 C143.409643,54.9691071 142.758214,54.3648214 142.698214,53.0341071 L148.208571,53.0341071 L148.208571,53.0341071 Z M142.698214,51.7055357 C142.729286,51.11625 143.111786,50.08125 144.4425,50.08125 C145.461429,50.08125 145.92,50.6416071 146.112857,51.7055357 L142.698214,51.7055357 Z" id="Fill-64" fill="#0072BC"></path>
                <path d="M149.591786,50.1085714 L148.335,50.1085714 L148.335,48.7060714 L149.591786,48.7060714 L149.591786,48.1167857 C149.591786,46.7721429 150.432857,45.7971429 152.146071,45.7971429 C152.515714,45.7971429 152.900357,45.8421429 153.252857,45.8560714 L153.252857,47.4225 C153.004286,47.3925 152.7525,47.3764286 152.484643,47.3764286 C151.925357,47.3764286 151.688571,47.6132143 151.688571,48.2496429 L151.688571,48.7060714 L153.136071,48.7060714 L153.136071,50.1085714 L151.688571,50.1085714 L151.688571,56.3442857 L149.591786,56.3442857 L149.591786,50.1085714" id="Fill-66" fill="#0072BC"></path>
                <path d="M160.951714,56.3447143 L158.956714,56.3447143 L158.956714,55.2807857 L158.911714,55.2807857 C158.379214,56.1368571 157.464214,56.5515 156.578143,56.5515 C154.3485,56.5515 153.787071,55.2947143 153.787071,53.4047143 L153.787071,48.7065 L155.883857,48.7065 L155.883857,53.019 C155.883857,54.2757857 156.252429,54.8961429 157.2285,54.8961429 C158.365286,54.8961429 158.852786,54.2618571 158.852786,52.7093571 L158.852786,48.7065 L160.951714,48.7065 L160.951714,56.3447143" id="Fill-68" fill="#0072BC"></path>
                <path d="M169.561821,48.7065 L167.567893,48.7065 L167.567893,49.7265 L167.538964,49.7265 C167.037536,48.8393571 166.270393,48.5007857 165.262179,48.5007857 C163.121464,48.5007857 161.984679,50.3018571 161.984679,52.2807857 C161.984679,54.3786429 162.958607,56.1229286 165.250393,56.1229286 C166.164321,56.1229286 167.082536,55.7372143 167.538964,54.9411429 L167.567893,54.9411429 L167.567893,55.9461429 C167.582893,57.039 167.050393,57.8361429 165.884679,57.8361429 C165.146464,57.8361429 164.511107,57.5682857 164.317179,56.7872143 L162.235393,56.7872143 C162.33825,58.5293571 164.095393,59.2407857 165.605036,59.2407857 C169.119321,59.2407857 169.561821,57.1118571 169.561821,55.8561429 L169.561821,48.7065 M165.78075,54.5415 C164.495036,54.5415 164.083607,53.3457857 164.083607,52.2529286 C164.083607,51.1161429 164.597893,50.0811429 165.78075,50.0811429 C167.139321,50.0811429 167.567893,51.1879286 167.567893,52.4286429 C167.567893,53.5225714 166.978607,54.5415 165.78075,54.5415" id="Fill-70" fill="#0072BC"></path>
                <path d="M178.220143,53.0341071 C178.366929,50.6855357 177.111214,48.5008929 174.510857,48.5008929 C172.192286,48.5008929 170.609786,50.2430357 170.609786,52.5326786 C170.609786,54.89625 172.104429,56.5526786 174.510857,56.5526786 C176.240143,56.5526786 177.495857,55.7823214 178.086214,53.9791071 L176.240143,53.9791071 C176.105143,54.45375 175.426929,54.9691071 174.583714,54.9691071 C173.418,54.9691071 172.767643,54.3648214 172.708714,53.0341071 L178.220143,53.0341071 L178.220143,53.0341071 Z M172.708714,51.7055357 C172.737643,51.11625 173.122286,50.08125 174.451929,50.08125 C175.471929,50.08125 175.929429,50.6416071 176.121214,51.7055357 L172.708714,51.7055357 Z" id="Fill-72" fill="#0072BC"></path>
                <path d="M186.431571,53.0341071 C186.5805,50.6855357 185.323714,48.5008929 182.724429,48.5008929 C180.404786,48.5008929 178.824429,50.2430357 178.824429,52.5326786 C178.824429,54.89625 180.315857,56.5526786 182.724429,56.5526786 C184.452643,56.5526786 185.707286,55.7823214 186.300857,53.9791071 L184.452643,53.9791071 C184.319786,54.45375 183.6405,54.9691071 182.797286,54.9691071 C181.631571,54.9691071 180.981214,54.3648214 180.922286,53.0341071 L186.431571,53.0341071 L186.431571,53.0341071 Z M180.922286,51.7055357 C180.953357,51.11625 181.334786,50.08125 182.6655,50.08125 C183.6855,50.08125 184.144071,50.6416071 184.333714,51.7055357 L180.922286,51.7055357 Z" id="Fill-74" fill="#0072BC"></path>
                <path d="M190.877464,56.3447143 L193.224964,56.3447143 L194.055321,53.9961429 L197.998179,53.9961429 L198.796393,56.3447143 L201.206036,56.3447143 L197.258893,45.7965 L194.881393,45.7965 L190.877464,56.3447143 Z M196.033179,48.3957857 L196.063179,48.3957857 L197.39175,52.2668571 L194.659607,52.2668571 L196.033179,48.3957857 Z" id="Fill-76" fill="#0072BC"></path>
                <path d="M208.915929,48.7065 L206.923071,48.7065 L206.923071,49.7265 L206.890929,49.7265 C206.3895,48.8393571 205.621286,48.5007857 204.616286,48.5007857 C202.473429,48.5007857 201.336643,50.3018571 201.336643,52.2807857 C201.336643,54.3786429 202.312714,56.1229286 204.601286,56.1229286 C205.516286,56.1229286 206.435571,55.7372143 206.890929,54.9411429 L206.923071,54.9411429 L206.923071,55.9461429 C206.934857,57.039 206.403429,57.8361429 205.236643,57.8361429 C204.4995,57.8361429 203.863071,57.5682857 203.670214,56.7872143 L201.586286,56.7872143 C201.692357,58.5293571 203.450571,59.2407857 204.957,59.2407857 C208.471286,59.2407857 208.915929,57.1118571 208.915929,55.8561429 L208.915929,48.7065 M205.133786,54.5415 C203.849143,54.5415 203.4345,53.3457857 203.4345,52.2529286 C203.4345,51.1161429 203.950929,50.0811429 205.133786,50.0811429 C206.492357,50.0811429 206.923071,51.1879286 206.923071,52.4286429 C206.923071,53.5225714 206.3295,54.5415 205.133786,54.5415" id="Fill-78" fill="#0072BC"></path>
                <path d="M217.572107,53.0341071 C217.718893,50.6855357 216.465321,48.5008929 213.863893,48.5008929 C211.543179,48.5008929 209.963893,50.2430357 209.963893,52.5326786 C209.963893,54.89625 211.45425,56.5526786 213.863893,56.5526786 C215.592107,56.5526786 216.847821,55.7823214 217.438179,53.9791071 L215.592107,53.9791071 C215.458179,54.45375 214.779964,54.9691071 213.93675,54.9691071 C212.772107,54.9691071 212.119607,54.3648214 212.060679,53.0341071 L217.572107,53.0341071 L217.572107,53.0341071 Z M212.060679,51.7055357 C212.089607,51.11625 212.475321,50.08125 213.803893,50.08125 C214.823893,50.08125 215.282464,50.6416071 215.47425,51.7055357 L212.060679,51.7055357 Z" id="Fill-80" fill="#0072BC"></path>
                <path d="M218.487643,48.7065 L220.4805,48.7065 L220.4805,49.7704286 L220.526571,49.7704286 C221.058,48.9132857 221.975143,48.5007857 222.859071,48.5007857 C225.088714,48.5007857 225.652286,49.7554286 225.652286,51.6465 L225.652286,56.3447143 L223.553357,56.3447143 L223.553357,52.0300714 C223.553357,50.7743571 223.185857,50.154 222.210857,50.154 C221.071929,50.154 220.584429,50.7893571 220.584429,52.3407857 L220.584429,56.3447143 L218.487643,56.3447143 L218.487643,48.7065" id="Fill-82" fill="#0072BC"></path>
                <path d="M232.121143,51.3966429 C231.989357,50.5384286 231.441857,50.0809286 230.570786,50.0809286 C229.227214,50.0809286 228.783643,51.4395 228.783643,52.5623571 C228.783643,53.6552143 229.212214,54.9698571 230.525786,54.9698571 C231.500786,54.9698571 232.062214,54.3505714 232.195071,53.4184286 L234.220071,53.4184286 C233.954357,55.4423571 232.549714,56.5523571 230.541857,56.5523571 C228.237214,56.5523571 226.685786,54.9259286 226.685786,52.6362857 C226.685786,50.2587857 228.103286,48.5016429 230.585786,48.5016429 C232.387929,48.5016429 234.043286,49.4466429 234.175071,51.3966429 L232.121143,51.3966429" id="Fill-84" fill="#0072BC"></path>
                <g id="Group-88" transform="translate(233.571429, 48.526500)">
                    <mask id="mask-8" fill="white">
                        <use xlink:href="#path-7"></use>
                    </mask>
                    <g id="Clip-87"></g>
                    <path d="M5.33196429,8.77660714 C4.87232143,10.0033929 4.14910714,10.5058929 2.70160714,10.5058929 C2.27303571,10.5058929 1.84446429,10.4769643 1.41589286,10.4330357 L1.41589286,8.70482143 C1.81553571,8.73375 2.22803571,8.79482143 2.64160714,8.77660714 C3.36375,8.70482143 3.60375,7.95053571 3.36375,7.34410714 L0.677678571,0.180535714 L2.92446429,0.180535714 L4.65160714,5.40910714 L4.68267857,5.40910714 L6.34982143,0.180535714 L8.52375,0.180535714 L5.33196429,8.77660714" id="Fill-86" fill="#0072BC" mask="url(#mask-8)"></path>
                </g>
            </g>
        </g>
    </g>
</svg>