<?xml version="1.0" encoding="UTF-8"?>
<svg width="146px" height="12px" viewBox="0 0 146 12" version="1.1" xmlns="http://www.w3.org/2000/svg" xmlns:xlink="http://www.w3.org/1999/xlink">
    <!-- Generator: Sketch 55 (78076) - https://sketchapp.com -->
    <title>powered_by_iraiser</title>
    <desc>Created with Sketch.</desc>
    <defs>
        <polygon id="path-1" points="0 12 55.44075 12 55.44075 0 0 0"></polygon>
    </defs>
    <g id="Symbols" stroke="none" stroke-width="1" fill="none" fill-rule="evenodd">
        <g id="footer" transform="translate(-1146.000000, -18.000000)">
            <g id="powered_by_iraiser" transform="translate(1146.000000, 18.000000)">
                <g id="Group-12" transform="translate(90.000000, 0.000000)">
                    <path d="M1.57005,1.621425 C1.57005,1.496925 1.59705,1.355925 1.65105,1.199175 C1.7058,1.041675 1.79355,0.893175 1.9158,0.755925 C2.03805,0.617175 2.20005,0.500925 2.4033,0.405675 C2.6073,0.311175 2.8608,0.263175 3.1638,0.263175 C3.35355,0.263175 3.5328,0.284925 3.7008,0.328425 C3.8688,0.371925 4.0158,0.438675 4.1403,0.527925 C4.26555,0.617175 4.36455,0.734925 4.4373,0.881925 C4.5108,1.028175 4.5468,1.201425 4.5468,1.402425 C4.5468,1.586175 4.51755,1.765425 4.45755,1.939425 C4.3983,2.112675 4.30305,2.267175 4.1733,2.402925 C4.0428,2.538675 3.87855,2.648175 3.68055,2.731425 C3.48255,2.816175 3.24555,2.857425 2.9688,2.857425 C2.4918,2.857425 2.1393,2.745675 1.91205,2.520675 C1.68405,2.295675 1.57005,1.995675 1.57005,1.621425 L1.57005,1.621425 Z M5.20605,9.983925 C5.01105,10.163175 4.76805,10.354425 4.4778,10.557675 C4.18755,10.760925 3.8748,10.948425 3.5388,11.118675 C3.20205,11.289675 2.8593,11.432175 2.50905,11.545425 C2.15955,11.660175 1.8273,11.716425 1.51305,11.716425 C1.23105,11.716425 0.9933,11.677425 0.8013,11.598675 C0.60855,11.519925 0.45255,11.410425 0.3333,11.269425 C0.21405,11.128425 0.12855,10.955925 0.07755,10.752675 C0.0258,10.549425 0.0003,10.325175 0.0003,10.081425 C0.0003,9.740175 0.0393,9.342675 0.11805,8.889675 C0.19605,8.437425 0.2928,7.967925 0.4068,7.481925 C0.5208,6.997425 0.64155,6.512925 0.76905,6.030675 C0.8958,5.547675 1.0083,5.103675 1.10655,4.697175 C1.14405,4.555425 1.22055,4.434675 1.33455,4.334175 C1.4478,4.233675 1.5768,4.152675 1.7208,4.090425 C1.86405,4.028175 2.0133,3.981675 2.1678,3.951675 C2.3223,3.922425 2.4618,3.907425 2.5863,3.907425 C2.8143,3.907425 2.9688,3.949425 3.05055,4.033425 C3.13155,4.117425 3.17205,4.230675 3.17205,4.370925 C3.17205,4.490175 3.14505,4.662675 3.09105,4.887675 C3.03705,5.112675 2.9688,5.367675 2.8878,5.651925 C2.80605,5.936925 2.7198,6.243675 2.62755,6.572175 C2.5353,6.899925 2.4483,7.227675 2.36655,7.556175 C2.28555,7.884675 2.21805,8.203425 2.16405,8.515425 C2.1093,8.827425 2.0823,9.107925 2.0823,9.357675 C2.0823,9.602175 2.1093,9.795675 2.16405,9.939675 C2.21805,10.082925 2.32905,10.154925 2.49705,10.154925 C2.6928,10.154925 2.90955,10.086675 3.14805,9.950925 C3.38655,9.815925 3.62805,9.651675 3.8718,9.458925 C4.1163,9.266925 4.3548,9.068175 4.5873,8.861175 C4.82055,8.655675 5.0268,8.479425 5.20605,8.332425 L5.20605,9.983925 Z" id="Fill-1" fill="#80B439"></path>
                    <path d="M8.1618,2.103375 L8.1618,5.836125 L11.51055,5.836125 C12.91005,5.836125 13.51005,4.902375 13.51005,3.969375 C13.51005,3.036375 12.89355,2.103375 11.51055,2.103375 L8.1618,2.103375 Z M16.2918,11.716125 L13.67655,11.716125 L10.27755,7.817625 L8.1618,7.817625 L8.1618,11.716125 L5.96205,11.716125 L5.96205,0.037125 C7.81155,0.037125 9.66105,0.054375 11.51055,0.054375 C14.2593,0.070875 15.70905,1.903125 15.70905,3.919875 C15.70905,5.518875 14.97555,7.135125 12.76005,7.585125 L16.2918,11.566875 L16.2918,11.716125 Z" id="Fill-3" fill="#FFFFFF"></path>
                    <path d="M15.865425,8.211075 C16.076925,7.232325 16.451175,6.243075 16.917675,5.298825 C17.402925,4.318575 18.007425,3.289575 18.870675,2.523075 C19.632675,1.847325 20.575425,1.447575 21.366675,1.857825 C22.130175,2.254575 22.613175,3.045075 23.019675,3.768825 C23.930175,5.388825 24.618675,7.141575 25.402425,8.838825 C25.759425,9.613575 25.023675,10.677075 24.320175,11.301075 C24.015675,11.571075 23.651925,11.800575 23.334675,11.596575 C23.021925,11.394825 22.883925,10.958325 22.738425,10.629825 C22.329675,9.700575 21.977175,8.740575 21.567675,7.812825 C21.164175,6.900075 20.747175,5.897325 20.010675,5.227575 C19.756425,4.998075 19.412925,4.764825 19.021425,5.112075 C18.582675,5.502075 18.365175,6.065325 18.179925,6.567075 C17.783175,7.643325 17.589675,8.736825 17.294925,9.821325 C16.818675,9.285075 16.342425,8.748825 15.865425,8.211075" id="Fill-5" fill="#80B439"></path>
                    <mask id="mask-2" fill="white">
                        <use xlink:href="#path-1"></use>
                    </mask>
                    <g id="Clip-8"></g>
                    <path d="M27.21975,11.7165 L29.25225,11.7165 L29.25225,3.4695 L27.21975,3.4695 L27.21975,11.7165 Z M29.436,1.18725 C29.436,2.76975 27.036,2.76975 27.036,1.18725 C27.036,-0.396 29.436,-0.396 29.436,1.18725 L29.436,1.18725 Z" id="Fill-7" fill="#FFFFFF" mask="url(#mask-2)"></path>
                    <path d="M36.4494,5.685675 C35.86665,5.135925 35.1999,4.952175 34.41615,4.952175 C33.45015,4.952175 32.9169,5.252175 32.9169,5.768925 C32.9169,6.301425 33.40065,6.602175 34.4499,6.668925 C35.99865,6.767925 37.96515,7.118175 37.96515,9.300675 C37.96515,10.750425 36.7824,11.999925 34.4334,11.999925 C33.13365,11.999925 31.83465,11.783925 30.63465,10.534425 L31.6344,9.083925 C32.21715,9.733425 33.55065,10.217175 34.4664,10.233675 C35.2329,10.250925 35.94915,9.851175 35.94915,9.251175 C35.94915,8.684175 35.48265,8.451675 34.3164,8.384925 C32.7669,8.267925 30.9174,7.701675 30.9174,5.835675 C30.9174,3.935925 32.8839,3.269175 34.38315,3.269175 C35.66565,3.269175 36.6324,3.519675 37.58265,4.352925 L36.4494,5.685675 Z" id="Fill-9" fill="#FFFFFF" mask="url(#mask-2)"></path>
                    <path d="M45.46185,6.65175 C45.32835,5.58525 44.49585,5.052 43.3296,5.052 C42.22935,5.052 41.32935,5.58525 41.0301,6.65175 L45.46185,6.65175 Z M40.9971,8.33475 C41.1306,9.351 42.01335,10.08375 43.44585,10.08375 C44.19585,10.08375 45.17835,9.80025 45.64485,9.318 L46.94535,10.6005 C46.07835,11.5005 44.66235,11.93325 43.41285,11.93325 C40.5801,11.93325 38.89785,10.18425 38.89785,7.55175 C38.89785,5.05275 40.59735,3.2535 43.26285,3.2535 C46.0116,3.2535 47.7276,4.95225 47.4111,8.33475 L40.9971,8.33475 Z" id="Fill-10" fill="#FFFFFF" mask="url(#mask-2)"></path>
                    <path d="M50.859075,3.503025 L51.009075,4.452525 C51.642075,3.436275 52.491825,3.286275 53.325075,3.286275 C54.174825,3.286275 54.990825,3.619275 55.440825,4.069275 L54.525075,5.835525 C54.108075,5.486025 53.724825,5.302275 53.058825,5.302275 C51.992325,5.302275 51.009075,5.868525 51.009075,7.385025 L51.009075,11.716275 L48.975825,11.716275 L48.975825,3.503025 L50.859075,3.503025 Z" id="Fill-11" fill="#FFFFFF" mask="url(#mask-2)"></path>
                </g>
                <path d="M0,10.814 L0,2.143 L3.653,2.143 C5.434,2.143 6.422,3.365 6.422,4.808 C6.422,6.251 5.421,7.473 3.653,7.473 L1.3,7.473 L1.3,10.814 L0,10.814 Z M5.083,4.808 C5.083,3.898 4.42,3.287 3.484,3.287 L1.3,3.287 L1.3,6.329 L3.484,6.329 C4.42,6.329 5.083,5.718 5.083,4.808 Z M7.397,6.485 C7.397,3.911 9.178,2 11.765,2 C14.352,2 16.133,3.911 16.133,6.485 C16.133,9.059 14.352,10.97 11.765,10.97 C9.178,10.97 7.397,9.059 7.397,6.485 Z M14.794,6.485 C14.794,4.574 13.598,3.157 11.765,3.157 C9.906,3.157 8.736,4.574 8.736,6.485 C8.736,8.383 9.906,9.813 11.765,9.813 C13.598,9.813 14.794,8.383 14.794,6.485 Z M24.349,10.814 L22.542,4.119 L20.748,10.814 L19.357,10.814 L16.874,2.143 L18.33,2.143 L20.124,9.098 L22.022,2.143 L23.075,2.143 L24.96,9.098 L26.754,2.143 L28.21,2.143 L25.74,10.814 L24.349,10.814 Z M29.315,10.814 L29.315,2.143 L35.139,2.143 L35.139,3.287 L30.615,3.287 L30.615,5.822 L35.048,5.822 L35.048,6.966 L30.615,6.966 L30.615,9.67 L35.139,9.67 L35.139,10.814 L29.315,10.814 Z M41.756,10.814 L39.689,7.473 L38.064,7.473 L38.064,10.814 L36.764,10.814 L36.764,2.143 L40.417,2.143 C42.068,2.143 43.199,3.209 43.199,4.808 C43.199,6.368 42.146,7.2 41.041,7.343 L43.264,10.814 L41.756,10.814 Z M41.86,4.808 C41.86,3.898 41.184,3.287 40.248,3.287 L38.064,3.287 L38.064,6.329 L40.248,6.329 C41.184,6.329 41.86,5.718 41.86,4.808 Z M44.798,10.814 L44.798,2.143 L50.622,2.143 L50.622,3.287 L46.098,3.287 L46.098,5.822 L50.531,5.822 L50.531,6.966 L46.098,6.966 L46.098,9.67 L50.622,9.67 L50.622,10.814 L44.798,10.814 Z M52.247,10.814 L52.247,2.143 L55.341,2.143 C58.045,2.143 59.839,3.989 59.839,6.485 C59.839,8.994 58.045,10.814 55.341,10.814 L52.247,10.814 Z M53.547,9.67 L55.341,9.67 C57.343,9.67 58.5,8.24 58.5,6.485 C58.5,4.704 57.382,3.287 55.341,3.287 L53.547,3.287 L53.547,9.67 Z M64.766,10.814 L64.766,2.143 L68.835,2.143 C70.382,2.143 71.279,3.092 71.279,4.353 C71.279,5.445 70.564,6.173 69.771,6.342 C70.694,6.485 71.448,7.421 71.448,8.474 C71.448,9.839 70.538,10.814 68.939,10.814 L64.766,10.814 Z M66.066,5.822 L68.588,5.822 C69.459,5.822 69.94,5.276 69.94,4.561 C69.94,3.846 69.459,3.287 68.588,3.287 L66.066,3.287 L66.066,5.822 Z M66.066,9.67 L68.653,9.67 C69.563,9.67 70.109,9.15 70.109,8.305 C70.109,7.59 69.615,6.966 68.653,6.966 L66.066,6.966 L66.066,9.67 Z M75.556,10.814 L75.556,7.187 L72.163,2.143 L73.658,2.143 L76.206,6.017 L78.728,2.143 L80.236,2.143 L76.856,7.187 L76.856,10.814 L75.556,10.814 Z" id="POWEREDBY" fill="#F0F0F0" fill-rule="nonzero"></path>
            </g>
        </g>
    </g>
</svg>