<?xml version="1.0" encoding="UTF-8"?>
<svg width="31px" height="26px" viewBox="0 0 31 26" version="1.1" xmlns="http://www.w3.org/2000/svg" xmlns:xlink="http://www.w3.org/1999/xlink">
    <!-- Generator: Sketch 55 (78076) - https://sketchapp.com -->
    <title>Twitter-color</title>
    <desc>Created with Sketch.</desc>
    <g id="Emails" stroke="none" stroke-width="1" fill="none" fill-rule="evenodd">
        <g id="Email-1---Create-an-individual-fundraising-page" transform="translate(-526.000000, -664.000000)" fill="#0072BC">
            <g id="RS" transform="translate(467.000000, 662.000000)">
                <path d="M85.5992815,6.4526905 C86.8736809,5.6726255 87.8515441,4.43571687 88.3122342,2.96226074 C87.1190293,3.68454316 85.8005025,4.21000361 84.3919558,4.49169375 C83.2693546,3.26561936 81.6648823,2.5 79.8891956,2.5 C76.4843252,2.5 73.7219498,5.32592994 73.7219498,8.81094258 C73.7219498,9.30570603 73.7749026,9.78602384 73.8808084,10.2482846 C68.7532042,9.9846515 64.2080817,7.47472012 61.1632909,3.65204045 C60.631997,4.58739617 60.3284005,5.6726255 60.3284005,6.82827736 C60.3284005,9.01679307 61.4174648,10.9488985 63.0731249,12.0810762 C62.06349,12.0503792 61.1103381,11.7632719 60.2772127,11.2937884 L60.2772127,11.3714337 C60.2772127,14.4302997 62.4041535,16.9817624 65.2283073,17.5595883 C64.7111341,17.7076562 64.1657194,17.7816901 63.6026538,17.7816901 C63.2055071,17.7816901 62.817186,17.7437703 62.4412205,17.6697364 C63.2266883,20.1760563 65.5036623,22.0016251 68.2042593,22.0503792 C66.0932044,23.7441315 63.4314394,24.7535211 60.5419771,24.7535211 C60.04422,24.7535211 59.5517582,24.7246298 59.0698869,24.6668472 C61.8004906,26.4544962 65.0447373,27.5 68.5272719,27.5 C79.8768399,27.5 86.0811527,17.8846154 86.0811527,9.54405923 C86.0811527,9.26959191 86.0758574,8.99512459 86.0652669,8.7260744 C87.2708275,7.83586132 88.3175295,6.72535211 89.1418294,5.45955218 C88.0368792,5.96153846 86.8472044,6.3010112 85.5992815,6.4526905 Z" id="Twitter"></path>
            </g>
        </g>
    </g>
</svg>