<?xml version="1.0" encoding="UTF-8"?>
<svg width="31px" height="22px" viewBox="0 0 31 22" version="1.1" xmlns="http://www.w3.org/2000/svg" xmlns:xlink="http://www.w3.org/1999/xlink">
    <!-- Generator: Sketch 55 (78076) - https://sketchapp.com -->
    <title>Youtube-color</title>
    <desc>Created with Sketch.</desc>
    <g id="Emails" stroke="none" stroke-width="1" fill="none" fill-rule="evenodd">
        <g id="Email-1---Create-an-individual-fundraising-page" transform="translate(-645.000000, -668.000000)" fill="#0072BC">
            <g id="RS" transform="translate(467.000000, 662.000000)">
                <path d="M190.859101,20.5436975 L190.858161,12.0548385 L198.983224,16.3139023 L190.859101,20.5436975 Z M208.699281,10.5838517 C208.699281,10.5838517 208.405139,8.50199938 207.503921,7.58522904 C206.360247,6.38143689 205.078431,6.37577198 204.491088,6.30590483 C200.282896,6 193.970607,6 193.970607,6 L193.957451,6 C193.957451,6 187.645162,6 183.436969,6.30590483 C182.848687,6.37577198 181.56781,6.38143689 180.423197,7.58522904 C179.521978,8.50199938 179.228777,10.5838517 179.228777,10.5838517 C179.228777,10.5838517 178.928058,13.029202 178.928058,15.4736082 L178.928058,17.7660061 C178.928058,20.2113565 179.228777,22.6557627 179.228777,22.6557627 C179.228777,22.6557627 179.521978,24.737615 180.423197,25.6543853 C181.56781,26.8581775 183.070468,26.8204114 183.739568,26.9459835 C186.145324,27.1782445 193.964029,27.25 193.964029,27.25 C193.964029,27.25 200.282896,27.2405585 204.491088,26.9346537 C205.078431,26.8638424 206.360247,26.8581775 207.503921,25.6543853 C208.405139,24.737615 208.699281,22.6557627 208.699281,22.6557627 C208.699281,22.6557627 209,20.2113565 209,17.7660061 L209,15.4736082 C209,13.029202 208.699281,10.5838517 208.699281,10.5838517 L208.699281,10.5838517 Z" id="Youtube"></path>
            </g>
        </g>
    </g>
</svg>