<?xml version="1.0" encoding="UTF-8"?>
<svg width="54px" height="54px" viewBox="0 0 54 54" version="1.1" xmlns="http://www.w3.org/2000/svg" xmlns:xlink="http://www.w3.org/1999/xlink">
    <!-- Generator: sketchtool 61.2 (101010) - https://sketch.com -->
    <title>07D584B2-F35D-41A8-8C0D-79F416307E41</title>
    <desc>Created with sketchtool.</desc>
    <defs>
        <polygon id="path-1" points="0 0.9 34 0.9 34 15.7783 0 15.7783"></polygon>
    </defs>
    <g id="Page-1" stroke="none" stroke-width="1" fill="none" fill-rule="evenodd">
        <g id="THE-DIFFERENCE-YOU-MAKE" transform="translate(-1080.000000, -4063.000000)">
            <g id="education_campaign" transform="translate(924.000000, 3842.000000)">
                <g id="icon_education" transform="translate(156.000000, 221.000000)">
                    <circle id="Oval" fill="#FCB910" cx="27" cy="27" r="27"></circle>
                    <g id="icon_education_alone" transform="translate(10.000000, 13.000000)">
                        <path d="M16.9977,14.3763 C16.0317,14.3763 15.0667,14.2333 14.1367,13.9823 L6.1247,11.5863 L6.1247,17.0593 C6.1247,18.0603 6.7687,18.9183 7.7347,19.2053 L11.2397,20.2423 C15.1017,21.3863 19.1797,21.3863 23.0417,20.2423 L26.5477,19.2053 C27.5127,18.9183 28.1567,18.0603 28.1567,17.0593 L28.1567,11.5153 L19.8587,13.9823 C18.9297,14.2693 17.9637,14.3763 16.9977,14.3763" id="Fill-1" fill="#FFFFFF"></path>
                        <g id="Group-5" transform="translate(0.000000, 0.100400)">
                            <mask id="mask-2" fill="white">
                                <use xlink:href="#path-1"></use>
                            </mask>
                            <g id="Clip-4"></g>
                            <path d="M33.2711,5.4063 L19.1441,1.2213 C17.7491,0.7923 16.2471,0.7923 14.8161,1.2213 L0.7241,5.4063 C-0.2419,5.6923 -0.2419,7.0873 0.7241,7.3733 L14.8521,11.5573 C16.2471,11.9873 17.7491,11.9873 19.1791,11.5573 L31.2681,7.9813 L31.2681,11.1643 C31.0181,11.3073 30.8391,11.5573 30.8391,11.8433 L30.8391,12.7023 C30.8391,13.0243 31.0181,13.3103 31.3041,13.4173 L30.5531,15.1703 C30.4461,15.4203 30.5891,15.6713 30.8751,15.7063 L31.6621,15.7783 L32.1261,15.7783 L32.9141,15.7063 C33.1641,15.6713 33.3071,15.4203 33.2351,15.1703 L32.4841,13.4173 C32.7711,13.2743 32.9491,13.0243 32.9491,12.7023 L32.9491,11.8433 C32.9491,11.5573 32.7711,11.3073 32.5201,11.1643 L32.5201,7.6233 L33.3071,7.3733 C34.2371,7.0513 34.2371,5.6923 33.2711,5.4063" id="Fill-3" fill="#FFFFFF" mask="url(#mask-2)"></path>
                        </g>
                    </g>
                </g>
            </g>
        </g>
    </g>
</svg>