<?xml version="1.0" encoding="UTF-8"?>
<svg width="29px" height="28px" viewBox="0 0 29 28" version="1.1" xmlns="http://www.w3.org/2000/svg" xmlns:xlink="http://www.w3.org/1999/xlink">
    <!-- Generator: sketchtool 62 (101010) - https://sketch.com -->
    <title>9C0510E6-EF43-49E9-AEAA-675947336B37</title>
    <desc>Created with sketchtool.</desc>
    <g id="UNWRA---Desktop" stroke="none" stroke-width="1" fill="none" fill-rule="evenodd">
        <g id="ALL-FUNDRAISING-PAGES" transform="translate(-668.000000, -335.000000)" fill="#B4B4B4">
            <g id="loop_bloc" transform="translate(655.000000, 324.000000)">
                <path d="M23.9701258,11.25 C29.6147799,11.25 34.1902516,15.8254717 34.1902516,21.4701258 C34.1902516,24.0015723 33.2625786,26.3286164 31.7216981,28.1210692 L31.7216981,28.1210692 L32.1619497,28.5455975 L33.4040881,28.5455975 L41.25,36.4072327 L38.9072327,38.75 L31.0455975,30.9040881 L31.0455975,29.6619497 L30.6210692,29.2216981 C28.8286164,30.7625786 26.5015723,31.6902516 23.9701258,31.6902516 C18.3254717,31.6902516 13.75,27.1147799 13.75,21.4701258 C13.75,15.8254717 18.3254717,11.25 23.9701258,11.25 Z M23.9701258,14.3946541 C20.0550314,14.3946541 16.8946541,17.5550314 16.8946541,21.4701258 C16.8946541,25.3852201 20.0550314,28.5455975 23.9701258,28.5455975 C27.8852201,28.5455975 31.0455975,25.3852201 31.0455975,21.4701258 C31.0455975,17.5550314 27.8852201,14.3946541 23.9701258,14.3946541 Z" id="loop"></path>
            </g>
        </g>
    </g>
</svg>