<?xml version="1.0" encoding="UTF-8"?>
<svg width="68px" height="68px" viewBox="0 0 68 68" version="1.1" xmlns="http://www.w3.org/2000/svg" xmlns:xlink="http://www.w3.org/1999/xlink">
    <!-- Generator: sketchtool 62 (101010) - https://sketch.com -->
    <title>DFA45FB8-36C9-4DAB-977D-2E5234AE2687</title>
    <desc>Created with sketchtool.</desc>
    <defs>
        <polygon id="path-1" points="0 0 67.9993 0 67.9993 67.9996 0 67.9996"></polygon>
    </defs>
    <g id="UNWRA---Desktop" stroke="none" stroke-width="1" fill="none" fill-rule="evenodd">
        <g id="FUNDRAISING-TIPS" transform="translate(-420.000000, -1054.000000)">
            <g id="Group" transform="translate(420.000000, 974.000000)">
                <g id="icon_network" transform="translate(0.000000, 80.000000)">
                    <mask id="mask-2" fill="white">
                        <use xlink:href="#path-1"></use>
                    </mask>
                    <g id="Clip-2"></g>
                    <path d="M60.8533,65.7796 C58.1473,65.7796 55.9263,63.5596 55.9263,60.8536 C55.9263,58.1466 58.1473,55.9266 60.8533,55.9266 C63.5593,55.9266 65.7803,58.1466 65.7803,60.8536 C65.7803,63.5596 63.5593,65.7796 60.8533,65.7796 M24.1473,33.9996 C24.1473,28.5876 28.5873,24.1466 33.9993,24.1466 C39.4123,24.1466 43.8533,28.5186 43.8533,33.9996 C43.8533,39.4126 39.4123,43.8536 33.9993,43.8536 C28.5873,43.8536 24.1473,39.4126 24.1473,33.9996 M10.9633,60.2986 C9.1593,60.2986 7.7023,58.8406 7.7023,57.0366 C7.7023,55.2326 9.1593,53.7756 10.9633,53.7756 C12.7673,53.7756 14.2243,55.2326 14.2243,57.0366 C14.2243,58.8406 12.7673,60.2986 10.9633,60.2986 M28.5183,7.7016 C28.5183,4.6496 30.9473,2.2206 33.9993,2.2206 C37.0533,2.2206 39.4813,4.6496 39.4813,7.7016 C39.4813,10.7556 37.0533,13.1836 33.9993,13.1836 C30.9473,13.1836 28.5183,10.6856 28.5183,7.7016 M57.5913,8.2576 C58.7713,8.2576 59.8123,9.2286 59.8123,10.4776 C59.8123,11.7266 58.8403,12.6976 57.5913,12.6976 C56.3423,12.6976 55.3723,11.7266 55.3723,10.4776 C55.3723,9.2286 56.3423,8.2576 57.5913,8.2576 M6.5913,38.3716 C4.1633,38.3716 2.2203,36.4286 2.2203,33.9996 C2.2203,31.5716 4.1633,29.6286 6.5913,29.6286 C9.0203,29.6286 10.9633,31.5716 10.9633,33.9996 C10.9633,36.4286 9.0203,38.3716 6.5913,38.3716 M60.8533,53.7756 C59.2573,53.7756 57.8703,54.2606 56.6903,55.1636 L43.2973,41.7016 C45.0333,39.6206 46.0743,36.9146 46.0743,33.9996 C46.0743,31.0856 45.0333,28.3796 43.2973,26.2986 L55.3723,14.2246 C55.9963,14.6406 56.7593,14.8486 57.5913,14.8486 C60.0203,14.8486 61.9633,12.9056 61.9633,10.4776 C61.9633,8.0496 60.0203,6.0366 57.5913,6.0366 C55.1633,6.0366 53.2203,7.9796 53.2203,10.4076 C53.2203,11.2406 53.4283,12.0046 53.8443,12.6286 L41.7023,24.7016 C39.8983,23.1756 37.6083,22.2036 35.1103,21.9266 L35.1103,15.2656 C38.8573,14.7106 41.7023,11.5186 41.7023,7.7016 C41.7023,3.4696 38.2333,-0.0004 33.9993,-0.0004 C29.7673,-0.0004 26.2973,3.4696 26.2973,7.7016 C26.2973,11.5876 29.1433,14.7796 32.8893,15.2656 L32.8893,21.9956 C27.1303,22.5506 22.4813,27.1306 21.9963,32.8896 L13.0443,32.8896 C12.4903,29.7676 9.7843,27.4076 6.5913,27.4076 C2.9843,27.4076 -0.0007,30.3916 -0.0007,33.9996 C-0.0007,37.6086 2.9843,40.5926 6.5913,40.5926 C9.8533,40.5926 12.5593,38.2326 13.0443,35.1106 L21.9963,35.1106 C22.2043,37.6086 23.2453,39.8976 24.7713,41.7016 L14.0163,52.4576 C13.1833,51.9026 12.1433,51.5546 10.9633,51.5546 C7.9103,51.5546 5.4813,53.9836 5.4813,57.0366 C5.4813,60.0896 7.9103,62.5186 10.9633,62.5186 C14.0163,62.5186 16.4453,60.0896 16.4453,57.0366 C16.4453,55.9266 16.0983,54.8856 15.5423,53.9836 L26.2973,43.2286 C28.3793,44.9636 31.0853,46.0046 33.9993,46.0046 C36.9143,46.0046 39.6213,44.9636 41.7023,43.2286 L55.0933,56.6206 C54.1923,57.8006 53.7063,59.2576 53.7063,60.8536 C53.7063,64.8086 56.8983,67.9996 60.8533,67.9996 C64.8083,67.9996 67.9993,64.8086 67.9993,60.8536 C67.9993,56.9676 64.8083,53.7756 60.8533,53.7756" id="Fill-1" fill="#24AAE2" mask="url(#mask-2)"></path>
                </g>
            </g>
        </g>
    </g>
</svg>