<?xml version="1.0" encoding="UTF-8"?>
<svg width="64px" height="59px" viewBox="0 0 64 59" version="1.1" xmlns="http://www.w3.org/2000/svg" xmlns:xlink="http://www.w3.org/1999/xlink">
    <!-- Generator: sketchtool 62 (101010) - https://sketch.com -->
    <title>26AB11B2-F136-4F6A-9894-7792BD9C67C1@1x</title>
    <desc>Created with sketchtool.</desc>
    <defs>
        <polygon id="path-1" points="0 0.000229405896 63.9998 0.000229405896 63.9998 58.6238 0 58.6238"></polygon>
    </defs>
    <g id="UNWRA---Desktop" stroke="none" stroke-width="1" fill="none" fill-rule="evenodd">
        <g id="FUNDRAISING-TIPS" transform="translate(-419.000000, -1848.000000)">
            <g id="Group" transform="translate(419.000000, 1776.000000)">
                <g id="icon_hearth" transform="translate(0.000000, 72.000000)">
                    <mask id="mask-2" fill="white">
                        <use xlink:href="#path-1"></use>
                    </mask>
                    <g id="Clip-2"></g>
                    <path d="M16.8418,4.053 C16.5178,4.053 16.1898,4.066 15.8528,4.091 C9.9628,4.533 3.9998,9.44 3.9998,17.963 C3.9998,33.491 26.7098,50.152 31.9998,53.822 C37.2908,50.152 59.9998,33.491 59.9998,17.963 C59.9998,9.252 54.4458,4.653 49.2838,4.066 C43.9118,3.461 36.6708,6.937 33.9488,18.757 L31.5918,28.995 L30.0228,18.607 C28.9898,11.774 24.9228,4.053 16.8418,4.053 L16.8418,4.053 Z M31.9998,58.624 L30.9108,57.917 C29.6488,57.096 -0.0002,37.617 -0.0002,17.963 C-0.0002,7.004 7.8238,0.683 15.5528,0.102 C21.4458,-0.335 28.6588,2.529 32.2238,11.38 C36.4788,2.195 43.9228,-0.563 49.7358,0.092 C56.6058,0.872 63.9998,6.798 63.9998,17.963 C63.9998,37.617 34.3518,57.096 33.0898,57.917 L31.9998,58.624 Z" id="Fill-1" fill="#24AAE2" mask="url(#mask-2)"></path>
                </g>
            </g>
        </g>
    </g>
</svg>