<?xml version="1.0" encoding="UTF-8"?>
<svg width="60px" height="62px" viewBox="0 0 60 62" version="1.1" xmlns="http://www.w3.org/2000/svg" xmlns:xlink="http://www.w3.org/1999/xlink">
    <!-- Generator: sketchtool 62 (101010) - https://sketch.com -->
    <title>A26ABCC3-D839-4112-BDD6-4EA68B267DF4</title>
    <desc>Created with sketchtool.</desc>
    <defs>
        <polygon id="path-1" points="0.2683 0.415 30 0.415 30 3 0.2683 3"></polygon>
    </defs>
    <g id="UNWRA---Desktop" stroke="none" stroke-width="1" fill="none" fill-rule="evenodd">
        <g id="FUNDRAISING-TIPS" transform="translate(-419.000000, -548.000000)">
            <g id="Group" transform="translate(419.000000, 466.000000)">
                <g id="icon_ball" transform="translate(0.000000, 82.000000)">
                    <path d="M28.4597,2.5854 C14.1927,2.5854 2.5847,14.1924 2.5847,28.4604 C2.5847,42.7274 14.1927,54.3344 28.4597,54.3344 C42.7277,54.3344 54.3347,42.7274 54.3347,28.4604 C54.3347,14.1924 42.7277,2.5854 28.4597,2.5854 M28.4597,56.9194 C12.7667,56.9194 0.0007,44.1524 0.0007,28.4604 C0.0007,12.7674 12.7667,0.0004 28.4597,0.0004 C44.1527,0.0004 56.9197,12.7674 56.9197,28.4604 C56.9197,44.1524 44.1527,56.9194 28.4597,56.9194" id="Fill-1" fill="#24AAE2"></path>
                    <path d="M28.4597,50.456 C27.7457,50.456 27.1677,49.877 27.1677,49.164 C27.1677,48.45 27.7457,47.871 28.4597,47.871 C33.0707,47.871 37.5457,46.213 41.0617,43.203 C45.3887,39.496 47.8707,34.123 47.8707,28.46 C47.8707,27.746 48.4497,27.167 49.1637,27.167 C49.8767,27.167 50.4567,27.746 50.4567,28.46 C50.4567,34.879 47.6447,40.968 42.7427,45.166 C38.7597,48.578 33.6877,50.456 28.4597,50.456" id="Fill-3" fill="#24AAE2"></path>
                    <path d="M29.6213,8.292 C28.5523,8.292 27.6823,9.162 27.6823,10.231 C27.6823,11.3 28.5523,12.17 29.6213,12.17 C30.6903,12.17 31.5603,11.3 31.5603,10.231 C31.5603,9.162 30.6903,8.292 29.6213,8.292 M29.6213,14.755 C27.1263,14.755 25.0973,12.726 25.0973,10.231 C25.0973,7.736 27.1263,5.707 29.6213,5.707 C32.1163,5.707 34.1463,7.736 34.1463,10.231 C34.1463,12.726 32.1163,14.755 29.6213,14.755" id="Fill-5" fill="#24AAE2"></path>
                    <path d="M17.987,12.1699 C16.918,12.1699 16.048,13.0399 16.048,14.1089 C16.048,15.1779 16.918,16.0479 17.987,16.0479 C19.056,16.0479 19.926,15.1779 19.926,14.1089 C19.926,13.0399 19.056,12.1699 17.987,12.1699 M17.987,18.6329 C15.492,18.6329 13.463,16.6039 13.463,14.1089 C13.463,11.6139 15.492,9.5849 17.987,9.5849 C20.482,9.5849 22.511,11.6139 22.511,14.1089 C22.511,16.6039 20.482,18.6329 17.987,18.6329" id="Fill-7" fill="#24AAE2"></path>
                    <path d="M27.0364,18.6333 C25.9674,18.6333 25.0974,19.5033 25.0974,20.5723 C25.0974,21.6413 25.9674,22.5113 27.0364,22.5113 C28.1054,22.5113 28.9754,21.6413 28.9754,20.5723 C28.9754,19.5033 28.1054,18.6333 27.0364,18.6333 M27.0364,25.0973 C24.5414,25.0973 22.5114,23.0673 22.5114,20.5723 C22.5114,18.0773 24.5414,16.0483 27.0364,16.0483 C29.5314,16.0483 31.5604,18.0773 31.5604,20.5723 C31.5604,23.0673 29.5314,25.0973 27.0364,25.0973" id="Fill-9" fill="#24AAE2"></path>
                    <path d="M52.2439,56.8789 L1.8279,56.8789 C1.1149,56.8789 0.5359,56.2999 0.5359,55.5869 C0.5359,54.8729 1.1149,54.2939 1.8279,54.2939 L52.2439,54.2939 C52.9579,54.2939 53.5359,54.8729 53.5359,55.5869 C53.5359,56.2999 52.9579,56.8789 52.2439,56.8789" id="Fill-11" fill="#24AAE2"></path>
                    <g id="Group-15" transform="translate(30.000000, 59.049800)">
                        <mask id="mask-2" fill="white">
                            <use xlink:href="#path-1"></use>
                        </mask>
                        <g id="Clip-14"></g>
                        <path d="M28.7073,3 L1.5603,3 C0.8463,3 0.2683,2.421 0.2683,1.708 C0.2683,0.994 0.8463,0.415 1.5603,0.415 L28.7073,0.415 C29.4213,0.415 30.0003,0.994 30.0003,1.708 C30.0003,2.421 29.4213,3 28.7073,3" id="Fill-13" fill="#24AAE2" mask="url(#mask-2)"></path>
                    </g>
                </g>
            </g>
        </g>
    </g>
</svg>