<?xml version="1.0" encoding="UTF-8"?>
<svg width="32px" height="32px" viewBox="0 0 32 32" version="1.1" xmlns="http://www.w3.org/2000/svg" xmlns:xlink="http://www.w3.org/1999/xlink">
    <!-- Generator: sketchtool 62 (101010) - https://sketch.com -->
    <title>9076DC91-50A1-4755-AA90-F5C597DF15A1</title>
    <desc>Created with sketchtool.</desc>
    <defs>
        <polygon id="path-1" points="0 0.000213333333 32 0.000213333333 32 32 0 32"></polygon>
    </defs>
    <g id="UNWRA---Desktop" stroke="none" stroke-width="1" fill="none" fill-rule="evenodd">
        <g id="THE-DIFFERENCE-YOU-MAKE" transform="translate(-357.000000, -1926.000000)">
            <g id="Group-4" transform="translate(246.000000, 1896.000000)">
                <g id="icon_health_small" transform="translate(111.000000, 30.000000)">
                    <mask id="mask-2" fill="white">
                        <use xlink:href="#path-1"></use>
                    </mask>
                    <g id="Clip-2"></g>
                    <path d="M18.7835733,20.43008 C18.8401067,20.7767467 18.55424,21.2887467 17.9441067,21.6674133 C17.5441067,21.9234133 17.15264,22.16768 16.76864,22.4087467 L16.8273067,18.03648 C18.9041067,18.8674133 18.7505067,19.9639467 18.7835733,20.43008 M13.8459733,21.6674133 C13.23584,21.2887467 12.9499733,20.7767467 13.00544,20.43008 C13.0395733,19.9490133 12.8721067,18.80128 15.14944,17.9650133 L15.2017067,22.5239467 C14.76224,22.2466133 14.30784,21.9618133 13.8459733,21.6674133 M22.1083733,2.09621333 C21.09824,1.26741333 20.3963733,1.46261333 19.38304,3.26741333 C18.7153067,4.46101333 17.6507733,4.60501333 16.9979733,4.56874667 L17.00224,4.32981333 C17.7585067,3.95434667 18.29184,3.19168 18.29184,2.29248 C18.29184,1.02421333 17.26464,0.000213333333 16.00064,0.000213333333 C14.7355733,0.000213333333 13.7041067,1.02421333 13.7041067,2.29354667 C13.7041067,3.19168 14.23744,3.95434667 14.99584,4.32874667 L14.9979733,4.56874667 C14.3483733,4.60608 13.2817067,4.46208 12.6129067,3.26848 C11.6049067,1.46261333 10.89984,1.26848 9.89184,2.09621333 C8.87744,2.92501333 4.87744,7.70581333 -0.000426666667,7.26634667 C-0.000426666667,7.26634667 0.96704,9.46154667 3.60170667,8.97514667 C3.60170667,8.97514667 5.00970667,10.43648 7.29557333,9.41354667 C7.29557333,9.41354667 8.48277333,10.48448 10.3729067,9.51061333 C10.3729067,9.51061333 11.77664,10.58368 13.27424,9.65674667 C13.27424,9.65674667 14.1201067,10.2690133 15.0609067,10.11008 L15.12064,15.63008 C15.0139733,15.6087467 14.92864,15.5842133 14.81664,15.5639467 C14.8123733,15.5618133 13.1793067,15.2119467 11.4513067,14.7266133 C9.78944,14.2914133 7.96437333,13.58528 7.69557333,13.21728 C7.71904,13.19488 7.75637333,13.1767467 7.80437333,13.1543467 C7.95157333,13.0754133 8.20437333,12.9954133 8.50410667,12.9346133 C9.11530667,12.8098133 9.94197333,12.74688 10.7729067,12.7138133 C12.4251733,12.65408 12.7227733,12.7255467 12.75264,12.73088 C12.7547733,12.6786133 13.7083733,12.8439467 13.9707733,11.8722133 C13.9611733,11.86368 13.9899733,11.8242133 13.9739733,11.8007467 C13.9195733,11.1319467 13.40544,11.09888 12.9841067,11.0210133 C12.3003733,10.9314133 12.65664,10.9666133 11.7361067,10.9783467 C10.2235733,11.0903467 5.56224,10.7138133 4.97557333,13.16608 C4.97557333,13.2354133 4.97130667,13.2791467 4.96277333,13.3399467 C5.15904,15.4754133 9.58250667,16.4034133 12.7857067,17.04128 C11.6987733,17.7858133 11.11744,18.7554133 10.8859733,20.00768 C10.7761067,21.3431467 11.8363733,22.6135467 14.29824,24.0343467 C12.4283733,25.3602133 11.1985067,26.60288 11.2987733,28.1058133 C11.4737067,29.3303467 12.5553067,30.96768 14.6801067,31.9991467 C14.6865067,32.00128 14.68864,31.9970133 14.6929067,31.9991467 L14.69824,31.9991467 C14.69824,31.9991467 13.2113067,29.7303467 13.11104,28.4887467 C13.0129067,27.7634133 13.4257067,26.6935467 15.2337067,25.40288 L15.2859733,29.9415467 L15.2945067,29.9415467 C15.3073067,30.3266133 15.6049067,30.63488 15.9803733,30.63488 C16.3547733,30.63488 16.6523733,30.3266133 16.6651733,29.9415467 L16.6715733,29.9415467 L16.7323733,25.52128 C18.3985067,26.7575467 18.7761067,27.7847467 18.6801067,28.4887467 C18.57984,29.7303467 17.09504,31.9991467 17.09504,31.9991467 L17.09824,31.9991467 C17.09824,31.9991467 17.1035733,32.00128 17.1131733,31.9991467 C19.23584,30.96768 20.3195733,29.3303467 20.4923733,28.1047467 C20.59264,26.60288 19.36384,25.3591467 17.49504,24.0343467 C19.9547733,22.6135467 21.01824,21.34208 20.9073067,20.00768 C20.67584,18.7554133 20.0945067,17.7858133 19.00544,17.04128 C22.21184,16.4034133 26.6321067,15.4754133 26.8283733,13.3399467 C26.81984,13.2791467 26.8155733,13.2354133 26.8155733,13.16608 C26.2299733,10.7127467 21.5675733,11.0903467 20.05504,10.9783467 C19.1345067,10.9655467 19.4907733,10.9314133 18.80704,11.0199467 C18.3867733,11.0978133 17.87264,11.1319467 17.81824,11.8007467 C17.8011733,11.8231467 17.8321067,11.8626133 17.8225067,11.8722133 C18.0849067,12.84288 19.0385067,12.6786133 19.04064,12.73088 C19.0683733,12.7255467 19.3659733,12.65408 21.0203733,12.7127467 C21.8491733,12.7458133 22.6769067,12.8098133 23.28704,12.9335467 C23.5889067,12.9954133 23.83744,13.0754133 23.9867733,13.15328 C24.0347733,13.1767467 24.07424,13.1938133 24.0977067,13.21728 C23.8289067,13.58528 22.00384,14.2914133 20.3409067,14.7266133 C18.61184,15.21088 16.9787733,15.5618133 16.9745067,15.5639467 C16.9329067,15.5714133 16.89984,15.5799467 16.85824,15.5874133 L16.9297067,10.1090133 C17.8747733,10.2743467 18.72704,9.65568 18.72704,9.65568 C20.22144,10.58368 21.62944,9.51061333 21.62944,9.51061333 C23.5185067,10.48448 24.70464,9.41354667 24.70464,9.41354667 C26.98944,10.43648 28.3985067,8.97514667 28.3985067,8.97514667 C31.03104,9.46154667 32.00064,7.26634667 32.00064,7.26634667 C27.12064,7.70581333 23.12064,2.92501333 22.1083733,2.09621333" id="Fill-1" fill="#24AAE2" mask="url(#mask-2)"></path>
                </g>
            </g>
        </g>
    </g>
</svg>