<?xml version="1.0" encoding="UTF-8"?>
<svg width="54px" height="54px" viewBox="0 0 54 54" version="1.1" xmlns="http://www.w3.org/2000/svg" xmlns:xlink="http://www.w3.org/1999/xlink">
    <!-- Generator: sketchtool 62 (101010) - https://sketch.com -->
    <title>722E2467-8C08-42EC-B37D-5441D2A6036F</title>
    <desc>Created with sketchtool.</desc>
    <defs>
        <polygon id="path-1" points="1.14928668e-05 0.21 33.9997565 0.21 33.9997565 23.9091 1.14928668e-05 23.9091"></polygon>
    </defs>
    <g id="Page-1" stroke="none" stroke-width="1" fill="none" fill-rule="evenodd">
        <g id="HOME" transform="translate(-1080.000000, -2676.000000)">
            <g id="education_campaign" transform="translate(924.000000, 2455.000000)">
                <g id="icon_education" transform="translate(156.000000, 221.000000)">
                    <circle id="Oval" fill="#FCB910" cx="27" cy="27" r="27"></circle>
                    <g id="icon_shelter_alone" transform="translate(10.000000, 12.000000)">
                        <g id="Group-3" transform="translate(0.000000, 0.790400)">
                            <mask id="mask-2" fill="white">
                                <use xlink:href="#path-1"></use>
                            </mask>
                            <g id="Clip-2"></g>
                            <path d="M33.748,10.6681 L17.286,0.2901 C17.107,0.1831 16.893,0.1831 16.714,0.2901 L0.252,10.6681 C0.001,10.8111 -0.07,11.1331 0.073,11.3841 L0.753,12.4221 C0.896,12.6721 1.218,12.7441 1.469,12.6011 L5.477,10.0601 L5.477,23.4081 C5.477,23.6941 5.691,23.9091 5.977,23.9091 L7.23,23.9091 C7.517,23.9091 7.731,23.6941 7.731,23.4081 L7.731,8.6281 L17,2.7951 L26.269,8.6281 L26.269,23.4081 C26.269,23.6941 26.483,23.9091 26.769,23.9091 L28.022,23.9091 C28.309,23.9091 28.523,23.6941 28.523,23.4081 L28.523,10.0601 L32.531,12.6011 C32.782,12.7441 33.104,12.6721 33.247,12.4221 L33.927,11.3841 C34.07,11.1331 33.998,10.8111 33.748,10.6681" id="Fill-1" fill="#FFFFFF" mask="url(#mask-2)"></path>
                        </g>
                        <path d="M13.457,9.1685 C14.366,9.1685 15.103,9.9055 15.103,10.8145 C15.103,11.7235 14.366,12.4605 13.457,12.4605 C12.548,12.4605 11.811,11.7235 11.811,10.8145 C11.811,9.9055 12.548,9.1685 13.457,9.1685" id="Fill-4" fill="#FFFFFF"></path>
                        <path d="M20.5429,9.1685 C21.4519,9.1685 22.1889,9.9055 22.1889,10.8145 C22.1889,11.7235 21.4519,12.4605 20.5429,12.4605 C19.6339,12.4605 18.8969,11.7235 18.8969,10.8145 C18.8969,9.9055 19.6339,9.1685 20.5429,9.1685" id="Fill-6" fill="#FFFFFF"></path>
                        <path d="M22.5825,13.3193 C22.4755,13.1403 22.2605,12.9973 22.0455,12.9973 L19.0405,12.9973 C18.8255,12.9973 18.6105,13.1053 18.5025,13.3193 L16.9995,15.8243 L15.4975,13.3193 C15.3895,13.1403 15.1745,12.9973 14.9605,12.9973 L11.9545,12.9973 C11.7395,12.9973 11.5245,13.1053 11.4175,13.3193 L9.3775,16.6833 C9.2345,16.9343 9.2345,17.2923 9.4845,17.5063 C9.8075,17.7933 10.2365,17.6853 10.4515,17.3633 L11.6315,15.3953 L11.6315,23.9843 C11.6315,24.3413 11.8825,24.6643 12.2045,24.7353 C12.6695,24.8423 13.0995,24.4853 13.0995,24.0193 L13.0995,19.0093 L13.7795,19.0093 L13.7795,23.9843 C13.7795,24.3413 14.0295,24.6643 14.3525,24.7353 C14.8165,24.8423 15.2465,24.4853 15.2465,24.0193 L15.2465,15.4313 L16.4275,17.3993 C16.4995,17.5063 16.6065,17.6133 16.7135,17.6503 C17.0355,17.7933 17.3575,17.6503 17.5005,17.3993 L18.6825,15.4313 L18.6825,17.1483 L17.4295,19.5463 C17.2145,19.9403 17.5005,20.4053 17.9665,20.4053 L18.6825,20.4053 L18.6825,24.0193 C18.6825,24.3773 18.9325,24.6993 19.2545,24.7713 C19.7195,24.8783 20.1495,24.5203 20.1495,24.0553 L20.1495,20.3693 L20.8295,20.3693 L20.8295,23.9843 C20.8295,24.3413 21.0795,24.6643 21.4015,24.7353 C21.8675,24.8423 22.2965,24.4853 22.2965,24.0193 L22.2965,20.3693 L23.0125,20.3693 C23.4415,20.3693 23.7635,19.9043 23.5485,19.5103 L22.3685,17.0773 L22.3685,15.3593 L23.5485,17.3273 C23.6565,17.5063 23.8715,17.6503 24.0855,17.6503 C24.1935,17.6503 24.3365,17.6133 24.4435,17.5423 C24.7295,17.3633 24.7655,16.9693 24.5865,16.6833 L22.5825,13.3193 Z" id="Fill-8" fill="#FFFFFF"></path>
                    </g>
                </g>
            </g>
        </g>
    </g>
</svg>