<?xml version="1.0" encoding="UTF-8"?>
<svg width="20px" height="20px" viewBox="0 0 20 20" version="1.1" xmlns="http://www.w3.org/2000/svg" xmlns:xlink="http://www.w3.org/1999/xlink">
    <!-- Generator: sketchtool 62 (101010) - https://sketch.com -->
    <title>287E98D0-23D3-41DD-B3B1-8143F6EC302B</title>
    <desc>Created with sketchtool.</desc>
    <g id="UNWRA---Desktop" stroke="none" stroke-width="1" fill="none" fill-rule="evenodd">
        <g id="SETUP-FUNDRAISING-PAGE---EXEMPLE-OF-GLOBAL-CAMPAIGN" transform="translate(-1118.000000, -719.000000)">
            <g id="question_mark" transform="translate(1118.000000, 719.000000)">
                <circle id="Oval-2" fill="#000000" fill-rule="nonzero" cx="10" cy="10" r="10"></circle>
                <path d="M8.79361914,11.7248255 C8.79361914,10.3888335 9.79062812,9.69092722 10.7078764,9.0329013 C11.5852443,8.43469591 12.4027916,7.87637089 12.4027916,6.85942173 C12.4027916,5.86241276 11.6251246,5.00498504 10.0498504,5.00498504 C8.55433699,5.00498504 7.61714855,5.66301097 6.87936191,6.64007976 L5.88235294,5.56331007 C6.83948156,4.32701894 8.31505484,3.52941176 10.2093719,3.52941176 C12.6420738,3.52941176 14.1176471,4.90528415 14.1176471,6.62013958 C14.1176471,8.29511466 12.9411765,9.11266201 11.884347,9.85044865 C11.0269192,10.448654 10.2492522,10.9670987 10.2492522,11.8444666 C10.2492522,12.1635095 10.448654,12.5623131 10.7876371,12.8215354 L9.57128614,13.3399801 C9.0329013,12.8813559 8.79361914,12.3230309 8.79361914,11.7248255 Z M8.89332004,16.1316052 C8.89332004,15.5333998 9.39182453,15.0348953 9.99002991,15.0348953 C10.5882353,15.0348953 11.0867398,15.5333998 11.0867398,16.1316052 C11.0867398,16.7298106 10.5882353,17.2283151 9.99002991,17.2283151 C9.39182453,17.2283151 8.89332004,16.7298106 8.89332004,16.1316052 Z" id="?" fill="#FFFFFF"></path>
            </g>
        </g>
    </g>
</svg>